<svg width="45" height="28" viewBox="0 0 45 28" fill="none" xmlns="http://www.w3.org/2000/svg">
<g id="Clip path group">
<mask id="mask0_42_3767" style="mask-type:luminance" maskUnits="userSpaceOnUse" x="0" y="0" width="45" height="28">
<g id="clip5_601_3686">
<path id="Vector" d="M44.4621 0.0195312H0.429596V27.8295H44.4621V0.0195312Z" fill="white"/>
</g>
</mask>
<g mask="url(#mask0_42_3767)">
<g id="Group">
<path id="Vector_2" opacity="0.07" d="M40.9855 0.0195312H3.90585C1.9363 0.0195312 0.429596 1.52591 0.429596 3.49578V24.3533C0.429596 26.3231 2.05151 27.8295 3.90585 27.8295H40.9855C42.9561 27.8295 44.4618 26.3231 44.4618 24.3533V3.49578C44.4618 1.52591 42.8399 0.0195312 40.9855 0.0195312Z" fill="#0C1121"/>
<path id="Vector_3" d="M40.9865 1.17871C42.2608 1.17871 43.3037 2.22159 43.3037 3.49621V24.3537C43.3037 25.6283 42.2608 26.6712 40.9865 26.6712H3.90586C2.63157 26.6712 1.58871 25.6283 1.58871 24.3537V3.49621C1.58871 2.22159 2.63157 1.17871 3.90586 1.17871H40.9865Z" fill="white"/>
<path id="Vector_4" d="M33.2216 11.7225H32.8739C32.4111 12.8812 32.0635 13.4606 31.7158 15.1987H33.9168C33.5692 13.4606 33.5692 12.6495 33.2216 11.7225ZM36.5826 18.5591H34.6121C34.4969 18.5591 34.4969 18.5591 34.3807 18.4432L34.1492 17.4003L34.033 17.1686H31.252C31.1358 17.1686 31.0206 17.1686 31.0206 17.4003L30.673 18.4432C30.673 18.5591 30.5568 18.5591 30.5568 18.5591H28.1234L28.3548 17.9797L31.7158 10.1002C31.7158 9.52082 32.0635 9.28906 32.6425 9.28906H34.3807C34.4969 9.28906 34.6121 9.28906 34.6121 9.52082L36.235 17.0527C36.3502 17.5162 36.4664 17.8638 36.4664 18.3274C36.5826 18.4432 36.5826 18.4432 36.5826 18.5591ZM21.0547 18.2115L21.5185 16.1257C21.6347 16.1257 21.7499 16.2416 21.7499 16.2416C22.5614 16.5892 23.3729 16.821 24.1833 16.705C24.4157 16.705 24.7633 16.5892 24.9948 16.4733C25.5738 16.2416 25.5738 15.6622 25.111 15.1987C24.8786 14.9669 24.5309 14.8511 24.1833 14.6193C23.7205 14.3876 23.2566 14.1559 22.909 13.8082C21.5185 12.6495 21.9824 11.0272 22.7928 10.2161C23.4881 9.75257 23.8357 9.28906 24.7633 9.28906C26.1538 9.28906 27.6596 9.28906 28.3548 9.52082H28.471C28.3548 10.2161 28.2396 10.7954 28.0072 11.4907C27.4282 11.259 26.8491 11.0272 26.2691 11.0272C25.9215 11.0272 25.5738 11.0272 25.2262 11.143C24.9948 11.143 24.8786 11.259 24.7633 11.3749C24.5309 11.6066 24.5309 11.9542 24.7633 12.1859L25.3424 12.6495C25.8062 12.8812 26.2691 13.113 26.6167 13.3447C27.1967 13.6923 27.7758 14.2717 27.892 14.9669C28.1234 16.0098 27.7758 16.9369 26.8491 17.6321C26.2691 18.0955 26.0376 18.3274 25.2262 18.3274C23.6043 18.3274 22.33 18.4432 21.2871 18.0955C21.1709 18.3274 21.1709 18.3274 21.0547 18.2115ZM16.9994 18.5591C17.1156 17.7479 17.1156 17.7479 17.2308 17.4003C17.8109 14.8511 18.3899 12.1859 18.8537 9.63669C18.969 9.40494 18.9689 9.28906 19.2013 9.28906H21.2871C21.0547 10.6796 20.8233 11.7225 20.4757 12.9971C20.128 14.7352 19.7804 16.4733 19.3166 18.2115C19.3166 18.4432 19.2014 18.4432 18.9689 18.4432M6.22302 9.52082C6.22302 9.40494 6.45445 9.28906 6.57065 9.28906H10.5107C11.0898 9.28906 11.5536 9.63669 11.6688 10.2161L12.7117 15.3145C12.7117 15.4305 12.7117 15.4305 12.8279 15.5464C12.8279 15.4305 12.9441 15.4305 12.9441 15.4305L15.3775 9.52082C15.2613 9.40494 15.3775 9.28906 15.4927 9.28906H17.9261C17.9261 9.40494 17.9261 9.40494 17.8108 9.52082L14.2184 17.9797C14.1022 18.2115 14.1022 18.3274 13.987 18.4432C13.8708 18.5591 13.6394 18.4432 13.4069 18.4432H11.6688C11.5536 18.4432 11.4374 18.4432 11.4374 18.2115L9.58306 11.0272C9.35164 10.7954 9.00403 10.4478 8.5402 10.332C7.84495 9.98436 6.57065 9.75257 6.33923 9.75257L6.22302 9.52082Z" fill="#142688"/>
</g>
</g>
</g>
</svg>
