<svg width="45" height="28" viewBox="0 0 45 28" fill="none" xmlns="http://www.w3.org/2000/svg">
<g id="Clip path group">
<mask id="mask0_42_3742" style="mask-type:luminance" maskUnits="userSpaceOnUse" x="0" y="0" width="45" height="28">
<g id="clip2_601_3686">
<path id="Vector" d="M44.5274 0.0195312H0.494965V27.8295H44.5274V0.0195312Z" fill="white"/>
</g>
</mask>
<g mask="url(#mask0_42_3742)">
<g id="Group">
<path id="Vector_2" opacity="0.07" d="M41.0509 0.0195312H3.97121C2.00167 0.0195312 0.494965 1.52591 0.494965 3.49578V24.3533C0.494965 26.3231 2.11688 27.8295 3.97121 27.8295H41.0509C43.0214 27.8295 44.5271 26.3231 44.5271 24.3533V3.49578C44.5271 1.52591 42.9052 0.0195312 41.0509 0.0195312Z" fill="#0C1121"/>
<path id="Vector_3" d="M41.0519 1.17871C42.3262 1.17871 43.3691 2.22159 43.3691 3.49621V24.3537C43.3691 25.6283 42.3262 26.6712 41.0519 26.6712H3.97122C2.69693 26.6712 1.65405 25.6283 1.65405 24.3537V3.49621C1.65405 2.22159 2.69693 1.17871 3.97122 1.17871H41.0519Z" fill="white"/>
<path id="Vector_4" d="M4.6317 8.31581H2.81213V14.6889H4.6317C5.59313 14.6889 6.28838 14.4572 6.90219 13.9589C7.6322 13.3564 8.06127 12.4526 8.06127 11.514C8.04936 9.62519 6.64793 8.31581 4.6317 8.31581ZM6.09173 13.1131C5.69742 13.4607 5.19883 13.6229 4.38836 13.6229H4.05167V9.40504H4.38836C5.1879 9.40504 5.67458 9.54409 6.09173 9.91488C6.5198 10.2973 6.77506 10.8883 6.77506 11.5024C6.77506 12.1165 6.5198 12.7307 6.09173 13.1131ZM8.62939 8.31581H9.86892V14.6889H8.62939V8.31581ZM12.9052 10.7607C12.1632 10.4826 11.9428 10.2973 11.9428 9.96119C11.9428 9.55567 12.3371 9.2544 12.8704 9.2544C13.2409 9.2544 13.5537 9.40504 13.8666 9.77583L14.5152 8.92994C13.9828 8.46645 13.3452 8.22311 12.638 8.22311C11.5147 8.22311 10.6456 9.01106 10.6456 10.054C10.6456 10.9345 11.0508 11.3864 12.2099 11.8036C12.6966 11.9774 12.9399 12.0933 13.0671 12.1628C13.3104 12.325 13.4375 12.5569 13.4375 12.8233C13.4375 13.3448 13.0323 13.7272 12.4761 13.7272C11.8851 13.7272 11.4104 13.4259 11.1204 12.8812L10.3208 13.6576C10.8889 14.5036 11.5842 14.8743 12.5228 14.8743C13.809 14.8743 14.7237 14.0169 14.7237 12.7769C14.7476 11.7457 14.3185 11.2822 12.9052 10.7607ZM15.13 11.514C15.13 13.3912 16.6009 14.8396 18.49 14.8396C19.0234 14.8396 19.4862 14.7353 20.0424 14.4688V13.0088C19.5448 13.507 19.1038 13.704 18.5476 13.704C17.2962 13.704 16.4043 12.8002 16.4043 11.5024C16.4043 10.274 17.32 9.31233 18.49 9.31233C19.081 9.31233 19.5329 9.5209 20.0424 10.0307V8.57074C19.4981 8.29264 19.0462 8.17676 18.5129 8.17676C16.6476 8.17676 15.13 9.65995 15.13 11.514ZM29.915 12.6031L28.2116 8.31581H26.8559L29.5564 14.8512H30.2278L32.9741 8.31581H31.6302L29.915 12.6031ZM33.5422 14.6889H37.0651V13.6112H34.7817V11.8964H36.9837V10.8187H34.7817V9.40504H37.0651V8.31581H33.5422V14.6889ZM41.9895 10.2045C41.9895 9.01106 41.1671 8.3274 39.7299 8.3274H37.8875V14.7005H39.127V12.1397H39.2899L41.0042 14.7005H42.5337L40.5294 12.0122C41.468 11.8152 41.9895 11.1779 41.9895 10.2045ZM39.4866 11.259H39.127V9.32392H39.5094C40.2861 9.32392 40.7033 9.64837 40.7033 10.274C40.7033 10.9114 40.2861 11.259 39.4866 11.259Z" fill="#231F20"/>
<path id="Vector_5" d="M23.8554 14.9215C24.7562 14.9215 25.6203 14.5636 26.257 13.9268C26.8936 13.2898 27.2522 12.4259 27.2522 11.5252C27.2522 10.6244 26.8936 9.76059 26.257 9.12365C25.6203 8.48672 24.7562 8.12891 23.8554 8.12891C22.9545 8.12891 22.0904 8.48672 21.4538 9.12365C20.8171 9.76059 20.4596 10.6244 20.4596 11.5252C20.4596 12.4259 20.8171 13.2898 21.4538 13.9268C22.0904 14.5636 22.9545 14.9215 23.8554 14.9215Z" fill="url(#paint0_linear_42_3742)"/>
<path id="Vector_6" opacity="0.65" d="M23.8554 14.9215C24.7562 14.9215 25.6203 14.5636 26.257 13.9268C26.8936 13.2898 27.2522 12.4259 27.2522 11.5252C27.2522 10.6244 26.8936 9.76059 26.257 9.12365C25.6203 8.48672 24.7562 8.12891 23.8554 8.12891C22.9545 8.12891 22.0904 8.48672 21.4538 9.12365C20.8171 9.76059 20.4596 10.6244 20.4596 11.5252C20.4596 12.4259 20.8171 13.2898 21.4538 13.9268C22.0904 14.5636 22.9545 14.9215 23.8554 14.9215Z" fill="url(#paint1_linear_42_3742)"/>
<path id="Vector_7" d="M42.8705 8.71678C42.8705 8.6009 42.79 8.54297 42.6619 8.54297H42.4771V9.09917H42.6162V8.879L42.7781 9.09917H42.94L42.7552 8.86742C42.8248 8.85583 42.8705 8.7979 42.8705 8.71678ZM42.639 8.7979H42.6162V8.64726H42.639C42.7086 8.64726 42.7433 8.67043 42.7433 8.71678C42.7433 8.77471 42.7086 8.7979 42.639 8.7979Z" fill="#231F20"/>
<path id="Vector_8" d="M42.6847 8.33496C42.4185 8.33496 42.198 8.55513 42.198 8.82164C42.198 9.08814 42.4185 9.30831 42.6847 9.30831C42.9519 9.30831 43.1714 9.08814 43.1714 8.82164C43.1714 8.55513 42.9519 8.33496 42.6847 8.33496ZM42.6847 9.22719C42.4761 9.22719 42.2914 9.05338 42.2914 8.82164C42.2914 8.60147 42.4652 8.41608 42.6847 8.41608C42.8933 8.41608 43.0671 8.60147 43.0671 8.82164C43.0671 9.0418 42.8933 9.22719 42.6847 9.22719Z" fill="#231F20"/>
<path id="Vector_9" d="M43.368 15.0645C43.368 15.0645 31.8855 23.0471 10.8959 26.6706H41.0499C41.6607 26.6706 42.2477 26.4289 42.6817 25.9984C43.1158 25.5677 43.3621 24.983 43.3671 24.3716L43.3949 20.8722L43.368 15.0645Z" fill="#F48120"/>
</g>
</g>
</g>
<defs>
<linearGradient id="paint0_linear_42_3742" x1="25.5905" y1="14.2436" x2="23.2435" y2="10.5692" gradientUnits="userSpaceOnUse">
<stop stop-color="#F89F20"/>
<stop offset="0.25" stop-color="#F79A20"/>
<stop offset="0.533" stop-color="#F68D20"/>
<stop offset="0.62" stop-color="#F58720"/>
<stop offset="0.723" stop-color="#F48120"/>
<stop offset="1" stop-color="#F37521"/>
</linearGradient>
<linearGradient id="paint1_linear_42_3742" x1="25.22" y1="14.1938" x2="21.7905" y2="7.48928" gradientUnits="userSpaceOnUse">
<stop stop-color="#F58720"/>
<stop offset="0.359" stop-color="#E16F27"/>
<stop offset="0.703" stop-color="#D4602C"/>
<stop offset="0.982" stop-color="#D05B2E"/>
</linearGradient>
</defs>
</svg>
