<svg width="45" height="28" viewBox="0 0 45 28" fill="none" xmlns="http://www.w3.org/2000/svg">
<g id="Clip path group">
<mask id="mask0_42_3730" style="mask-type:luminance" maskUnits="userSpaceOnUse" x="0" y="0" width="45" height="28">
<g id="clip1_601_3686">
<path id="Vector" d="M44.5486 0.0195312H0.516113V27.8295H44.5486V0.0195312Z" fill="white"/>
</g>
</mask>
<g mask="url(#mask0_42_3730)">
<g id="Group">
<path id="Vector_2" d="M40.3619 0.0195312H4.70223C4.55365 0.0195312 4.40486 0.0195312 4.25658 0.0203186C4.13133 0.0213684 4.00649 0.0226806 3.88124 0.0260924C3.6086 0.0334408 3.33358 0.0497125 3.06432 0.0980023C2.79427 0.144269 2.53256 0.23051 2.28793 0.353886C1.79619 0.604017 1.39642 1.00374 1.14633 1.49553C1.02277 1.74025 0.93646 2.0021 0.890474 2.27236C0.841608 2.54189 0.825617 2.81667 0.818267 3.08909C0.815089 3.21416 0.813104 3.33927 0.812508 3.46439C0.812011 3.6124 0.812012 3.76095 0.812012 3.90975V23.939C0.812012 24.0879 0.812011 24.2361 0.812508 24.385C0.813303 24.5098 0.81489 24.6351 0.818267 24.7602C0.825617 25.0321 0.841906 25.3072 0.890474 25.5764C0.936361 25.8467 1.02257 26.1086 1.14603 26.3533C1.27028 26.5976 1.43237 26.8209 1.62635 27.0146C1.82003 27.2087 2.0432 27.3709 2.28773 27.4949C2.53623 27.6217 2.79079 27.7022 3.06452 27.7514C3.33358 27.7993 3.6086 27.8156 3.88124 27.823C4.00649 27.8259 4.13133 27.8274 4.25658 27.8282C4.40486 27.8292 4.55365 27.8292 4.70223 27.8292H40.3619C40.5102 27.8292 40.659 27.8292 40.8073 27.8282C40.9322 27.8276 41.0572 27.8259 41.1829 27.823C41.455 27.8156 41.7301 27.7993 41.9998 27.7514C42.27 27.705 42.5316 27.6186 42.7762 27.4949C43.2676 27.2444 43.6673 26.8448 43.9178 26.3533C44.0445 26.1047 44.1249 25.8502 44.1735 25.5764C44.2222 25.3072 44.238 25.0321 44.2454 24.7602C44.2487 24.6351 44.2505 24.5098 44.2511 24.385C44.2521 24.2361 44.2521 24.0879 44.2521 23.939V3.91002C44.2521 3.76121 44.2521 3.61266 44.2511 3.46413C44.2506 3.33909 44.2486 3.21408 44.2454 3.08909C44.238 2.81667 44.2222 2.54189 44.1735 2.27236C44.1277 2.00205 44.0416 1.74017 43.9178 1.49553C43.6675 1.00383 43.2678 0.604136 42.7762 0.353886C42.5315 0.230637 42.2699 0.144487 41.9998 0.0982648C41.7301 0.0497125 41.455 0.0337033 41.1829 0.0263548C41.0577 0.0231759 40.9325 0.0212512 40.8073 0.020581C40.659 0.0195312 40.5102 0.0195312 40.3619 0.0195312Z" fill="#0C1121"/>
<path id="Vector_3" d="M40.3622 0.946289L40.801 0.947076C40.9197 0.947863 41.0386 0.949175 41.158 0.952325C41.366 0.958098 41.6091 0.969384 41.8358 1.01006C42.0327 1.04549 42.198 1.09929 42.3566 1.18013C42.6738 1.34142 42.9315 1.59941 43.0924 1.91681C43.1728 2.07428 43.2263 2.23857 43.2617 2.43724C43.3021 2.66137 43.3134 2.90518 43.3189 3.11435C43.3224 3.23245 43.324 3.35055 43.3242 3.47128C43.3254 3.61746 43.3254 3.76337 43.3254 3.90982V23.9391C43.3254 24.0856 43.3254 24.2315 43.3244 24.3805C43.324 24.4986 43.3224 24.6167 43.3192 24.7348C43.3134 24.9438 43.3021 25.1875 43.2612 25.4143C43.2314 25.5946 43.1744 25.7694 43.0919 25.9326C42.9306 26.2502 42.6725 26.5081 42.355 26.6693C42.1974 26.7496 42.0327 26.8035 41.8377 26.8386C41.6065 26.8798 41.3529 26.8911 41.1621 26.8963C41.0422 26.8989 40.9228 26.9008 40.8002 26.9013C40.6546 26.9024 40.5081 26.9024 40.3622 26.9024H4.69675C4.55234 26.9024 4.40803 26.9024 4.26103 26.9013C4.14294 26.9008 4.02484 26.8992 3.90675 26.8966C3.71148 26.8914 3.45792 26.8798 3.22858 26.8388C3.04722 26.8086 2.87152 26.7511 2.70734 26.6683C2.54992 26.5883 2.4062 26.4838 2.28165 26.3586C2.15671 26.2339 2.05242 26.0901 1.97257 25.9326C1.89003 25.7686 1.83292 25.5929 1.80302 25.4117C1.762 25.1852 1.75048 24.9424 1.74522 24.7351C1.74224 24.6166 1.74055 24.498 1.73995 24.3794L1.73926 24.0312V3.81796L1.73975 3.47023C1.74025 3.3515 1.74204 3.23278 1.74502 3.11409C1.75078 2.90623 1.762 2.66347 1.80322 2.43514C1.83322 2.25428 1.89033 2.07899 1.97276 1.91524C2.05262 1.75829 2.15651 1.615 2.28245 1.48929C2.4073 1.36423 2.55121 1.25972 2.70864 1.1796C2.87242 1.09735 3.04762 1.0402 3.22829 1.01006C3.45534 0.969384 3.69867 0.958098 3.90705 0.952325C4.02564 0.949175 4.14453 0.947863 4.26232 0.947076L4.70251 0.946289H40.3622Z" fill="white"/>
<path id="Vector_4" d="M12.2306 9.40744C12.599 8.94685 12.8489 8.32826 12.783 7.69629C12.2439 7.72307 11.5863 8.05191 11.2052 8.51302C10.8632 8.90774 10.5606 9.55204 10.6394 10.1575C11.2445 10.21 11.8492 9.85517 12.2306 9.40744Z" fill="#0C1121"/>
<path id="Vector_5" d="M12.7765 10.276C11.8973 10.2235 11.1504 10.7747 10.7307 10.7747C10.3108 10.7747 9.6681 10.3022 8.97285 10.3151C8.06823 10.3282 7.22887 10.84 6.7696 11.6536C5.82535 13.2808 6.52031 15.6953 7.43883 17.0206C7.88479 17.6767 8.42221 18.3984 9.13028 18.3725C9.7995 18.3461 10.0617 17.9394 10.8748 17.9394C11.6876 17.9394 11.9238 18.3725 12.6321 18.3593C13.3664 18.3461 13.8257 17.7031 14.2717 17.047C14.7834 16.2991 14.9925 15.5774 15.0056 15.538C14.9925 15.5249 13.5895 14.9866 13.5764 13.3725C13.5633 12.021 14.6782 11.378 14.7306 11.3383C14.101 10.4072 13.1176 10.3022 12.7765 10.276Z" fill="#0C1121"/>
<path id="Vector_6" d="M21.5384 8.44629C23.4484 8.44629 24.7788 9.76297 24.7788 11.6799C24.7788 13.6036 23.4212 14.9271 21.4906 14.9271H19.3759V18.2906H17.8479V8.44629H21.5384ZM19.3759 13.6446H21.129C22.4596 13.6446 23.2165 12.9283 23.2165 11.6867C23.2165 10.4453 22.4593 9.73568 21.1358 9.73568H19.3759V13.6446Z" fill="#0C1121"/>
<path id="Vector_7" d="M25.1574 16.251C25.1574 14.9889 26.1192 14.2659 27.8928 14.1567L29.7961 14.0407V13.4947C29.7961 12.697 29.2709 12.2603 28.3364 12.2603C27.5654 12.2603 27.0058 12.6558 26.8903 13.2628H25.512C25.5531 11.9873 26.7536 11.0596 28.3773 11.0596C30.1237 11.0596 31.2629 11.9736 31.2629 13.3927V18.2907H29.8509V17.1105H29.8169C29.4142 17.8813 28.5272 18.3655 27.5654 18.3655C26.1466 18.3655 25.1574 17.5199 25.1574 16.251ZM29.7961 15.6166V15.0639L28.0975 15.1731C27.1422 15.2345 26.6446 15.5891 26.6446 16.2098C26.6446 16.8103 27.163 17.1992 27.9748 17.1992C29.0114 17.1992 29.7961 16.5373 29.7961 15.6166Z" fill="#0C1121"/>
<path id="Vector_8" d="M32.5615 20.9239V19.744C32.6571 19.7574 32.8888 19.771 33.0116 19.771C33.6869 19.771 34.069 19.485 34.301 18.7478L34.4375 18.3113L31.8519 11.1484H33.4481L35.2493 16.9605H35.2833L37.0842 11.1484H38.6398L35.9586 18.6727C35.3445 20.3988 34.6419 20.9652 33.155 20.9652C33.039 20.9652 32.6636 20.9516 32.5615 20.9239Z" fill="#0C1121"/>
</g>
</g>
</g>
</svg>
