<svg width="45" height="28" viewBox="0 0 45 28" fill="none" xmlns="http://www.w3.org/2000/svg">
<g id="Clip path group">
<mask id="mask0_42_3760" style="mask-type:luminance" maskUnits="userSpaceOnUse" x="0" y="0" width="45" height="28">
<g id="clip4_601_3686">
<path id="Vector" d="M44.4832 0.0195312H0.450714V27.8295H44.4832V0.0195312Z" fill="white"/>
</g>
</mask>
<g mask="url(#mask0_42_3760)">
<g id="Group">
<path id="Vector_2" opacity="0.07" d="M41.0066 0.0195312H3.92696C1.95742 0.0195312 0.450714 1.52591 0.450714 3.49578V24.3533C0.450714 26.3231 2.07263 27.8295 3.92696 27.8295H41.0066C42.9772 27.8295 44.4829 26.3231 44.4829 24.3533V3.49578C44.4829 1.52591 42.861 0.0195312 41.0066 0.0195312Z" fill="#0C1121"/>
<path id="Vector_3" d="M41.0076 1.17871C42.2819 1.17871 43.3248 2.22159 43.3248 3.49621V24.3537C43.3248 25.6283 42.2819 26.6712 41.0076 26.6712H3.92696C2.65267 26.6712 1.6098 25.6283 1.6098 24.3537V3.49621C1.6098 2.22159 2.65267 1.17871 3.92696 1.17871H41.0076Z" fill="white"/>
<path id="Vector_4" d="M28.1445 9.63735C28.376 8.47861 28.1445 7.66748 27.4493 6.97223C26.754 6.1611 25.4797 5.81348 23.8568 5.81348H19.1063C18.7587 5.81348 18.5272 6.04523 18.411 6.39286L16.6729 18.0962C16.6729 18.328 16.7891 18.5597 17.0205 18.5597H20.1492L20.613 14.62L22.6987 12.0708L28.1445 9.63735Z" fill="#003087"/>
<path id="Vector_5" d="M28.1445 9.63672L27.9131 9.86847C27.3331 13.1129 25.3635 14.2717 22.5825 14.2717H21.3082C20.9606 14.2717 20.7282 14.5034 20.613 14.851L19.9177 19.3702L19.6853 20.529C19.6853 20.7608 19.8015 20.9925 20.0329 20.9925H22.4663C22.8139 20.9925 23.0464 20.7608 23.0464 20.529V20.413L23.5092 17.632V17.5162C23.5092 17.2844 23.8568 17.0527 24.0892 17.0527H24.4369C26.8702 17.0527 28.7236 16.1257 29.1874 13.3447C29.4188 12.186 29.3036 11.259 28.7236 10.5637C28.6084 9.98429 28.376 9.7526 28.1445 9.63672Z" fill="#3086C8"/>
<path id="Vector_6" d="M27.4493 9.40524C27.3331 9.28936 27.2179 9.28936 27.1016 9.28936C26.9854 9.28936 26.8702 9.28936 26.754 9.17349C26.4064 9.05762 25.9426 9.05762 25.4797 9.05762H22.0035C21.8873 9.05762 21.7711 9.05762 21.7711 9.17349C21.5396 9.28936 21.4234 9.40524 21.4234 9.63699L20.613 14.7355V14.8513C20.613 14.5037 20.9606 14.272 21.3082 14.272H22.8139C25.7111 14.272 27.5655 13.1132 28.1445 9.86874V9.63699C28.0283 9.52111 27.7969 9.40524 27.5655 9.40524H27.4493Z" fill="#012169"/>
</g>
</g>
</g>
</svg>
