<svg width="45" height="28" viewBox="0 0 45 28" fill="none" xmlns="http://www.w3.org/2000/svg">
<g id="Clip path group">
<mask id="mask0_42_3751" style="mask-type:luminance" maskUnits="userSpaceOnUse" x="0" y="0" width="45" height="28">
<g id="clip3_601_3686">
<path id="Vector" d="M44.5053 0.0195312H0.472839V27.8295H44.5053V0.0195312Z" fill="white"/>
</g>
</mask>
<g mask="url(#mask0_42_3751)">
<g id="Group">
<path id="Vector_2" opacity="0.07" d="M41.0288 0.0195312H3.94909C1.97955 0.0195312 0.472839 1.52591 0.472839 3.49578V24.3533C0.472839 26.3231 2.09476 27.8295 3.94909 27.8295H41.0288C42.9993 27.8295 44.505 26.3231 44.505 24.3533V3.49578C44.505 1.52591 42.8831 0.0195312 41.0288 0.0195312Z" fill="#0C1121"/>
<path id="Vector_3" d="M41.0298 1.17871C42.304 1.17871 43.3469 2.22159 43.3469 3.49621V24.3537C43.3469 25.6283 42.304 26.6712 41.0298 26.6712H3.94909C2.6748 26.6712 1.63193 25.6283 1.63193 24.3537V3.49621C1.63193 2.22159 2.6748 1.17871 3.94909 1.17871H41.0298Z" fill="white"/>
<path id="Vector_4" d="M17.8541 22.036C22.3335 22.036 25.9647 18.4044 25.9647 13.9247C25.9647 9.44501 22.3335 5.81348 17.8541 5.81348C13.3737 5.81348 9.74252 9.44501 9.74252 13.9247C9.74252 18.4044 13.3737 22.036 17.8541 22.036Z" fill="#EB001B"/>
<path id="Vector_5" d="M27.1248 22.036C31.6042 22.036 35.2353 18.4044 35.2353 13.9247C35.2353 9.44501 31.6042 5.81348 27.1248 5.81348C22.6444 5.81348 19.0132 9.44501 19.0132 13.9247C19.0132 18.4044 22.6444 22.036 27.1248 22.036Z" fill="#F79E1B"/>
<path id="Vector_6" d="M25.9657 13.9242C25.9657 11.1432 24.5752 8.70984 22.4894 7.31934C20.4037 8.8257 19.0132 11.2591 19.0132 13.9242C19.0132 16.5893 20.4037 19.1386 22.4894 20.5291C24.5752 19.1386 25.9657 16.7052 25.9657 13.9242Z" fill="#FF5F00"/>
</g>
</g>
</g>
</svg>
