<svg width="45" height="28" viewBox="0 0 45 28" fill="none" xmlns="http://www.w3.org/2000/svg">
<g id="Clip path group">
<mask id="mask0_42_3719" style="mask-type:luminance" maskUnits="userSpaceOnUse" x="0" y="0" width="45" height="28">
<g id="clip0_601_3686">
<path id="Vector" d="M44.5707 0.0195312H0.538208V27.8295H44.5707V0.0195312Z" fill="white"/>
</g>
</mask>
<g mask="url(#mask0_42_3719)">
<g id="Group">
<path id="Vector_2" opacity="0.07" d="M41.0944 0.0195312H4.01446C2.04459 0.0195312 0.538208 1.52591 0.538208 3.49578V24.3533C0.538208 26.3231 2.16045 27.8295 4.01446 27.8295H41.0944C43.0644 27.8295 44.5707 26.3231 44.5707 24.3533V3.49578C44.5707 1.52591 42.9485 0.0195312 41.0944 0.0195312Z" fill="#0C1121"/>
<path id="Vector_3" d="M41.0948 1.17871C42.3694 1.17871 43.4123 2.22159 43.4123 3.49621V24.3537C43.4123 25.6283 42.3694 26.6712 41.0948 26.6712H4.01477C2.74014 26.6712 1.69727 25.6283 1.69727 24.3537V3.49621C1.69727 2.22159 2.74014 1.17871 4.01477 1.17871H41.0948Z" fill="#006FCF"/>
<path id="Vector_4" d="M10.9337 11.9172L11.8306 14.0909H10.0437L10.9337 11.9172ZM29.5606 12.0075H26.111V12.9658H29.505V14.4015H26.1179V15.4699H29.5676V16.3261L31.9742 13.7248L29.5676 11.0133L29.5606 12.0075ZM13.2651 9.29601H17.8943L18.9221 11.5382L19.8746 9.28906H31.8908L33.14 10.668L34.4319 9.28906H39.9511L35.8735 13.7526L39.9094 18.1883H34.308L33.0588 16.8093L31.7552 18.1883H12.1608L11.5884 16.8093H10.279L9.7054 18.1883H5.17352L8.98118 9.28906H12.9557L13.2651 9.29601ZM23.3034 10.5451H20.7089L18.9708 14.6425L17.0878 10.5451H14.513V16.1188L12.126 10.5451H9.81664L7.0565 16.9322H8.85835L9.43078 15.5533H12.4389L13.0113 16.9322H16.1632V12.3725L18.1921 16.9391H19.571L21.5872 12.3865V16.9403H23.2767L23.3045 10.544L23.3034 10.5451ZM34.126 13.7526L37.0589 10.5451H34.9476L33.0925 12.5452L31.2987 10.5451H24.469V16.9391H31.2014L33.0716 14.9252L34.8654 16.9391H37.038L34.126 13.7526Z" fill="white"/>
</g>
</g>
</g>
</svg>
