<svg width="33" height="25" viewBox="0 0 33 25" fill="none" xmlns="http://www.w3.org/2000/svg">
<g id="gb.svg" clip-path="url(#clip0_42_3775)">
<path id="Vector" d="M0.5 0.330078H32.5V24.3301H0.5V0.330078Z" fill="#012169"/>
<path id="Vector_2" d="M4.25 0.330078L16.45 9.38008L28.6 0.330078H32.5V3.43008L20.5 12.3801L32.5 21.2801V24.3301H28.5L16.5 15.3801L4.55 24.3301H0.5V21.3301L12.45 12.4301L0.5 3.53008V0.330078H4.25Z" fill="white"/>
<path id="Vector_3" d="M21.7 14.3801L32.5 22.3301V24.3301L18.95 14.3801H21.7ZM12.5 15.3801L12.8 17.1301L3.2 24.3301H0.5L12.5 15.3801ZM32.5 0.330078V0.480078L20.05 9.88008L20.15 7.68008L30 0.330078H32.5ZM0.5 0.330078L12.45 9.13008H9.45L0.5 2.43008V0.330078Z" fill="#C8102E"/>
<path id="Vector_4" d="M12.55 0.330078V24.3301H20.55V0.330078H12.55ZM0.5 8.33008V16.3301H32.5V8.33008H0.5Z" fill="white"/>
<path id="Vector_5" d="M0.5 9.98008V14.7801H32.5V9.98008H0.5ZM14.15 0.330078V24.3301H18.95V0.330078H14.15Z" fill="#C8102E"/>
</g>
<defs>
<clipPath id="clip0_42_3775">
<rect width="32" height="24" fill="white" transform="translate(0.5 0.330078)"/>
</clipPath>
</defs>
</svg>
