<svg width="33" height="42" viewBox="0 0 33 42" fill="none" xmlns="http://www.w3.org/2000/svg">
<g id="icon-cart.svg">
<path id="Vector" d="M1.81 37.4C1.81 36.9667 1.88667 36.5433 2.04 36.13C2.2 35.71 2.43 35.33 2.73 34.99C3.03 34.6433 3.39667 34.37 3.83 34.17C4.26333 33.9633 4.75667 33.86 5.31 33.86C5.96333 33.86 6.52667 34.0033 7 34.29C7.48 34.5767 7.83667 34.95 8.07 35.41L7.01 36.14C6.89 35.8733 6.73333 35.6633 6.54 35.51C6.34667 35.35 6.14 35.24 5.92 35.18C5.7 35.1133 5.48333 35.08 5.27 35.08C4.92333 35.08 4.62 35.15 4.36 35.29C4.10667 35.43 3.89333 35.6133 3.72 35.84C3.54667 36.0667 3.41667 36.32 3.33 36.6C3.25 36.88 3.21 37.16 3.21 37.44C3.21 37.7533 3.26 38.0567 3.36 38.35C3.46 38.6367 3.6 38.8933 3.78 39.12C3.96667 39.34 4.18667 39.5167 4.44 39.65C4.7 39.7767 4.98333 39.84 5.29 39.84C5.51 39.84 5.73333 39.8033 5.96 39.73C6.18667 39.6567 6.39667 39.54 6.59 39.38C6.78333 39.22 6.93333 39.0133 7.04 38.76L8.17 39.41C8.03 39.7633 7.8 40.0633 7.48 40.31C7.16667 40.5567 6.81333 40.7433 6.42 40.87C6.02667 40.9967 5.63667 41.06 5.25 41.06C4.74333 41.06 4.28 40.9567 3.86 40.75C3.44 40.5367 3.07667 40.2567 2.77 39.91C2.47 39.5567 2.23333 39.1633 2.06 38.73C1.89333 38.29 1.81 37.8467 1.81 37.4ZM11.9278 33.9H13.3278L15.9378 41H14.5178L13.8578 39.23H11.3778L10.7278 41H9.30781L11.9278 33.9ZM13.6078 38.26L12.6278 35.33L11.6078 38.26H13.6078ZM17.7166 41V33.9H20.8566C21.1832 33.9 21.4832 33.9667 21.7566 34.1C22.0366 34.2333 22.2766 34.4133 22.4766 34.64C22.6832 34.8667 22.8399 35.12 22.9466 35.4C23.0599 35.68 23.1166 35.9667 23.1166 36.26C23.1166 36.56 23.0632 36.85 22.9566 37.13C22.8566 37.4033 22.7099 37.6433 22.5166 37.85C22.3232 38.0567 22.0966 38.2167 21.8366 38.33L23.4566 41H21.9366L20.4766 38.62H19.0966V41H17.7166ZM19.0966 37.41H20.8266C20.9999 37.41 21.1532 37.36 21.2866 37.26C21.4199 37.1533 21.5266 37.0133 21.6066 36.84C21.6866 36.6667 21.7266 36.4733 21.7266 36.26C21.7266 36.0333 21.6799 35.8367 21.5866 35.67C21.4932 35.4967 21.3732 35.36 21.2266 35.26C21.0866 35.16 20.9332 35.11 20.7666 35.11H19.0966V37.41ZM30.5988 35.11H28.3288V41H26.9588V35.11H24.6888V33.9H30.5988V35.11Z" fill="#120A0A"/>
<path id="Vector_2" d="M23.5 23H9.225L5.7375 3.825C5.6967 3.59537 5.57691 3.38722 5.39887 3.23657C5.22082 3.08592 4.99572 3.00223 4.7625 3H2.5" stroke="#120A0A" stroke-width="2" stroke-linecap="round" stroke-linejoin="round"/>
<path id="Vector_3" d="M10.5 28C11.8807 28 13 26.8807 13 25.5C13 24.1193 11.8807 23 10.5 23C9.11929 23 8 24.1193 8 25.5C8 26.8807 9.11929 28 10.5 28Z" stroke="#120A0A" stroke-width="2" stroke-linecap="round" stroke-linejoin="round"/>
<path id="Vector_4" d="M23.5 28C24.8807 28 26 26.8807 26 25.5C26 24.1193 24.8807 23 23.5 23C22.1193 23 21 24.1193 21 25.5C21 26.8807 22.1193 28 23.5 28Z" stroke="#120A0A" stroke-width="2" stroke-linecap="round" stroke-linejoin="round"/>
<path id="Vector_5" d="M8.3125 18H24.0125C24.48 18.0014 24.933 17.838 25.2919 17.5386C25.6508 17.2391 25.8927 16.8227 25.975 16.3625L27.5 8H6.5" stroke="#120A0A" stroke-width="2" stroke-linecap="round" stroke-linejoin="round"/>
</g>
</svg>
