<svg width="33" height="33" viewBox="0 0 33 33" fill="none" xmlns="http://www.w3.org/2000/svg">
<g id="icon-time.svg">
<path id="Vector" d="M16.5 10.48V16.48" stroke="#120A0A" stroke-width="2" stroke-linecap="round" stroke-linejoin="round"/>
<path id="Vector_2" d="M21.7 19.48L16.5 16.48" stroke="#120A0A" stroke-width="2" stroke-linecap="round" stroke-linejoin="round"/>
<path id="Vector_3" d="M23.5249 12.9424H28.5249V7.94238" stroke="#120A0A" stroke-width="2" stroke-linecap="round" stroke-linejoin="round"/>
<path id="Vector_4" d="M24.275 24.255C22.737 25.7943 20.777 26.8428 18.6429 27.268C16.5089 27.6932 14.2967 27.4758 12.2862 26.6435C10.2757 25.8112 8.5572 24.4013 7.34811 22.5922C6.13902 20.7831 5.49365 18.656 5.49365 16.48C5.49365 14.304 6.13902 12.1769 7.34811 10.3678C8.5572 8.55864 10.2757 7.14875 12.2862 6.31645C14.2967 5.48415 16.5089 5.26684 18.6429 5.692C20.777 6.11717 22.737 7.16571 24.275 8.70499L28.525 12.9425" stroke="#120A0A" stroke-width="2" stroke-linecap="round" stroke-linejoin="round"/>
</g>
</svg>
