<svg width="33" height="33" viewBox="0 0 33 33" fill="none" xmlns="http://www.w3.org/2000/svg">
<g id="icon-lips.svg">
<path id="Vector" d="M28.4969 10.8711C28.4969 10.8711 25.8639 12.5764 16.4969 12.5764C7.12988 12.5764 4.5 10.8711 4.5 10.8711C4.5 10.8711 7.133 13.8711 16.5 13.8711C25.867 13.8711 28.0734 11.0813 28.0734 11.0813L28.4969 10.8711Z" stroke="#120A0A"/>
<path id="Vector_2" d="M10.4238 13.2346V20.5074C10.4238 23.8559 13.1428 26.568 16.4998 26.568C19.8567 26.568 22.5757 23.8559 22.5757 20.5074V13.2346" stroke="#120A0A" stroke-width="2"/>
<path id="Vector_3" d="M10.5759 18.9923C7.99358 17.7801 4.80371 13.5377 4.80371 10.8104C7.23409 8.23467 11.6392 7.17407 13.31 7.17407C14.6771 7.17407 15.95 8.23467 16.4999 8.23467C17.0498 8.23467 18.3227 7.17407 19.6898 7.17407C21.3607 7.17407 25.7657 8.23467 28.1961 10.8104C28.1961 13.5377 25.0062 17.7801 22.424 18.9923" stroke="#120A0A" stroke-width="2"/>
<path id="Vector_4" d="M16.5 13.6892V22.6286" stroke="#120A0A" stroke-width="2" stroke-linecap="round"/>
</g>
</svg>
