<svg width="33" height="33" viewBox="0 0 33 33" fill="none" xmlns="http://www.w3.org/2000/svg">
<g id="icon-fire.svg">
<path id="Vector" d="M5.5 21.48L27.5 28.48" stroke="#120A0A" stroke-width="2" stroke-linecap="round" stroke-linejoin="round"/>
<path id="Vector_2" d="M27.5 21.48L5.5 28.48" stroke="#120A0A" stroke-width="2" stroke-linecap="round" stroke-linejoin="round"/>
<path id="Vector_3" d="M19.5 17.48C19.5 18.2756 19.1839 19.0387 18.6213 19.6013C18.0587 20.1639 17.2956 20.48 16.5 20.48C15.7044 20.48 14.9413 20.1639 14.3787 19.6013C13.8161 19.0387 13.5 18.2756 13.5 17.48C13.5 14.48 16.5 12.48 16.5 12.48C16.5 12.48 19.5 14.48 19.5 17.48Z" stroke="#120A0A" stroke-width="2" stroke-linecap="round" stroke-linejoin="round"/>
<path id="Vector_4" d="M23 13.98C23 15.7039 22.3152 17.3572 21.0962 18.5762C19.8772 19.7952 18.2239 20.48 16.5 20.48C14.7761 20.48 13.1228 19.7952 11.9038 18.5762C10.6848 17.3572 10 15.7039 10 13.98C10 8.47998 16.5 4.47998 16.5 4.47998C16.5 4.47998 23 8.47998 23 13.98Z" stroke="#120A0A" stroke-width="2" stroke-linecap="round" stroke-linejoin="round"/>
</g>
</svg>
