<svg width="33" height="33" viewBox="0 0 33 33" fill="none" xmlns="http://www.w3.org/2000/svg">
<g id="icon-star.svg">
<path id="Vector" d="M17.8375 22.4175L15.4375 28.93C15.3664 29.1213 15.2385 29.2864 15.0709 29.4029C14.9033 29.5195 14.7041 29.582 14.5 29.582C14.2958 29.582 14.0966 29.5195 13.929 29.4029C13.7614 29.2864 13.6335 29.1213 13.5625 28.93L11.1625 22.4175C11.1118 22.28 11.0319 22.1552 10.9283 22.0516C10.8248 21.948 10.6999 21.8681 10.5625 21.8175L4.04996 19.4175C3.85859 19.3464 3.69353 19.2185 3.57698 19.0509C3.46042 18.8833 3.39795 18.6841 3.39795 18.48C3.39795 18.2758 3.46042 18.0766 3.57698 17.909C3.69353 17.7414 3.85859 17.6135 4.04996 17.5425L10.5625 15.1425C10.6999 15.0918 10.8248 15.0119 10.9283 14.9083C11.0319 14.8048 11.1118 14.6799 11.1625 14.5425L13.5625 8.02994C13.6335 7.83857 13.7614 7.67351 13.929 7.55696C14.0966 7.4404 14.2958 7.37793 14.5 7.37793C14.7041 7.37793 14.9033 7.4404 15.0709 7.55696C15.2385 7.67351 15.3664 7.83857 15.4375 8.02994L17.8375 14.5425C17.8881 14.6799 17.968 14.8048 18.0716 14.9083C18.1752 15.0119 18.3 15.0918 18.4375 15.1425L24.95 17.5425C25.1413 17.6135 25.3064 17.7414 25.4229 17.909C25.5395 18.0766 25.602 18.2758 25.602 18.48C25.602 18.6841 25.5395 18.8833 25.4229 19.0509C25.3064 19.2185 25.1413 19.3464 24.95 19.4175L18.4375 21.8175C18.3 21.8681 18.1752 21.948 18.0716 22.0516C17.968 22.1552 17.8881 22.28 17.8375 22.4175Z" stroke="#120A0A" stroke-width="2" stroke-linecap="round" stroke-linejoin="round"/>
<path id="Vector_2" d="M22.5 2.47998V8.47998" stroke="#120A0A" stroke-width="2" stroke-linecap="round" stroke-linejoin="round"/>
<path id="Vector_3" d="M25.5 5.47998H19.5" stroke="#120A0A" stroke-width="2" stroke-linecap="round" stroke-linejoin="round"/>
<path id="Vector_4" d="M28.5 9.47998V13.48" stroke="#120A0A" stroke-width="2" stroke-linecap="round" stroke-linejoin="round"/>
<path id="Vector_5" d="M30.5 11.48H26.5" stroke="#120A0A" stroke-width="2" stroke-linecap="round" stroke-linejoin="round"/>
</g>
</svg>
