<svg width="49" height="49" viewBox="0 0 49 49" fill="none" xmlns="http://www.w3.org/2000/svg">
<g id="icon-money.svg">
<path id="Vector" d="M43.97 12.0601H4.96997C4.14154 12.0601 3.46997 12.7317 3.46997 13.5601V34.5601C3.46997 35.3885 4.14154 36.0601 4.96997 36.0601H43.97C44.7984 36.0601 45.47 35.3885 45.47 34.5601V13.5601C45.47 12.7317 44.7984 12.0601 43.97 12.0601Z" stroke="#F7DC5A" stroke-width="2" stroke-linecap="round" stroke-linejoin="round"/>
<path id="Vector_2" d="M24.47 30.0601C27.7837 30.0601 30.47 27.3738 30.47 24.0601C30.47 20.7464 27.7837 18.0601 24.47 18.0601C21.1563 18.0601 18.47 20.7464 18.47 24.0601C18.47 27.3738 21.1563 30.0601 24.47 30.0601Z" stroke="#F7DC5A" stroke-width="2" stroke-linecap="round" stroke-linejoin="round"/>
<path id="Vector_3" d="M33.47 12.0601L45.47 22.5601" stroke="#F7DC5A" stroke-width="2" stroke-linecap="round" stroke-linejoin="round"/>
<path id="Vector_4" d="M33.47 36.0601L45.47 25.5601" stroke="#F7DC5A" stroke-width="2" stroke-linecap="round" stroke-linejoin="round"/>
<path id="Vector_5" d="M15.47 12.0601L3.46997 22.5601" stroke="#F7DC5A" stroke-width="2" stroke-linecap="round" stroke-linejoin="round"/>
<path id="Vector_6" d="M15.47 36.0601L3.46997 25.5601" stroke="#F7DC5A" stroke-width="2" stroke-linecap="round" stroke-linejoin="round"/>
</g>
</svg>
