<svg width="27" height="25" viewBox="0 0 27 25" fill="none" xmlns="http://www.w3.org/2000/svg">
<path id="Vector" d="M13.5 23.4805C13.5 23.4805 1 16.4805 1 7.98047C1 6.47784 1.52062 5.02161 2.47328 3.85955C3.42593 2.6975 4.75178 1.9014 6.22525 1.60671C7.6987 1.31201 9.2288 1.53693 10.5551 2.24319C11.8814 2.94945 12.9221 4.09343 13.5 5.48048C14.0779 4.09343 15.1186 2.94945 16.4449 2.24319C17.7712 1.53693 19.3013 1.31201 20.7748 1.60671C22.2482 1.9014 23.5741 2.6975 24.5267 3.85955C25.4794 5.02161 26 6.47784 26 7.98047C26 16.4805 13.5 23.4805 13.5 23.4805Z" stroke="#120A0A" stroke-width="2" stroke-linecap="round" stroke-linejoin="round"/>
</svg>
