<svg width="49" height="49" viewBox="0 0 49 49" fill="none" xmlns="http://www.w3.org/2000/svg">
<g id="icon-truck.svg">
<path id="Vector" d="M33.39 15.0601H41.3775C41.6764 15.0582 41.9688 15.1467 42.2164 15.314C42.4641 15.4813 42.6553 15.7196 42.765 15.9976L45.39 22.5601" stroke="#F7DC5A" stroke-width="2" stroke-linecap="round" stroke-linejoin="round"/>
<path id="Vector_2" d="M3.39001 27.0601H33.39" stroke="#F7DC5A" stroke-width="2" stroke-linecap="round" stroke-linejoin="round"/>
<path id="Vector_3" d="M35.64 40.5601C38.1253 40.5601 40.14 38.5454 40.14 36.0601C40.14 33.5748 38.1253 31.5601 35.64 31.5601C33.1547 31.5601 31.14 33.5748 31.14 36.0601C31.14 38.5454 33.1547 40.5601 35.64 40.5601Z" stroke="#F7DC5A" stroke-width="2" stroke-miterlimit="10"/>
<path id="Vector_4" d="M13.14 40.5601C15.6253 40.5601 17.64 38.5454 17.64 36.0601C17.64 33.5748 15.6253 31.5601 13.14 31.5601C10.6547 31.5601 8.64001 33.5748 8.64001 36.0601C8.64001 38.5454 10.6547 40.5601 13.14 40.5601Z" stroke="#F7DC5A" stroke-width="2" stroke-miterlimit="10"/>
<path id="Vector_5" d="M31.14 36.0601H17.64" stroke="#F7DC5A" stroke-width="2" stroke-linecap="round" stroke-linejoin="round"/>
<path id="Vector_6" d="M8.64001 36.0601H4.89001C4.49219 36.0601 4.11065 35.9021 3.82935 35.6208C3.54805 35.3395 3.39001 34.9579 3.39001 34.5601V13.5601C3.39001 13.1623 3.54805 12.7807 3.82935 12.4994C4.11065 12.2181 4.49219 12.0601 4.89001 12.0601H33.39V32.1601" stroke="#F7DC5A" stroke-width="2" stroke-linecap="round" stroke-linejoin="round"/>
<path id="Vector_7" d="M33.39 22.5601H45.39V34.5601C45.39 34.9579 45.232 35.3395 44.9507 35.6208C44.6694 35.9021 44.2878 36.0601 43.89 36.0601H40.14" stroke="#F7DC5A" stroke-width="2" stroke-linecap="round" stroke-linejoin="round"/>
</g>
</svg>
