<svg width="49" height="49" viewBox="0 0 49 49" fill="none" xmlns="http://www.w3.org/2000/svg">
<g id="icon-usa.svg">
<path id="Vector" d="M23.4078 24.0596H42.1903C42.1903 22.435 41.9738 20.8611 41.5702 19.364H23.4078V24.0596Z" fill="#F7DC5A"/>
<path id="Vector_2" d="M23.4078 14.6686H39.5484C38.4465 12.8706 37.0377 11.2813 35.3951 9.9729H23.4078V14.6686Z" fill="#F7DC5A"/>
<path id="Vector_3" d="M24.1896 42.0599C28.4259 42.0599 32.3196 40.5957 35.3943 38.1469H12.9849C16.0597 40.5957 19.9534 42.0599 24.1896 42.0599Z" fill="#F7DC5A"/>
<path id="Vector_4" d="M8.83195 33.4512H39.5481C40.4327 32.0078 41.1187 30.43 41.5699 28.7555H6.81012C7.26131 30.43 7.94735 32.0078 8.83195 33.4512Z" fill="#F7DC5A"/>
<path id="Vector_5" d="M14.5279 8.87101H16.1682L14.6425 9.97949L15.2253 11.7731L13.6996 10.6646L12.1739 11.7731L12.6773 10.2237C11.3339 11.3427 10.1565 12.6537 9.18615 14.1145H9.71174L8.74051 14.8201C8.5892 15.0725 8.44408 15.329 8.305 15.5892L8.76878 17.0166L7.90351 16.3879C7.68843 16.8436 7.49169 17.3096 7.31486 17.7853L7.82582 19.358H9.71174L8.18596 20.4665L8.76878 22.2601L7.24307 21.1516L6.32915 21.8156C6.23767 22.551 6.19 23.2999 6.19 24.0601H24.19C24.19 14.119 24.19 12.9471 24.19 6.06006C20.6341 6.06006 17.3194 7.09154 14.5279 8.87101ZM15.2253 22.2601L13.6996 21.1516L12.1739 22.2601L12.7567 20.4665L11.2309 19.358H13.1168L13.6996 17.5644L14.2823 19.358H16.1682L14.6425 20.4665L15.2253 22.2601ZM14.6425 15.223L15.2253 17.0166L13.6996 15.9081L12.1739 17.0166L12.7567 15.223L11.2309 14.1145H13.1168L13.6996 12.3209L14.2823 14.1145H16.1682L14.6425 15.223ZM21.6818 22.2601L20.1561 21.1516L18.6304 22.2601L19.2132 20.4665L17.6874 19.358H19.5733L20.1561 17.5644L20.7388 19.358H22.6248L21.099 20.4665L21.6818 22.2601ZM21.099 15.223L21.6818 17.0166L20.1561 15.9081L18.6304 17.0166L19.2132 15.223L17.6874 14.1145H19.5733L20.1561 12.3209L20.7388 14.1145H22.6248L21.099 15.223ZM21.099 9.97949L21.6818 11.7731L20.1561 10.6646L18.6304 11.7731L19.2132 9.97949L17.6874 8.87101H19.5733L20.1561 7.07741L20.7388 8.87101H22.6248L21.099 9.97949Z" fill="#F7DC5A"/>
</g>
</svg>
