<svg width="33" height="33" viewBox="0 0 33 33" fill="none" xmlns="http://www.w3.org/2000/svg">
<g id="icon-butterfly.svg">
<path id="Vector" d="M16.5 7.87109V23.3711" stroke="#120A0A" stroke-width="2" stroke-linecap="round" stroke-linejoin="round"/>
<path id="Vector_2" d="M23.8873 19.9211C24.8748 19.9711 27.5248 19.7586 28.4998 15.8711C29.4748 11.9836 30.3623 6.87109 26.4998 6.87109C22.6373 6.87109 16.4998 12.8711 16.4998 16.8711C16.4998 12.8711 10.3623 6.87109 6.49978 6.87109C2.63728 6.87109 3.49978 11.8711 4.49978 15.8711C5.49978 19.8711 8.12478 19.9711 9.11228 19.9211" stroke="#120A0A" stroke-width="2" stroke-linecap="round" stroke-linejoin="round"/>
<path id="Vector_3" d="M11.5 18.896C10.6368 18.9925 9.81999 19.3368 9.14812 19.8872C8.47625 20.4377 7.97804 21.1708 7.71361 21.9982C7.44918 22.8255 7.42984 23.7117 7.65791 24.5498C7.88598 25.3879 8.35172 26.142 8.99893 26.7213C9.64614 27.3005 10.4472 27.6801 11.3053 27.8142C12.1635 27.9483 13.0421 27.8311 13.8352 27.4769C14.6282 27.1227 15.3018 26.5466 15.7747 25.818C16.2475 25.0894 16.4994 24.2396 16.5 23.371C16.5006 24.2396 16.7525 25.0894 17.2253 25.818C17.6982 26.5466 18.3718 27.1227 19.1648 27.4769C19.9579 27.8311 20.8365 27.9483 21.6947 27.8142C22.5528 27.6801 23.3539 27.3005 24.0011 26.7213C24.6483 26.142 25.114 25.3879 25.3421 24.5498C25.5702 23.7117 25.5508 22.8255 25.2864 21.9982C25.022 21.1708 24.5237 20.4377 23.8519 19.8872C23.18 19.3368 22.3632 18.9925 21.5 18.896" stroke="#120A0A" stroke-width="2" stroke-linecap="round" stroke-linejoin="round"/>
</g>
</svg>
