<svg width="56" height="42" viewBox="0 0 56 42" fill="none" xmlns="http://www.w3.org/2000/svg">
<g id="icon-account.svg" clip-path="url(#clip0_42_3011)">
<path id="Vector" d="M3.41999 33.9H4.81999L7.42999 41H6.00999L5.34999 39.23H2.86999L2.21999 41H0.799988L3.41999 33.9ZM5.09999 38.26L4.11999 35.33L3.09999 38.26H5.09999ZM8.5053 37.4C8.5053 36.9667 8.58197 36.5433 8.7353 36.13C8.8953 35.71 9.1253 35.33 9.4253 34.99C9.7253 34.6433 10.092 34.37 10.5253 34.17C10.9586 33.9633 11.452 33.86 12.0053 33.86C12.6586 33.86 13.222 34.0033 13.6953 34.29C14.1753 34.5767 14.532 34.95 14.7653 35.41L13.7053 36.14C13.5853 35.8733 13.4286 35.6633 13.2353 35.51C13.042 35.35 12.8353 35.24 12.6153 35.18C12.3953 35.1133 12.1786 35.08 11.9653 35.08C11.6186 35.08 11.3153 35.15 11.0553 35.29C10.802 35.43 10.5886 35.6133 10.4153 35.84C10.242 36.0667 10.112 36.32 10.0253 36.6C9.9453 36.88 9.9053 37.16 9.9053 37.44C9.9053 37.7533 9.9553 38.0567 10.0553 38.35C10.1553 38.6367 10.2953 38.8933 10.4753 39.12C10.662 39.34 10.882 39.5167 11.1353 39.65C11.3953 39.7767 11.6786 39.84 11.9853 39.84C12.2053 39.84 12.4286 39.8033 12.6553 39.73C12.882 39.6567 13.092 39.54 13.2853 39.38C13.4786 39.22 13.6286 39.0133 13.7353 38.76L14.8653 39.41C14.7253 39.7633 14.4953 40.0633 14.1753 40.31C13.862 40.5567 13.5086 40.7433 13.1153 40.87C12.722 40.9967 12.332 41.06 11.9453 41.06C11.4386 41.06 10.9753 40.9567 10.5553 40.75C10.1353 40.5367 9.77197 40.2567 9.4653 39.91C9.1653 39.5567 8.92864 39.1633 8.7553 38.73C8.58864 38.29 8.5053 37.8467 8.5053 37.4ZM16.2729 37.4C16.2729 36.9667 16.3496 36.5433 16.5029 36.13C16.6629 35.71 16.8929 35.33 17.1929 34.99C17.4929 34.6433 17.8596 34.37 18.2929 34.17C18.7262 33.9633 19.2196 33.86 19.7729 33.86C20.4262 33.86 20.9896 34.0033 21.4629 34.29C21.9429 34.5767 22.2996 34.95 22.5329 35.41L21.4729 36.14C21.3529 35.8733 21.1962 35.6633 21.0029 35.51C20.8096 35.35 20.6029 35.24 20.3829 35.18C20.1629 35.1133 19.9462 35.08 19.7329 35.08C19.3862 35.08 19.0829 35.15 18.8229 35.29C18.5696 35.43 18.3562 35.6133 18.1829 35.84C18.0096 36.0667 17.8796 36.32 17.7929 36.6C17.7129 36.88 17.6729 37.16 17.6729 37.44C17.6729 37.7533 17.7229 38.0567 17.8229 38.35C17.9229 38.6367 18.0629 38.8933 18.2429 39.12C18.4296 39.34 18.6496 39.5167 18.9029 39.65C19.1629 39.7767 19.4462 39.84 19.7529 39.84C19.9729 39.84 20.1962 39.8033 20.4229 39.73C20.6496 39.6567 20.8596 39.54 21.0529 39.38C21.2462 39.22 21.3962 39.0133 21.5029 38.76L22.6329 39.41C22.4929 39.7633 22.2629 40.0633 21.9429 40.31C21.6296 40.5567 21.2762 40.7433 20.8829 40.87C20.4896 40.9967 20.0996 41.06 19.7129 41.06C19.2062 41.06 18.7429 40.9567 18.3229 40.75C17.9029 40.5367 17.5396 40.2567 17.2329 39.91C16.9329 39.5567 16.6962 39.1633 16.5229 38.73C16.3562 38.29 16.2729 37.8467 16.2729 37.4ZM27.5005 41.05C26.9805 41.05 26.5071 40.95 26.0805 40.75C25.6605 40.55 25.2971 40.28 24.9905 39.94C24.6905 39.5933 24.4571 39.2067 24.2905 38.78C24.1238 38.3467 24.0405 37.9033 24.0405 37.45C24.0405 36.9767 24.1271 36.5267 24.3005 36.1C24.4805 35.6667 24.7238 35.2833 25.0305 34.95C25.3438 34.61 25.7105 34.3433 26.1305 34.15C26.5571 33.95 27.0238 33.85 27.5305 33.85C28.0438 33.85 28.5105 33.9533 28.9305 34.16C29.3571 34.3667 29.7205 34.6433 30.0205 34.99C30.3205 35.3367 30.5538 35.7233 30.7205 36.15C30.8871 36.5767 30.9705 37.0167 30.9705 37.47C30.9705 37.9367 30.8838 38.3867 30.7105 38.82C30.5371 39.2467 30.2938 39.63 29.9805 39.97C29.6738 40.3033 29.3071 40.5667 28.8805 40.76C28.4605 40.9533 28.0005 41.05 27.5005 41.05ZM25.4405 37.45C25.4405 37.7567 25.4871 38.0533 25.5805 38.34C25.6738 38.6267 25.8071 38.8833 25.9805 39.11C26.1605 39.33 26.3771 39.5067 26.6305 39.64C26.8905 39.7667 27.1838 39.83 27.5105 39.83C27.8438 39.83 28.1405 39.7633 28.4005 39.63C28.6605 39.49 28.8771 39.3067 29.0505 39.08C29.2238 38.8467 29.3538 38.59 29.4405 38.31C29.5338 38.0233 29.5805 37.7367 29.5805 37.45C29.5805 37.1433 29.5305 36.85 29.4305 36.57C29.3371 36.2833 29.2005 36.03 29.0205 35.81C28.8471 35.5833 28.6305 35.4067 28.3705 35.28C28.1171 35.1467 27.8305 35.08 27.5105 35.08C27.1705 35.08 26.8705 35.15 26.6105 35.29C26.3571 35.4233 26.1438 35.6033 25.9705 35.83C25.7971 36.0567 25.6638 36.31 25.5705 36.59C25.4838 36.87 25.4405 37.1567 25.4405 37.45ZM36.0391 41.05C35.4724 41.05 34.9891 40.9567 34.5891 40.77C34.1957 40.5767 33.8757 40.3133 33.6291 39.98C33.3891 39.6467 33.2124 39.27 33.0991 38.85C32.9857 38.4233 32.9291 37.98 32.9291 37.52V33.9H34.3091V37.52C34.3091 37.8133 34.3357 38.1 34.3891 38.38C34.4491 38.6533 34.5457 38.9 34.6791 39.12C34.8124 39.34 34.9891 39.5133 35.2091 39.64C35.4291 39.7667 35.7024 39.83 36.0291 39.83C36.3624 39.83 36.6391 39.7667 36.8591 39.64C37.0857 39.5067 37.2624 39.33 37.3891 39.11C37.5224 38.89 37.6191 38.6433 37.6791 38.37C37.7391 38.09 37.7691 37.8067 37.7691 37.52V33.9H39.1391V37.52C39.1391 38.0067 39.0791 38.4633 38.9591 38.89C38.8457 39.3167 38.6624 39.6933 38.4091 40.02C38.1624 40.34 37.8424 40.5933 37.4491 40.78C37.0557 40.96 36.5857 41.05 36.0391 41.05ZM42.9091 36.44V41H41.5291V33.9H42.6291L46.2991 38.58V33.91H47.6791V41H46.5291L42.9091 36.44ZM55.466 35.11H53.196V41H51.826V35.11H49.556V33.9H55.466V35.11Z" fill="#120A0A"/>
<path id="Vector_2" d="M29.75 20C34.1683 20 37.75 16.4183 37.75 12C37.75 7.58172 34.1683 4 29.75 4C25.3317 4 21.75 7.58172 21.75 12C21.75 16.4183 25.3317 20 29.75 20Z" stroke="#120A0A" stroke-width="2" stroke-linecap="round" stroke-linejoin="round"/>
<path id="Vector_3" d="M17.625 26.9999C18.8537 24.8713 20.621 23.1037 22.7494 21.8747C24.8778 20.6458 27.2923 19.9988 29.75 19.9988C32.2077 19.9988 34.6222 20.6458 36.7506 21.8747C38.879 23.1037 40.6463 24.8713 41.875 26.9999" stroke="#120A0A" stroke-width="2" stroke-linecap="round" stroke-linejoin="round"/>
</g>
<defs>
<clipPath id="clip0_42_3011">
<rect width="55" height="42" fill="white" transform="translate(0.75)"/>
</clipPath>
</defs>
</svg>
