<svg width="33" height="33" viewBox="0 0 33 33" fill="none" xmlns="http://www.w3.org/2000/svg">
<g id="icon-speed.svg">
<path id="Vector" d="M3.5 23.4801V20.6176C3.5 13.4301 9.275 7.50508 16.45 7.48008C18.1614 7.47349 19.8572 7.80489 21.4402 8.45525C23.0232 9.10562 24.4623 10.0621 25.6747 11.27C26.8872 12.4778 27.8492 13.9131 28.5057 15.4936C29.1621 17.0741 29.5 18.7687 29.5 20.4801V23.4801C29.5 23.7453 29.3946 23.9997 29.2071 24.1872C29.0196 24.3747 28.7652 24.4801 28.5 24.4801H4.5C4.23478 24.4801 3.98043 24.3747 3.79289 24.1872C3.60536 23.9997 3.5 23.7453 3.5 23.4801Z" stroke="#120A0A" stroke-width="2" stroke-linecap="round" stroke-linejoin="round"/>
<path id="Vector_2" d="M16.5 7.47998V11.48" stroke="#120A0A" stroke-width="2" stroke-linecap="round" stroke-linejoin="round"/>
<path id="Vector_3" d="M3.9375 17.1174L7.8125 18.1548" stroke="#120A0A" stroke-width="2" stroke-linecap="round" stroke-linejoin="round"/>
<path id="Vector_4" d="M29.0625 17.1174L25.1875 18.1548" stroke="#120A0A" stroke-width="2" stroke-linecap="round" stroke-linejoin="round"/>
<path id="Vector_5" d="M13.4248 24.48L21.9748 13.3425" stroke="#120A0A" stroke-width="2" stroke-linecap="round" stroke-linejoin="round"/>
</g>
</svg>
