<svg width="33" height="33" viewBox="0 0 33 33" fill="none" xmlns="http://www.w3.org/2000/svg">
<g id="icon-pulse.svg">
<path id="Vector" d="M4.5 16.4805H9.5L11.5 13.4805L15.5 19.4805L17.5 16.4805H20.5" stroke="#120A0A" stroke-width="2" stroke-linecap="round" stroke-linejoin="round"/>
<path id="Vector_2" d="M4.0125 12.4805C4 12.318 4 12.143 4 11.9805C4 10.4778 4.52062 9.02161 5.47328 7.85955C6.42593 6.6975 7.75178 5.9014 9.22525 5.60671C10.6987 5.31201 12.2288 5.53693 13.5551 6.24319C14.8814 6.94945 15.9221 8.09343 16.5 9.48048C17.0779 8.09343 18.1186 6.94945 19.4449 6.24319C20.7712 5.53693 22.3013 5.31201 23.7748 5.60671C25.2482 5.9014 26.5741 6.6975 27.5267 7.85955C28.4794 9.02161 29 10.4778 29 11.9805C29 20.4805 16.5 27.4805 16.5 27.4805C16.5 27.4805 11.5125 24.6805 7.8375 20.4805" stroke="#120A0A" stroke-width="2" stroke-linecap="round" stroke-linejoin="round"/>
</g>
</svg>
