<svg width="43" height="43" viewBox="0 0 43 43" fill="none" xmlns="http://www.w3.org/2000/svg">
<path id="Vector" d="M21.4519 10.7813C15.4519 10.7813 10.6706 15.6563 10.6706 21.5625C10.6706 27.5625 15.4519 32.3438 21.4519 32.3438C27.3581 32.3438 32.2331 27.5625 32.2331 21.5625C32.2331 15.6563 27.3581 10.7813 21.4519 10.7813ZM21.4519 28.5938C17.6081 28.5938 14.4206 25.5 14.4206 21.5625C14.4206 17.7188 17.5144 14.625 21.4519 14.625C25.2956 14.625 28.3894 17.7188 28.3894 21.5625C28.3894 25.5 25.2956 28.5938 21.4519 28.5938ZM35.1394 10.4063C35.1394 11.8125 34.0144 12.9375 32.6081 12.9375C31.2019 12.9375 30.0769 11.8125 30.0769 10.4063C30.0769 8.99999 31.2019 7.875 32.6081 7.875C34.0144 7.875 35.1394 8.99999 35.1394 10.4063ZM42.2644 12.9375C42.0769 9.5625 41.3269 6.5625 38.8894 4.12499C36.4519 1.68749 33.4519 0.9375 30.0769 0.75C26.6081 0.5625 16.2019 0.5625 12.7331 0.75C9.35812 0.9375 6.45188 1.68749 3.92062 4.12499C1.48312 6.5625 0.733124 9.5625 0.545624 12.9375C0.358124 16.4063 0.358124 26.8125 0.545624 30.2813C0.733124 33.6563 1.48312 36.5625 3.92062 39.0938C6.45188 41.5313 9.35812 42.2813 12.7331 42.4688C16.2019 42.6563 26.6081 42.6563 30.0769 42.4688C33.4519 42.2813 36.4519 41.5313 38.8894 39.0938C41.3269 36.5625 42.0769 33.6563 42.2644 30.2813C42.4519 26.8125 42.4519 16.4063 42.2644 12.9375ZM37.7644 33.9375C37.1081 35.8125 35.6081 37.2188 33.8269 37.9688C31.0144 39.0938 24.4519 38.8125 21.4519 38.8125C18.3581 38.8125 11.7956 39.0938 9.07688 37.9688C7.20188 37.2188 5.79562 35.8125 5.04562 33.9375C3.92062 31.2188 4.20188 24.6563 4.20188 21.5625C4.20188 18.5625 3.92062 12 5.04562 9.1875C5.79562 7.40626 7.20188 6 9.07688 5.25C11.7956 4.125 18.3581 4.40626 21.4519 4.40626C24.4519 4.40626 31.0144 4.125 33.8269 5.25C35.6081 5.90626 37.0144 7.40626 37.7644 9.1875C38.8894 12 38.6081 18.5625 38.6081 21.5625C38.6081 24.6563 38.8894 31.2188 37.7644 33.9375Z" fill="#F7DC5A"/>
</svg>
