<svg width="23" height="21" viewBox="0 0 23 21" fill="none" xmlns="http://www.w3.org/2000/svg">
<path id="Vector" d="M21.9247 8.21127C21.8308 7.91594 21.6499 7.65587 21.4056 7.46515C21.1614 7.27443 20.8652 7.16197 20.5559 7.14252L14.9872 6.75815L12.9247 1.55502C12.812 1.26852 12.616 1.02243 12.362 0.848597C12.1079 0.674767 11.8075 0.581197 11.4997 0.580017C11.1918 0.581197 10.8914 0.674767 10.6374 0.848597C10.3833 1.02243 10.1873 1.26852 10.0747 1.55502L7.97467 6.78627L2.44342 7.14252C2.13452 7.16323 1.83894 7.27616 1.59492 7.4667C1.3509 7.65724 1.16967 7.91661 1.07467 8.21127C0.97711 8.51045 0.97141 8.83199 1.0583 9.13442C1.14519 9.43692 1.32069 9.70632 1.56217 9.90812L5.81842 13.5081L4.55279 18.4862C4.46523 18.823 4.48099 19.1783 4.59802 19.506C4.71505 19.8337 4.92795 20.1186 5.20904 20.3238C5.48188 20.5196 5.80695 20.6295 6.14264 20.6396C6.47833 20.6496 6.80938 20.5592 7.09342 20.38L11.4903 17.5956H11.509L16.2434 20.5862C16.4863 20.7441 16.7694 20.8287 17.059 20.83C17.2955 20.8281 17.5284 20.7721 17.7399 20.6661C17.9513 20.5602 18.1356 20.4072 18.2787 20.2189C18.4217 20.0305 18.5197 19.8119 18.565 19.5798C18.6104 19.3477 18.6019 19.1083 18.5403 18.88L17.1997 13.4331L21.4372 9.90812C21.6786 9.70632 21.8541 9.43692 21.941 9.13442C22.0279 8.83199 22.0222 8.51045 21.9247 8.21127Z" fill="#F7DC5A"/>
</svg>
