<svg width="22" height="21" viewBox="0 0 22 21" fill="none" xmlns="http://www.w3.org/2000/svg">
<path id="Vector" d="M20.9459 8.21254C20.8519 7.91721 20.6709 7.65713 20.4269 7.46642C20.1819 7.2757 19.8859 7.16324 19.5769 7.14379L14.0459 6.78754C14.0369 6.78655 14.0299 6.78344 14.0229 6.7785C14.0169 6.77356 14.0109 6.76698 14.0079 6.75941L11.9459 1.55629C11.8339 1.26881 11.6389 1.02173 11.3839 0.847487C11.1299 0.673257 10.8289 0.580017 10.5209 0.580017C10.2119 0.580017 9.91095 0.673257 9.65695 0.847487C9.40295 1.02173 9.20694 1.26881 9.09594 1.55629L7.03295 6.75941C7.02995 6.76698 7.02495 6.77356 7.01795 6.7785C7.01195 6.78344 7.00394 6.78655 6.99594 6.78754L1.46395 7.14379C1.15495 7.16324 0.858946 7.2757 0.614946 7.46642C0.369946 7.65713 0.189941 7.91721 0.0959415 8.21254C-0.00205851 8.51172 -0.0080568 8.83326 0.0789432 9.13568C0.165943 9.43818 0.341941 9.70768 0.582941 9.90938L4.82095 13.4344C4.82995 13.4441 4.83695 13.4561 4.83994 13.4693C4.84395 13.4825 4.84295 13.4964 4.83895 13.5094L3.57395 18.4876C3.48795 18.8244 3.50394 19.1793 3.62094 19.5067C3.73794 19.8341 3.94994 20.1191 4.22994 20.3251C4.50294 20.5209 4.82794 20.6308 5.16394 20.6409C5.49894 20.6509 5.82995 20.5605 6.11395 20.3813L10.5109 17.5969H10.5299L15.2639 20.5876C15.5069 20.7454 15.7899 20.83 16.0799 20.8313C16.3999 20.827 16.7099 20.7257 16.9709 20.5407C17.2249 20.3561 17.4179 20.0988 17.5229 19.8026C17.6289 19.5064 17.6419 19.1852 17.5609 18.8813L16.2019 13.5094C16.1979 13.4964 16.1979 13.4825 16.2009 13.4693C16.2039 13.4561 16.2109 13.4441 16.2209 13.4344L20.4579 9.90938C20.6999 9.70768 20.8749 9.43818 20.9619 9.13568C21.0489 8.83326 21.0429 8.51172 20.9459 8.21254ZM19.5019 8.75629L15.2549 12.2813C15.0299 12.4726 14.8619 12.7236 14.7729 13.0054C14.6829 13.2873 14.6749 13.5887 14.7489 13.8751L16.1079 19.2469C16.1179 19.2844 16.1179 19.2938 16.1079 19.3032C16.1019 19.3152 16.0919 19.3251 16.0799 19.3313H16.0609L11.3359 16.3313C11.0929 16.1763 10.8089 16.0949 10.5209 16.0969V2.08129C10.5299 2.08129 10.5389 2.08129 10.5489 2.10941L12.6209 7.31254C12.7259 7.58341 12.9069 7.81878 13.1399 7.99135C13.3739 8.16393 13.6529 8.26663 13.9429 8.28754L19.4829 8.64379C19.4929 8.64379 19.5019 8.64379 19.5109 8.68129C19.5209 8.71879 19.5109 8.74691 19.5019 8.75629Z" fill="#F7DC5A"/>
</svg>
