<svg width="38" height="43" viewBox="0 0 38 43" fill="none" xmlns="http://www.w3.org/2000/svg">
<path id="Vector" d="M37.0374 17.8113C33.3513 17.8932 29.9109 16.7464 26.962 14.6167V29.2792C26.962 39.5185 15.8217 45.9078 6.97501 40.8291C-1.87168 35.6685 -1.87168 22.89 6.97501 17.7294C9.51434 16.2549 12.5452 15.6815 15.4941 16.0911V23.4634C10.9888 21.9889 6.64736 26.0027 7.63032 30.5899C8.6952 35.177 14.2654 36.9791 17.7877 33.7845C19.0164 32.6377 19.7536 30.9994 19.7536 29.2792V0.609375H26.962C26.962 1.26469 26.962 1.83808 27.1258 2.49339C27.6173 5.19656 29.1737 7.57205 31.5492 9.0465C33.1055 10.1114 35.0715 10.6848 37.0374 10.6848V17.8113Z" fill="#F7DC5A"/>
</svg>
