<svg width="37" height="37" viewBox="0 0 37 37" fill="none" xmlns="http://www.w3.org/2000/svg">
<g id="icon-video-badge.svg" clip-path="url(#clip0_42_3472)">
<path id="Vector" d="M0.5 12.7402C0.5 6.11281 5.87258 0.740234 12.5 0.740234H36.5V24.7402C36.5 31.3676 31.1274 36.7402 24.5 36.7402H0.5V12.7402Z" fill="#120A0A"/>
<path id="Vector_2" d="M29.4699 16.5699C27.3636 16.6167 25.3977 15.9614 23.7126 14.7444V23.123C23.7126 28.974 17.3467 32.625 12.2914 29.7229C7.2362 26.774 7.2362 19.472 12.2914 16.5231C13.7425 15.6805 15.4744 15.3529 17.1595 15.5869V19.7996C14.585 18.9571 12.1042 21.2507 12.6659 23.8719C13.2744 26.4931 16.4573 27.5229 18.4701 25.6974C19.1722 25.0421 19.5935 24.1059 19.5935 23.123V6.74023H23.7126C23.7126 7.11469 23.7126 7.44235 23.8062 7.81681C24.087 9.36147 24.9764 10.7189 26.3338 11.5614C27.2232 12.1699 28.3466 12.4976 29.4699 12.4976V16.5699Z" fill="white"/>
</g>
<defs>
<clipPath id="clip0_42_3472">
<rect width="36" height="36" fill="white" transform="translate(0.5 0.740234)"/>
</clipPath>
</defs>
</svg>
