<svg xmlns="http://www.w3.org/2000/svg" width="446" height="95" viewBox="0 0 446 95" fill="none">
<path d="M5.39999 0.979988L4.36799 3.73999H5.064L4.48799 6.47599H2.47199L3.04799 3.73999L4.34399 0.979988H5.39999ZM8.54399 0.979988L7.51199 3.73999H8.20799L7.632 6.47599H5.61599L6.19199 3.73999L7.48799 0.979988H8.54399ZM12.43 1.48399H14.59L10.9659 18.5H8.80589L12.43 1.48399ZM21.396 5.97199H23.58L25.572 16.652C26.084 15.996 26.572 15.34 27.036 14.684C27.5 14.012 27.932 13.348 28.332 12.692L26.652 5.97199H28.836L29.796 10.028C30.132 9.35599 30.428 8.68399 30.684 8.01199C30.956 7.32399 31.18 6.64399 31.356 5.97199H33.372C33.068 7.07599 32.66 8.18799 32.148 9.30799C31.652 10.412 31.076 11.516 30.42 12.62L31.404 16.652C31.916 15.948 32.404 15.244 32.868 14.54C33.332 13.82 33.764 13.1 34.164 12.38C34.564 11.66 34.932 10.948 35.268 10.244C35.62 9.52399 35.924 8.81199 36.18 8.10799C36.452 7.38799 36.676 6.67599 36.852 5.97199H38.868C38.292 8.05199 37.42 10.14 36.252 12.236C35.084 14.316 33.692 16.404 32.076 18.5H29.796L28.908 14.972C28.508 15.564 28.084 16.156 27.636 16.748C27.188 17.324 26.724 17.908 26.244 18.5H23.964L21.396 5.97199ZM43.686 18.74C42.758 18.74 41.958 18.508 41.286 18.044C40.614 17.564 40.102 16.932 39.75 16.148C39.398 15.348 39.222 14.476 39.222 13.532C39.222 12.524 39.406 11.556 39.774 10.628C40.158 9.69999 40.67 8.87599 41.31 8.15599C41.966 7.41999 42.71 6.83599 43.542 6.40399C44.374 5.97199 45.246 5.75599 46.158 5.75599C47.118 5.75599 47.918 6.01999 48.558 6.54799C49.198 7.07599 49.646 7.71599 49.902 8.46799L50.454 5.97199H52.566L50.454 15.908C50.438 15.972 50.422 16.028 50.406 16.076C50.406 16.124 50.406 16.172 50.406 16.22C50.406 16.508 50.582 16.66 50.934 16.676L50.55 18.5C50.374 18.516 50.214 18.532 50.07 18.548C49.942 18.58 49.822 18.596 49.71 18.596C49.262 18.596 48.918 18.492 48.678 18.284C48.454 18.076 48.342 17.82 48.342 17.516C48.342 17.42 48.35 17.308 48.366 17.18C48.382 17.052 48.406 16.9 48.438 16.724C48.47 16.548 48.51 16.356 48.558 16.148C47.934 16.948 47.174 17.58 46.278 18.044C45.398 18.508 44.534 18.74 43.686 18.74ZM44.598 16.916C44.95 16.916 45.326 16.844 45.726 16.7C46.142 16.556 46.542 16.356 46.926 16.1C47.326 15.844 47.686 15.548 48.006 15.212C48.326 14.86 48.566 14.492 48.726 14.108L49.47 10.508C49.406 9.96399 49.222 9.47599 48.918 9.04399C48.614 8.59599 48.238 8.24399 47.79 7.98799C47.358 7.71599 46.894 7.57999 46.398 7.57999C45.726 7.57999 45.094 7.74799 44.502 8.08399C43.91 8.40399 43.382 8.83599 42.918 9.37999C42.47 9.92399 42.11 10.532 41.838 11.204C41.582 11.86 41.454 12.524 41.454 13.196C41.454 13.884 41.582 14.508 41.838 15.068C42.094 15.628 42.454 16.076 42.918 16.412C43.398 16.748 43.958 16.916 44.598 16.916ZM57.833 18.74C56.825 18.74 55.889 18.588 55.025 18.284C54.161 17.964 53.457 17.508 52.913 16.916L54.113 15.5C54.689 16.044 55.297 16.452 55.937 16.724C56.593 16.98 57.289 17.108 58.025 17.108C58.665 17.108 59.225 17.02 59.705 16.844C60.201 16.652 60.585 16.388 60.857 16.052C61.129 15.7 61.265 15.3 61.265 14.852C61.265 14.276 61.025 13.884 60.545 13.676C60.065 13.452 59.353 13.204 58.409 12.932C57.625 12.692 56.969 12.468 56.441 12.26C55.929 12.052 55.545 11.788 55.289 11.468C55.049 11.132 54.929 10.676 54.929 10.1C54.929 9.23599 55.169 8.48399 55.649 7.84399C56.129 7.18799 56.777 6.67599 57.593 6.30799C58.409 5.93999 59.329 5.75599 60.353 5.75599C61.297 5.75599 62.121 5.90799 62.825 6.21199C63.529 6.51599 64.105 6.91599 64.553 7.41199L63.329 8.68399C62.929 8.21999 62.481 7.88399 61.985 7.67599C61.489 7.46799 60.913 7.36399 60.257 7.36399C59.633 7.36399 59.073 7.45199 58.577 7.62799C58.097 7.78799 57.713 8.03599 57.425 8.37199C57.153 8.70799 57.017 9.12399 57.017 9.61999C57.017 10.116 57.193 10.468 57.545 10.676C57.897 10.868 58.513 11.084 59.393 11.324C60.257 11.564 60.985 11.82 61.577 12.092C62.185 12.348 62.641 12.668 62.945 13.052C63.249 13.436 63.401 13.948 63.401 14.588C63.401 15.372 63.169 16.076 62.705 16.7C62.257 17.324 61.617 17.82 60.785 18.188C59.953 18.556 58.969 18.74 57.833 18.74ZM67.904 5.97199H69.824L69.248 8.65999C69.68 8.06799 70.192 7.55599 70.784 7.12399C71.392 6.69199 72.04 6.35599 72.728 6.11599C73.416 5.87599 74.104 5.75599 74.792 5.75599C75.464 5.75599 76 5.88399 76.4 6.13999C76.8 6.37999 77.088 6.72399 77.264 7.17199C77.44 7.60399 77.528 8.11599 77.528 8.70799C77.528 9.05999 77.496 9.42799 77.432 9.81199C77.384 10.196 77.32 10.596 77.24 11.012L75.656 18.5H73.544L75.032 11.492C75.112 11.14 75.168 10.82 75.2 10.532C75.232 10.228 75.248 9.94799 75.248 9.69199C75.248 8.98799 75.104 8.47599 74.816 8.15599C74.528 7.81999 74.104 7.65199 73.544 7.65199C73.016 7.65199 72.456 7.79599 71.864 8.08399C71.272 8.37199 70.72 8.76399 70.208 9.25999C69.696 9.73999 69.28 10.3 68.96 10.94L67.352 18.5H65.24L67.904 5.97199ZM80.117 6.47599L81.149 3.71599H80.453L81.029 0.979988H83.045L82.469 3.71599L81.173 6.47599H80.117ZM82.642 16.748C82.642 16.636 82.65 16.524 82.666 16.412C82.682 16.284 82.698 16.164 82.714 16.052L84.514 7.62799H82.882L83.242 5.97199H84.85L85.738 1.79599H87.85L86.962 5.97199H89.626L89.266 7.62799H86.626L84.97 15.404C84.954 15.468 84.938 15.532 84.922 15.596C84.922 15.644 84.922 15.7 84.922 15.764C84.922 16.1 85.026 16.348 85.234 16.508C85.442 16.652 85.698 16.724 86.002 16.724C86.274 16.724 86.53 16.692 86.77 16.628C87.026 16.548 87.25 16.468 87.442 16.388C87.634 16.308 87.778 16.244 87.874 16.196L87.994 17.876C87.802 18.004 87.546 18.132 87.226 18.26C86.906 18.388 86.546 18.484 86.146 18.548C85.746 18.628 85.33 18.668 84.898 18.668C84.258 18.668 83.722 18.516 83.29 18.212C82.858 17.892 82.642 17.404 82.642 16.748ZM100.353 18.74C99.345 18.74 98.409 18.588 97.545 18.284C96.681 17.964 95.977 17.508 95.433 16.916L96.633 15.5C97.209 16.044 97.817 16.452 98.457 16.724C99.113 16.98 99.809 17.108 100.545 17.108C101.185 17.108 101.745 17.02 102.225 16.844C102.721 16.652 103.105 16.388 103.377 16.052C103.649 15.7 103.785 15.3 103.785 14.852C103.785 14.276 103.545 13.884 103.065 13.676C102.585 13.452 101.873 13.204 100.929 12.932C100.145 12.692 99.489 12.468 98.961 12.26C98.449 12.052 98.065 11.788 97.809 11.468C97.569 11.132 97.449 10.676 97.449 10.1C97.449 9.23599 97.689 8.48399 98.169 7.84399C98.649 7.18799 99.297 6.67599 100.113 6.30799C100.929 5.93999 101.849 5.75599 102.873 5.75599C103.817 5.75599 104.641 5.90799 105.345 6.21199C106.049 6.51599 106.625 6.91599 107.073 7.41199L105.849 8.68399C105.449 8.21999 105.001 7.88399 104.505 7.67599C104.009 7.46799 103.433 7.36399 102.777 7.36399C102.153 7.36399 101.593 7.45199 101.097 7.62799C100.617 7.78799 100.233 8.03599 99.945 8.37199C99.673 8.70799 99.537 9.12399 99.537 9.61999C99.537 10.116 99.713 10.468 100.065 10.676C100.417 10.868 101.033 11.084 101.913 11.324C102.777 11.564 103.505 11.82 104.097 12.092C104.705 12.348 105.161 12.668 105.465 13.052C105.769 13.436 105.921 13.948 105.921 14.588C105.921 15.372 105.689 16.076 105.225 16.7C104.777 17.324 104.137 17.82 103.305 18.188C102.473 18.556 101.489 18.74 100.353 18.74ZM111.36 18.74C109.408 18.74 108.432 17.684 108.432 15.572C108.432 15.268 108.456 14.948 108.504 14.612C108.552 14.26 108.616 13.884 108.696 13.484L110.304 5.97199H112.392L110.88 13.076C110.736 13.716 110.664 14.268 110.664 14.732C110.664 16.188 111.288 16.916 112.536 16.916C113.08 16.916 113.624 16.796 114.168 16.556C114.712 16.3 115.232 15.94 115.728 15.476C116.24 15.012 116.68 14.46 117.048 13.82L118.704 5.97199H120.816L118.704 15.908C118.688 15.972 118.672 16.028 118.656 16.076C118.656 16.124 118.656 16.172 118.656 16.22C118.656 16.508 118.832 16.66 119.184 16.676L118.8 18.5C118.624 18.516 118.464 18.532 118.32 18.548C118.192 18.58 118.072 18.596 117.96 18.596C117.528 18.596 117.2 18.5 116.976 18.308C116.752 18.116 116.64 17.86 116.64 17.54C116.64 17.444 116.648 17.332 116.664 17.204C116.68 17.06 116.704 16.876 116.736 16.652C116.784 16.428 116.84 16.148 116.904 15.812C116.184 16.74 115.336 17.46 114.36 17.972C113.384 18.484 112.384 18.74 111.36 18.74ZM124.516 5.97199H126.484L125.86 8.87599C126.468 8.01199 127.156 7.30799 127.924 6.76399C128.708 6.21999 129.484 5.94799 130.252 5.94799C130.396 5.94799 130.516 5.95599 130.612 5.97199C130.724 5.97199 130.812 5.97999 130.876 5.99599L130.492 7.81999C129.5 7.83599 128.564 8.10799 127.684 8.63599C126.804 9.14799 126.108 9.85999 125.596 10.772L123.964 18.5H121.852L124.516 5.97199ZM135.67 18.74C134.63 18.74 133.742 18.508 133.006 18.044C132.27 17.564 131.71 16.924 131.326 16.124C130.942 15.324 130.75 14.428 130.75 13.436C130.75 12.428 130.934 11.468 131.302 10.556C131.686 9.62799 132.222 8.80399 132.91 8.08399C133.598 7.36399 134.398 6.79599 135.31 6.37999C136.238 5.96399 137.246 5.75599 138.334 5.75599C139.15 5.75599 139.87 5.88399 140.494 6.13999C141.134 6.39599 141.63 6.77199 141.982 7.26799C142.334 7.76399 142.51 8.38799 142.51 9.13999C142.51 10.404 141.95 11.364 140.83 12.02C139.71 12.676 137.99 13.004 135.67 13.004C135.238 13.004 134.742 12.996 134.182 12.98C133.622 12.948 132.974 12.9 132.238 12.836L132.526 11.396C133.23 11.428 133.83 11.46 134.326 11.492C134.838 11.524 135.31 11.54 135.742 11.54C136.958 11.54 137.918 11.436 138.622 11.228C139.326 11.02 139.83 10.732 140.134 10.364C140.454 9.99599 140.614 9.57999 140.614 9.11599C140.614 8.69999 140.51 8.36399 140.302 8.10799C140.11 7.85199 139.83 7.65999 139.462 7.53199C139.11 7.40399 138.686 7.33999 138.19 7.33999C137.39 7.33999 136.662 7.50799 136.006 7.84399C135.366 8.17999 134.806 8.63599 134.326 9.21199C133.862 9.78799 133.502 10.444 133.246 11.18C133.006 11.9 132.886 12.652 132.886 13.436C132.886 14.092 132.998 14.708 133.222 15.284C133.446 15.844 133.79 16.3 134.254 16.652C134.718 16.988 135.302 17.156 136.006 17.156C136.742 17.156 137.462 16.972 138.166 16.604C138.87 16.22 139.422 15.708 139.822 15.068L141.526 15.572C141.142 16.18 140.638 16.724 140.014 17.204C139.39 17.684 138.702 18.06 137.95 18.332C137.214 18.604 136.454 18.74 135.67 18.74ZM154.537 18.74C153.609 18.74 152.809 18.508 152.137 18.044C151.465 17.564 150.953 16.932 150.601 16.148C150.249 15.348 150.073 14.476 150.073 13.532C150.073 12.524 150.257 11.556 150.625 10.628C151.009 9.69999 151.521 8.87599 152.161 8.15599C152.817 7.41999 153.561 6.83599 154.393 6.40399C155.225 5.97199 156.097 5.75599 157.009 5.75599C157.969 5.75599 158.769 6.01999 159.409 6.54799C160.049 7.07599 160.497 7.71599 160.753 8.46799L161.305 5.97199H163.417L161.305 15.908C161.289 15.972 161.273 16.028 161.257 16.076C161.257 16.124 161.257 16.172 161.257 16.22C161.257 16.508 161.433 16.66 161.785 16.676L161.401 18.5C161.225 18.516 161.065 18.532 160.921 18.548C160.793 18.58 160.673 18.596 160.561 18.596C160.113 18.596 159.769 18.492 159.529 18.284C159.305 18.076 159.193 17.82 159.193 17.516C159.193 17.42 159.201 17.308 159.217 17.18C159.233 17.052 159.257 16.9 159.289 16.724C159.321 16.548 159.361 16.356 159.409 16.148C158.785 16.948 158.025 17.58 157.129 18.044C156.249 18.508 155.385 18.74 154.537 18.74ZM155.449 16.916C155.801 16.916 156.177 16.844 156.577 16.7C156.993 16.556 157.393 16.356 157.777 16.1C158.177 15.844 158.537 15.548 158.857 15.212C159.177 14.86 159.417 14.492 159.577 14.108L160.321 10.508C160.257 9.96399 160.073 9.47599 159.769 9.04399C159.465 8.59599 159.089 8.24399 158.641 7.98799C158.209 7.71599 157.745 7.57999 157.249 7.57999C156.577 7.57999 155.945 7.74799 155.353 8.08399C154.761 8.40399 154.233 8.83599 153.769 9.37999C153.321 9.92399 152.961 10.532 152.689 11.204C152.433 11.86 152.305 12.524 152.305 13.196C152.305 13.884 152.433 14.508 152.689 15.068C152.945 15.628 153.305 16.076 153.769 16.412C154.249 16.748 154.809 16.916 155.449 16.916ZM165.398 16.748C165.398 16.636 165.406 16.524 165.422 16.412C165.438 16.284 165.454 16.164 165.47 16.052L167.27 7.62799H165.638L165.998 5.97199H167.606L168.494 1.79599H170.606L169.718 5.97199H172.382L172.022 7.62799H169.382L167.726 15.404C167.71 15.468 167.694 15.532 167.678 15.596C167.678 15.644 167.678 15.7 167.678 15.764C167.678 16.1 167.782 16.348 167.99 16.508C168.198 16.652 168.454 16.724 168.758 16.724C169.03 16.724 169.286 16.692 169.526 16.628C169.782 16.548 170.006 16.468 170.198 16.388C170.39 16.308 170.534 16.244 170.63 16.196L170.75 17.876C170.558 18.004 170.302 18.132 169.982 18.26C169.662 18.388 169.302 18.484 168.902 18.548C168.502 18.628 168.086 18.668 167.654 18.668C167.014 18.668 166.478 18.516 166.046 18.212C165.614 17.892 165.398 17.404 165.398 16.748ZM181.789 7.62799H180.181L180.541 5.97199H182.149L182.197 5.70799C182.325 5.08399 182.541 4.48399 182.845 3.90799C183.149 3.31599 183.541 2.77999 184.021 2.29999C184.501 1.81999 185.053 1.44399 185.677 1.17199C186.301 0.883989 186.981 0.73999 187.717 0.73999C188.277 0.73999 188.781 0.803988 189.229 0.931988C189.677 1.05999 190.069 1.21999 190.405 1.41199C190.741 1.60399 191.021 1.79599 191.245 1.98799L190.021 3.54799C189.765 3.27599 189.413 3.04399 188.965 2.85199C188.517 2.65999 188.013 2.56399 187.453 2.56399C186.877 2.56399 186.373 2.71599 185.941 3.01999C185.509 3.32399 185.157 3.71599 184.885 4.19599C184.629 4.65999 184.445 5.13999 184.333 5.63599L184.261 5.97199H190.381L187.717 18.5H185.605L187.909 7.62799H183.901L181.597 18.5H179.485L181.789 7.62799ZM193.93 5.97199H195.898L195.274 8.87599C195.882 8.01199 196.57 7.30799 197.338 6.76399C198.122 6.21999 198.898 5.94799 199.666 5.94799C199.81 5.94799 199.93 5.95599 200.026 5.97199C200.138 5.97199 200.226 5.97999 200.29 5.99599L199.906 7.81999C198.914 7.83599 197.978 8.10799 197.098 8.63599C196.218 9.14799 195.522 9.85999 195.01 10.772L193.378 18.5H191.266L193.93 5.97199ZM204.214 18.74C203.206 18.74 202.27 18.588 201.406 18.284C200.542 17.964 199.838 17.508 199.294 16.916L200.494 15.5C201.07 16.044 201.678 16.452 202.318 16.724C202.974 16.98 203.67 17.108 204.406 17.108C205.046 17.108 205.606 17.02 206.086 16.844C206.582 16.652 206.966 16.388 207.238 16.052C207.51 15.7 207.646 15.3 207.646 14.852C207.646 14.276 207.406 13.884 206.926 13.676C206.446 13.452 205.734 13.204 204.79 12.932C204.006 12.692 203.35 12.468 202.822 12.26C202.31 12.052 201.926 11.788 201.67 11.468C201.43 11.132 201.31 10.676 201.31 10.1C201.31 9.23599 201.55 8.48399 202.03 7.84399C202.51 7.18799 203.158 6.67599 203.974 6.30799C204.79 5.93999 205.71 5.75599 206.734 5.75599C207.678 5.75599 208.502 5.90799 209.206 6.21199C209.91 6.51599 210.486 6.91599 210.934 7.41199L209.71 8.68399C209.31 8.21999 208.862 7.88399 208.366 7.67599C207.87 7.46799 207.294 7.36399 206.638 7.36399C206.014 7.36399 205.454 7.45199 204.958 7.62799C204.478 7.78799 204.094 8.03599 203.806 8.37199C203.534 8.70799 203.398 9.12399 203.398 9.61999C203.398 10.116 203.574 10.468 203.926 10.676C204.278 10.868 204.894 11.084 205.774 11.324C206.638 11.564 207.366 11.82 207.958 12.092C208.566 12.348 209.022 12.668 209.326 13.052C209.63 13.436 209.782 13.948 209.782 14.588C209.782 15.372 209.55 16.076 209.086 16.7C208.638 17.324 207.998 17.82 207.166 18.188C206.334 18.556 205.35 18.74 204.214 18.74ZM212.653 16.748C212.653 16.636 212.661 16.524 212.677 16.412C212.693 16.284 212.709 16.164 212.725 16.052L214.525 7.62799H212.893L213.253 5.97199H214.861L215.749 1.79599H217.861L216.973 5.97199H219.637L219.277 7.62799H216.637L214.981 15.404C214.965 15.468 214.949 15.532 214.933 15.596C214.933 15.644 214.933 15.7 214.933 15.764C214.933 16.1 215.037 16.348 215.245 16.508C215.453 16.652 215.709 16.724 216.013 16.724C216.285 16.724 216.541 16.692 216.781 16.628C217.037 16.548 217.261 16.468 217.453 16.388C217.645 16.308 217.789 16.244 217.885 16.196L218.005 17.876C217.813 18.004 217.557 18.132 217.237 18.26C216.917 18.388 216.557 18.484 216.157 18.548C215.757 18.628 215.341 18.668 214.909 18.668C214.269 18.668 213.733 18.516 213.301 18.212C212.869 17.892 212.653 17.404 212.653 16.748ZM219.682 20.444L220.618 18.308H219.898L220.426 15.812H222.394L221.866 18.308L220.714 20.444H219.682ZM237.564 18.74C236.588 18.74 235.772 18.5 235.116 18.02C234.476 17.524 234.02 16.9 233.748 16.148L233.244 18.5H231.372L235.092 0.979988H237.204L235.62 8.46799C236.276 7.65199 237.02 6.99599 237.852 6.49999C238.7 6.00399 239.588 5.75599 240.516 5.75599C241.444 5.75599 242.212 5.99599 242.82 6.47599C243.444 6.95599 243.908 7.58799 244.212 8.37199C244.532 9.13999 244.692 9.97199 244.692 10.868C244.692 11.924 244.492 12.924 244.092 13.868C243.692 14.812 243.148 15.652 242.46 16.388C241.788 17.124 241.028 17.7 240.18 18.116C239.332 18.532 238.46 18.74 237.564 18.74ZM237.492 16.916C238.116 16.916 238.724 16.764 239.316 16.46C239.908 16.14 240.436 15.716 240.9 15.188C241.38 14.644 241.756 14.036 242.028 13.364C242.316 12.676 242.46 11.972 242.46 11.252C242.46 10.612 242.34 10.012 242.1 9.45199C241.876 8.89199 241.548 8.44399 241.116 8.10799C240.684 7.75599 240.148 7.57999 239.508 7.57999C238.964 7.57999 238.42 7.71599 237.876 7.98799C237.348 8.25999 236.852 8.61999 236.388 9.06799C235.94 9.49999 235.54 9.97999 235.188 10.508L234.42 14.132C234.42 14.644 234.556 15.116 234.828 15.548C235.116 15.964 235.492 16.3 235.956 16.556C236.42 16.796 236.932 16.916 237.492 16.916ZM249.579 18.74C247.627 18.74 246.651 17.684 246.651 15.572C246.651 15.268 246.675 14.948 246.723 14.612C246.771 14.26 246.835 13.884 246.915 13.484L248.523 5.97199H250.611L249.099 13.076C248.955 13.716 248.883 14.268 248.883 14.732C248.883 16.188 249.507 16.916 250.755 16.916C251.299 16.916 251.843 16.796 252.387 16.556C252.931 16.3 253.451 15.94 253.947 15.476C254.459 15.012 254.899 14.46 255.267 13.82L256.923 5.97199H259.035L256.923 15.908C256.907 15.972 256.891 16.028 256.875 16.076C256.875 16.124 256.875 16.172 256.875 16.22C256.875 16.508 257.051 16.66 257.403 16.676L257.019 18.5C256.843 18.516 256.683 18.532 256.539 18.548C256.411 18.58 256.291 18.596 256.179 18.596C255.747 18.596 255.419 18.5 255.195 18.308C254.971 18.116 254.859 17.86 254.859 17.54C254.859 17.444 254.867 17.332 254.883 17.204C254.899 17.06 254.923 16.876 254.955 16.652C255.003 16.428 255.059 16.148 255.123 15.812C254.403 16.74 253.555 17.46 252.579 17.972C251.603 18.484 250.603 18.74 249.579 18.74ZM261.009 16.748C261.009 16.636 261.017 16.524 261.033 16.412C261.049 16.284 261.065 16.164 261.081 16.052L262.881 7.62799H261.249L261.609 5.97199H263.217L264.105 1.79599H266.217L265.329 5.97199H267.993L267.633 7.62799H264.993L263.337 15.404C263.321 15.468 263.305 15.532 263.289 15.596C263.289 15.644 263.289 15.7 263.289 15.764C263.289 16.1 263.393 16.348 263.601 16.508C263.809 16.652 264.065 16.724 264.369 16.724C264.641 16.724 264.897 16.692 265.137 16.628C265.393 16.548 265.617 16.468 265.809 16.388C266.001 16.308 266.145 16.244 266.241 16.196L266.361 17.876C266.169 18.004 265.913 18.132 265.593 18.26C265.273 18.388 264.913 18.484 264.513 18.548C264.113 18.628 263.697 18.668 263.265 18.668C262.625 18.668 262.089 18.516 261.657 18.212C261.225 17.892 261.009 17.404 261.009 16.748ZM278.216 0.979988H280.328L278.696 8.65999C279.352 7.76399 280.136 7.05999 281.048 6.54799C281.976 6.01999 282.912 5.75599 283.856 5.75599C284.56 5.75599 285.12 5.89199 285.536 6.16399C285.968 6.41999 286.272 6.77999 286.448 7.24399C286.64 7.70799 286.736 8.25199 286.736 8.87599C286.736 9.19599 286.712 9.53999 286.664 9.90799C286.632 10.26 286.576 10.628 286.496 11.012L284.912 18.5H282.8L284.288 11.492C284.352 11.172 284.4 10.884 284.432 10.628C284.464 10.356 284.48 10.1 284.48 9.85999C284.48 9.12399 284.32 8.57199 284 8.20399C283.696 7.83599 283.24 7.65199 282.632 7.65199C282.136 7.65199 281.6 7.79599 281.024 8.08399C280.464 8.37199 279.928 8.76399 279.416 9.25999C278.92 9.73999 278.52 10.3 278.216 10.94L276.608 18.5H274.496L278.216 0.979988ZM293.225 18.74C292.297 18.74 291.497 18.508 290.825 18.044C290.153 17.564 289.641 16.932 289.289 16.148C288.937 15.348 288.761 14.476 288.761 13.532C288.761 12.524 288.945 11.556 289.313 10.628C289.697 9.69999 290.209 8.87599 290.849 8.15599C291.505 7.41999 292.249 6.83599 293.081 6.40399C293.913 5.97199 294.785 5.75599 295.697 5.75599C296.657 5.75599 297.457 6.01999 298.097 6.54799C298.737 7.07599 299.185 7.71599 299.441 8.46799L299.993 5.97199H302.105L299.993 15.908C299.977 15.972 299.961 16.028 299.945 16.076C299.945 16.124 299.945 16.172 299.945 16.22C299.945 16.508 300.121 16.66 300.473 16.676L300.089 18.5C299.913 18.516 299.753 18.532 299.609 18.548C299.481 18.58 299.361 18.596 299.249 18.596C298.801 18.596 298.457 18.492 298.217 18.284C297.993 18.076 297.881 17.82 297.881 17.516C297.881 17.42 297.889 17.308 297.905 17.18C297.921 17.052 297.945 16.9 297.977 16.724C298.009 16.548 298.049 16.356 298.097 16.148C297.473 16.948 296.713 17.58 295.817 18.044C294.937 18.508 294.073 18.74 293.225 18.74ZM294.137 16.916C294.489 16.916 294.865 16.844 295.265 16.7C295.681 16.556 296.081 16.356 296.465 16.1C296.865 15.844 297.225 15.548 297.545 15.212C297.865 14.86 298.105 14.492 298.265 14.108L299.009 10.508C298.945 9.96399 298.761 9.47599 298.457 9.04399C298.153 8.59599 297.777 8.24399 297.329 7.98799C296.897 7.71599 296.433 7.57999 295.937 7.57999C295.265 7.57999 294.633 7.74799 294.041 8.08399C293.449 8.40399 292.921 8.83599 292.457 9.37999C292.009 9.92399 291.649 10.532 291.377 11.204C291.121 11.86 290.993 12.524 290.993 13.196C290.993 13.884 291.121 14.508 291.377 15.068C291.633 15.628 291.993 16.076 292.457 16.412C292.937 16.748 293.497 16.916 294.137 16.916ZM304.372 5.97199H306.556L307.972 16.652C308.612 15.756 309.212 14.868 309.772 13.988C310.332 13.092 310.844 12.204 311.308 11.324C311.772 10.428 312.18 9.53199 312.532 8.63599C312.9 7.73999 313.196 6.85199 313.42 5.97199H315.436C314.86 8.05199 313.988 10.14 312.82 12.236C311.652 14.316 310.26 16.404 308.644 18.5H306.364L304.372 5.97199ZM320.717 18.74C319.677 18.74 318.789 18.508 318.053 18.044C317.317 17.564 316.757 16.924 316.373 16.124C315.989 15.324 315.797 14.428 315.797 13.436C315.797 12.428 315.981 11.468 316.349 10.556C316.733 9.62799 317.269 8.80399 317.957 8.08399C318.645 7.36399 319.445 6.79599 320.357 6.37999C321.285 5.96399 322.293 5.75599 323.381 5.75599C324.197 5.75599 324.917 5.88399 325.541 6.13999C326.181 6.39599 326.677 6.77199 327.029 7.26799C327.381 7.76399 327.557 8.38799 327.557 9.13999C327.557 10.404 326.997 11.364 325.877 12.02C324.757 12.676 323.037 13.004 320.717 13.004C320.285 13.004 319.789 12.996 319.229 12.98C318.669 12.948 318.021 12.9 317.285 12.836L317.573 11.396C318.277 11.428 318.877 11.46 319.373 11.492C319.885 11.524 320.357 11.54 320.789 11.54C322.005 11.54 322.965 11.436 323.669 11.228C324.373 11.02 324.877 10.732 325.181 10.364C325.501 9.99599 325.661 9.57999 325.661 9.11599C325.661 8.69999 325.557 8.36399 325.349 8.10799C325.157 7.85199 324.877 7.65999 324.509 7.53199C324.157 7.40399 323.733 7.33999 323.237 7.33999C322.437 7.33999 321.709 7.50799 321.053 7.84399C320.413 8.17999 319.853 8.63599 319.373 9.21199C318.909 9.78799 318.549 10.444 318.293 11.18C318.053 11.9 317.933 12.652 317.933 13.436C317.933 14.092 318.045 14.708 318.269 15.284C318.493 15.844 318.837 16.3 319.301 16.652C319.765 16.988 320.349 17.156 321.053 17.156C321.789 17.156 322.509 16.972 323.213 16.604C323.917 16.22 324.469 15.708 324.869 15.068L326.573 15.572C326.189 16.18 325.685 16.724 325.061 17.204C324.437 17.684 323.749 18.06 322.997 18.332C322.261 18.604 321.501 18.74 320.717 18.74ZM337.376 5.97199H339.296L338.72 8.65999C339.152 8.06799 339.664 7.55599 340.256 7.12399C340.864 6.69199 341.512 6.35599 342.2 6.11599C342.888 5.87599 343.576 5.75599 344.264 5.75599C344.936 5.75599 345.472 5.88399 345.872 6.13999C346.272 6.37999 346.56 6.72399 346.736 7.17199C346.912 7.60399 347 8.11599 347 8.70799C347 9.05999 346.968 9.42799 346.904 9.81199C346.856 10.196 346.792 10.596 346.712 11.012L345.128 18.5H343.016L344.504 11.492C344.584 11.14 344.64 10.82 344.672 10.532C344.704 10.228 344.72 9.94799 344.72 9.69199C344.72 8.98799 344.576 8.47599 344.288 8.15599C344 7.81999 343.576 7.65199 343.016 7.65199C342.488 7.65199 341.928 7.79599 341.336 8.08399C340.744 8.37199 340.192 8.76399 339.68 9.25999C339.168 9.73999 338.752 10.3 338.432 10.94L336.824 18.5H334.712L337.376 5.97199ZM353.945 18.74C352.825 18.74 351.897 18.5 351.161 18.02C350.425 17.54 349.873 16.9 349.505 16.1C349.153 15.3 348.977 14.42 348.977 13.46C348.977 12.404 349.169 11.412 349.553 10.484C349.937 9.55599 350.465 8.73999 351.137 8.03599C351.825 7.31599 352.617 6.75599 353.513 6.35599C354.409 5.95599 355.361 5.75599 356.369 5.75599C357.489 5.75599 358.417 5.99599 359.153 6.47599C359.905 6.95599 360.465 7.59599 360.833 8.39599C361.201 9.19599 361.385 10.084 361.385 11.06C361.385 12.1 361.193 13.084 360.809 14.012C360.425 14.94 359.889 15.764 359.201 16.484C358.513 17.188 357.721 17.74 356.825 18.14C355.929 18.54 354.969 18.74 353.945 18.74ZM354.305 16.916C354.929 16.916 355.529 16.78 356.105 16.508C356.697 16.236 357.217 15.852 357.665 15.356C358.129 14.844 358.497 14.252 358.769 13.58C359.041 12.908 359.177 12.172 359.177 11.372C359.177 10.636 359.057 9.98799 358.817 9.42799C358.577 8.85199 358.225 8.40399 357.761 8.08399C357.297 7.74799 356.721 7.57999 356.033 7.57999C355.409 7.57999 354.809 7.72399 354.233 8.01199C353.657 8.28399 353.137 8.67599 352.673 9.18799C352.209 9.68399 351.841 10.276 351.569 10.964C351.297 11.636 351.161 12.372 351.161 13.172C351.161 13.892 351.281 14.54 351.521 15.116C351.761 15.676 352.113 16.116 352.577 16.436C353.057 16.756 353.633 16.916 354.305 16.916ZM371.518 5.97199H373.486L372.862 8.87599C373.47 8.01199 374.158 7.30799 374.926 6.76399C375.71 6.21999 376.486 5.94799 377.254 5.94799C377.398 5.94799 377.518 5.95599 377.614 5.97199C377.726 5.97199 377.814 5.97999 377.878 5.99599L377.494 7.81999C376.502 7.83599 375.566 8.10799 374.686 8.63599C373.806 9.14799 373.11 9.85999 372.598 10.772L370.966 18.5H368.854L371.518 5.97199ZM382.672 18.74C381.632 18.74 380.744 18.508 380.008 18.044C379.272 17.564 378.712 16.924 378.328 16.124C377.944 15.324 377.752 14.428 377.752 13.436C377.752 12.428 377.936 11.468 378.304 10.556C378.688 9.62799 379.224 8.80399 379.912 8.08399C380.6 7.36399 381.4 6.79599 382.312 6.37999C383.24 5.96399 384.248 5.75599 385.336 5.75599C386.152 5.75599 386.872 5.88399 387.496 6.13999C388.136 6.39599 388.632 6.77199 388.984 7.26799C389.336 7.76399 389.512 8.38799 389.512 9.13999C389.512 10.404 388.952 11.364 387.832 12.02C386.712 12.676 384.992 13.004 382.672 13.004C382.24 13.004 381.744 12.996 381.184 12.98C380.624 12.948 379.976 12.9 379.24 12.836L379.528 11.396C380.232 11.428 380.832 11.46 381.328 11.492C381.84 11.524 382.312 11.54 382.744 11.54C383.96 11.54 384.92 11.436 385.624 11.228C386.328 11.02 386.832 10.732 387.136 10.364C387.456 9.99599 387.616 9.57999 387.616 9.11599C387.616 8.69999 387.512 8.36399 387.304 8.10799C387.112 7.85199 386.832 7.65999 386.464 7.53199C386.112 7.40399 385.688 7.33999 385.192 7.33999C384.392 7.33999 383.664 7.50799 383.008 7.84399C382.368 8.17999 381.808 8.63599 381.328 9.21199C380.864 9.78799 380.504 10.444 380.248 11.18C380.008 11.9 379.888 12.652 379.888 13.436C379.888 14.092 380 14.708 380.224 15.284C380.448 15.844 380.792 16.3 381.256 16.652C381.72 16.988 382.304 17.156 383.008 17.156C383.744 17.156 384.464 16.972 385.168 16.604C385.872 16.22 386.424 15.708 386.824 15.068L388.528 15.572C388.144 16.18 387.64 16.724 387.016 17.204C386.392 17.684 385.704 18.06 384.952 18.332C384.216 18.604 383.456 18.74 382.672 18.74ZM394.314 23.852C392.97 23.852 391.922 23.604 391.17 23.108C390.418 22.612 389.85 21.94 389.466 21.092L390.906 20.012C391.226 20.748 391.714 21.3 392.37 21.668C393.042 22.036 393.802 22.22 394.65 22.22C395.37 22.22 396.058 22.076 396.714 21.788C397.386 21.516 397.97 21.092 398.466 20.516C398.962 19.94 399.298 19.22 399.474 18.356L399.93 16.148C399.338 16.916 398.61 17.524 397.746 17.972C396.898 18.42 396.05 18.644 395.202 18.644C394.306 18.644 393.53 18.412 392.874 17.948C392.234 17.468 391.746 16.844 391.41 16.076C391.074 15.292 390.906 14.444 390.906 13.532C390.906 12.524 391.09 11.556 391.458 10.628C391.842 9.69999 392.362 8.87599 393.018 8.15599C393.674 7.41999 394.426 6.83599 395.274 6.40399C396.138 5.97199 397.042 5.75599 397.986 5.75599C398.978 5.75599 399.778 6.01199 400.386 6.52399C401.01 7.03599 401.49 7.68399 401.826 8.46799L402.354 5.97199H404.226L401.586 18.356C401.346 19.54 400.866 20.54 400.146 21.356C399.426 22.172 398.554 22.788 397.53 23.204C396.522 23.636 395.45 23.852 394.314 23.852ZM396.234 16.916C396.65 16.916 397.066 16.836 397.482 16.676C397.914 16.516 398.314 16.308 398.682 16.052C399.066 15.78 399.402 15.476 399.69 15.14C399.994 14.804 400.226 14.46 400.386 14.108L401.154 10.508C401.074 9.93199 400.882 9.42799 400.578 8.99599C400.274 8.54799 399.898 8.20399 399.45 7.96399C399.018 7.70799 398.546 7.57999 398.034 7.57999C397.346 7.57999 396.706 7.74799 396.114 8.08399C395.522 8.41999 394.994 8.86799 394.53 9.42799C394.082 9.97199 393.73 10.572 393.474 11.228C393.218 11.884 393.09 12.54 393.09 13.196C393.09 13.868 393.218 14.492 393.474 15.068C393.746 15.628 394.114 16.076 394.578 16.412C395.058 16.748 395.61 16.916 396.234 16.916ZM407.769 5.97199H409.737L409.113 8.87599C409.721 8.01199 410.409 7.30799 411.177 6.76399C411.961 6.21999 412.737 5.94799 413.505 5.94799C413.649 5.94799 413.769 5.95599 413.865 5.97199C413.977 5.97199 414.065 5.97999 414.129 5.99599L413.745 7.81999C412.753 7.83599 411.817 8.10799 410.937 8.63599C410.057 9.14799 409.361 9.85999 408.849 10.772L407.217 18.5H405.105L407.769 5.97199ZM418.924 18.74C417.884 18.74 416.996 18.508 416.26 18.044C415.524 17.564 414.964 16.924 414.58 16.124C414.196 15.324 414.004 14.428 414.004 13.436C414.004 12.428 414.188 11.468 414.556 10.556C414.94 9.62799 415.476 8.80399 416.164 8.08399C416.852 7.36399 417.652 6.79599 418.564 6.37999C419.492 5.96399 420.5 5.75599 421.588 5.75599C422.404 5.75599 423.124 5.88399 423.748 6.13999C424.388 6.39599 424.884 6.77199 425.236 7.26799C425.588 7.76399 425.764 8.38799 425.764 9.13999C425.764 10.404 425.204 11.364 424.084 12.02C422.964 12.676 421.244 13.004 418.924 13.004C418.492 13.004 417.996 12.996 417.436 12.98C416.876 12.948 416.228 12.9 415.492 12.836L415.78 11.396C416.484 11.428 417.084 11.46 417.58 11.492C418.092 11.524 418.564 11.54 418.996 11.54C420.212 11.54 421.172 11.436 421.876 11.228C422.58 11.02 423.084 10.732 423.388 10.364C423.708 9.99599 423.868 9.57999 423.868 9.11599C423.868 8.69999 423.764 8.36399 423.556 8.10799C423.364 7.85199 423.084 7.65999 422.716 7.53199C422.364 7.40399 421.94 7.33999 421.444 7.33999C420.644 7.33999 419.916 7.50799 419.26 7.84399C418.62 8.17999 418.06 8.63599 417.58 9.21199C417.116 9.78799 416.756 10.444 416.5 11.18C416.26 11.9 416.14 12.652 416.14 13.436C416.14 14.092 416.252 14.708 416.476 15.284C416.7 15.844 417.044 16.3 417.508 16.652C417.972 16.988 418.556 17.156 419.26 17.156C419.996 17.156 420.716 16.972 421.42 16.604C422.124 16.22 422.676 15.708 423.076 15.068L424.78 15.572C424.396 16.18 423.892 16.724 423.268 17.204C422.644 17.684 421.956 18.06 421.204 18.332C420.468 18.604 419.708 18.74 418.924 18.74ZM427.664 16.748C427.664 16.636 427.672 16.524 427.688 16.412C427.704 16.284 427.72 16.164 427.736 16.052L429.536 7.62799H427.904L428.264 5.97199H429.872L430.76 1.79599H432.872L431.984 5.97199H434.648L434.288 7.62799H431.648L429.992 15.404C429.976 15.468 429.96 15.532 429.944 15.596C429.944 15.644 429.944 15.7 429.944 15.764C429.944 16.1 430.048 16.348 430.256 16.508C430.464 16.652 430.72 16.724 431.024 16.724C431.296 16.724 431.552 16.692 431.792 16.628C432.048 16.548 432.272 16.468 432.464 16.388C432.656 16.308 432.8 16.244 432.896 16.196L433.016 17.876C432.824 18.004 432.568 18.132 432.248 18.26C431.928 18.388 431.568 18.484 431.168 18.548C430.768 18.628 430.352 18.668 429.92 18.668C429.28 18.668 428.744 18.516 428.312 18.212C427.88 17.892 427.664 17.404 427.664 16.748ZM439.205 18.74C438.197 18.74 437.261 18.588 436.397 18.284C435.533 17.964 434.829 17.508 434.285 16.916L435.485 15.5C436.061 16.044 436.669 16.452 437.309 16.724C437.965 16.98 438.661 17.108 439.397 17.108C440.037 17.108 440.597 17.02 441.077 16.844C441.573 16.652 441.957 16.388 442.229 16.052C442.501 15.7 442.637 15.3 442.637 14.852C442.637 14.276 442.397 13.884 441.917 13.676C441.437 13.452 440.725 13.204 439.781 12.932C438.997 12.692 438.341 12.468 437.813 12.26C437.301 12.052 436.917 11.788 436.661 11.468C436.421 11.132 436.301 10.676 436.301 10.1C436.301 9.23599 436.541 8.48399 437.021 7.84399C437.501 7.18799 438.149 6.67599 438.965 6.30799C439.781 5.93999 440.701 5.75599 441.725 5.75599C442.669 5.75599 443.493 5.90799 444.197 6.21199C444.901 6.51599 445.477 6.91599 445.925 7.41199L444.701 8.68399C444.301 8.21999 443.853 7.88399 443.357 7.67599C442.861 7.46799 442.285 7.36399 441.629 7.36399C441.005 7.36399 440.445 7.45199 439.949 7.62799C439.469 7.78799 439.085 8.03599 438.797 8.37199C438.525 8.70799 438.389 9.12399 438.389 9.61999C438.389 10.116 438.565 10.468 438.917 10.676C439.269 10.868 439.885 11.084 440.765 11.324C441.629 11.564 442.357 11.82 442.949 12.092C443.557 12.348 444.013 12.668 444.317 13.052C444.621 13.436 444.773 13.948 444.773 14.588C444.773 15.372 444.541 16.076 444.077 16.7C443.629 17.324 442.989 17.82 442.157 18.188C441.325 18.556 440.341 18.74 439.205 18.74ZM6.31199 56.74C5.33599 56.74 4.51999 56.5 3.86399 56.02C3.22399 55.524 2.76799 54.9 2.49599 54.148L1.99199 56.5H0.119995L3.83999 38.98H5.952L4.36799 46.468C5.02399 45.652 5.76799 44.996 6.59999 44.5C7.44799 44.004 8.33599 43.756 9.26399 43.756C10.192 43.756 10.96 43.996 11.568 44.476C12.192 44.956 12.656 45.588 12.96 46.372C13.28 47.14 13.44 47.972 13.44 48.868C13.44 49.924 13.24 50.924 12.84 51.868C12.44 52.812 11.896 53.652 11.208 54.388C10.536 55.124 9.77599 55.7 8.92799 56.116C8.07999 56.532 7.20799 56.74 6.31199 56.74ZM6.23999 54.916C6.86399 54.916 7.472 54.764 8.064 54.46C8.656 54.14 9.184 53.716 9.64799 53.188C10.128 52.644 10.504 52.036 10.776 51.364C11.064 50.676 11.208 49.972 11.208 49.252C11.208 48.612 11.088 48.012 10.848 47.452C10.624 46.892 10.296 46.444 9.86399 46.108C9.43199 45.756 8.89599 45.58 8.25599 45.58C7.71199 45.58 7.16799 45.716 6.62399 45.988C6.09599 46.26 5.59999 46.62 5.13599 47.068C4.68799 47.5 4.28799 47.98 3.93599 48.508L3.16799 52.132C3.16799 52.644 3.30399 53.116 3.57599 53.548C3.86399 53.964 4.24 54.3 4.70399 54.556C5.16799 54.796 5.67999 54.916 6.23999 54.916ZM18.327 56.74C16.375 56.74 15.399 55.684 15.399 53.572C15.399 53.268 15.423 52.948 15.471 52.612C15.519 52.26 15.583 51.884 15.663 51.484L17.271 43.972H19.359L17.847 51.076C17.703 51.716 17.631 52.268 17.631 52.732C17.631 54.188 18.255 54.916 19.503 54.916C20.047 54.916 20.591 54.796 21.135 54.556C21.679 54.3 22.199 53.94 22.695 53.476C23.207 53.012 23.647 52.46 24.015 51.82L25.671 43.972H27.783L25.671 53.908C25.655 53.972 25.639 54.028 25.623 54.076C25.623 54.124 25.623 54.172 25.623 54.22C25.623 54.508 25.799 54.66 26.151 54.676L25.767 56.5C25.591 56.516 25.431 56.532 25.287 56.548C25.159 56.58 25.039 56.596 24.927 56.596C24.495 56.596 24.167 56.5 23.943 56.308C23.719 56.116 23.607 55.86 23.607 55.54C23.607 55.444 23.615 55.332 23.631 55.204C23.647 55.06 23.671 54.876 23.703 54.652C23.751 54.428 23.807 54.148 23.871 53.812C23.151 54.74 22.303 55.46 21.327 55.972C20.351 56.484 19.351 56.74 18.327 56.74ZM27.859 60.172C28.531 60.076 29.075 59.948 29.491 59.788C29.923 59.644 30.299 59.412 30.619 59.092C30.939 58.788 31.283 58.364 31.651 57.82L32.347 56.764L29.923 43.972H32.107L33.835 54.604L34.651 53.26C35.323 52.156 35.891 51.188 36.355 50.356C36.819 49.524 37.211 48.764 37.531 48.076C37.867 47.372 38.147 46.692 38.371 46.036C38.595 45.38 38.803 44.692 38.995 43.972H41.083C40.875 44.74 40.643 45.46 40.387 46.132C40.131 46.804 39.827 47.508 39.475 48.244C39.123 48.98 38.675 49.812 38.131 50.74C37.603 51.652 36.939 52.748 36.139 54.028L34.219 57.124C33.675 58.004 33.163 58.74 32.683 59.332C32.203 59.94 31.723 60.428 31.243 60.796C30.779 61.164 30.291 61.428 29.779 61.588C29.283 61.764 28.739 61.86 28.147 61.876L27.859 60.172ZM43.746 43.972H45.858L43.194 56.5H41.082L43.746 43.972ZM44.802 38.98H46.914L46.362 41.62H44.25L44.802 38.98ZM49.4 43.972H51.32L50.744 46.66C51.176 46.068 51.688 45.556 52.28 45.124C52.888 44.692 53.536 44.356 54.224 44.116C54.912 43.876 55.6 43.756 56.288 43.756C56.96 43.756 57.496 43.884 57.896 44.14C58.296 44.38 58.584 44.724 58.76 45.172C58.936 45.604 59.024 46.116 59.024 46.708C59.024 47.06 58.992 47.428 58.928 47.812C58.88 48.196 58.816 48.596 58.736 49.012L57.152 56.5H55.04L56.528 49.492C56.608 49.14 56.664 48.82 56.696 48.532C56.728 48.228 56.744 47.948 56.744 47.692C56.744 46.988 56.6 46.476 56.312 46.156C56.024 45.82 55.6 45.652 55.04 45.652C54.512 45.652 53.952 45.796 53.36 46.084C52.768 46.372 52.216 46.764 51.704 47.26C51.192 47.74 50.776 48.3 50.456 48.94L48.848 56.5H46.736L49.4 43.972ZM64.409 61.852C63.065 61.852 62.017 61.604 61.265 61.108C60.513 60.612 59.945 59.94 59.561 59.092L61.001 58.012C61.321 58.748 61.809 59.3 62.465 59.668C63.137 60.036 63.897 60.22 64.745 60.22C65.465 60.22 66.153 60.076 66.809 59.788C67.481 59.516 68.065 59.092 68.561 58.516C69.057 57.94 69.393 57.22 69.569 56.356L70.025 54.148C69.433 54.916 68.705 55.524 67.841 55.972C66.993 56.42 66.145 56.644 65.297 56.644C64.401 56.644 63.625 56.412 62.969 55.948C62.329 55.468 61.841 54.844 61.505 54.076C61.169 53.292 61.001 52.444 61.001 51.532C61.001 50.524 61.185 49.556 61.553 48.628C61.937 47.7 62.457 46.876 63.113 46.156C63.769 45.42 64.521 44.836 65.369 44.404C66.233 43.972 67.137 43.756 68.081 43.756C69.073 43.756 69.873 44.012 70.481 44.524C71.105 45.036 71.585 45.684 71.921 46.468L72.449 43.972H74.321L71.681 56.356C71.441 57.54 70.961 58.54 70.241 59.356C69.521 60.172 68.649 60.788 67.625 61.204C66.617 61.636 65.545 61.852 64.409 61.852ZM66.329 54.916C66.745 54.916 67.161 54.836 67.577 54.676C68.009 54.516 68.409 54.308 68.777 54.052C69.161 53.78 69.497 53.476 69.785 53.14C70.089 52.804 70.321 52.46 70.481 52.108L71.249 48.508C71.169 47.932 70.977 47.428 70.673 46.996C70.369 46.548 69.993 46.204 69.545 45.964C69.113 45.708 68.641 45.58 68.129 45.58C67.441 45.58 66.801 45.748 66.209 46.084C65.617 46.42 65.089 46.868 64.625 47.428C64.177 47.972 63.825 48.572 63.569 49.228C63.313 49.884 63.185 50.54 63.185 51.196C63.185 51.868 63.313 52.492 63.569 53.068C63.841 53.628 64.209 54.076 64.673 54.412C65.153 54.748 65.705 54.916 66.329 54.916ZM84.034 43.972H86.146L83.482 56.5H81.37L84.034 43.972ZM85.09 38.98H87.202L86.65 41.62H84.538L85.09 38.98ZM88.056 54.748C88.056 54.636 88.064 54.524 88.08 54.412C88.096 54.284 88.112 54.164 88.128 54.052L89.928 45.628H88.296L88.656 43.972H90.264L91.152 39.796H93.264L92.376 43.972H95.04L94.68 45.628H92.04L90.384 53.404C90.368 53.468 90.352 53.532 90.336 53.596C90.336 53.644 90.336 53.7 90.336 53.764C90.336 54.1 90.44 54.348 90.648 54.508C90.856 54.652 91.112 54.724 91.416 54.724C91.688 54.724 91.944 54.692 92.184 54.628C92.44 54.548 92.664 54.468 92.856 54.388C93.048 54.308 93.192 54.244 93.288 54.196L93.408 55.876C93.216 56.004 92.96 56.132 92.64 56.26C92.32 56.388 91.96 56.484 91.56 56.548C91.16 56.628 90.744 56.668 90.312 56.668C89.672 56.668 89.136 56.516 88.704 56.212C88.272 55.892 88.056 55.404 88.056 54.748ZM96.982 50.74L99.406 39.292H101.518L99.094 50.74H96.982ZM95.758 56.5L96.382 53.524H98.494L97.87 56.5H95.758ZM111.955 39.46H122.755L122.347 41.38H113.707L112.531 46.9H120.043L119.659 48.7H112.147L110.899 54.58H119.755L119.347 56.5H108.331L111.955 39.46ZM123.24 43.972H125.424L126.84 54.652C127.48 53.756 128.08 52.868 128.64 51.988C129.2 51.092 129.712 50.204 130.176 49.324C130.64 48.428 131.048 47.532 131.4 46.636C131.768 45.74 132.064 44.852 132.288 43.972H134.304C133.728 46.052 132.856 48.14 131.688 50.236C130.52 52.316 129.128 54.404 127.512 56.5H125.232L123.24 43.972ZM139.584 56.74C138.544 56.74 137.656 56.508 136.92 56.044C136.184 55.564 135.624 54.924 135.24 54.124C134.856 53.324 134.664 52.428 134.664 51.436C134.664 50.428 134.848 49.468 135.216 48.556C135.6 47.628 136.136 46.804 136.824 46.084C137.512 45.364 138.312 44.796 139.224 44.38C140.152 43.964 141.16 43.756 142.248 43.756C143.064 43.756 143.784 43.884 144.408 44.14C145.048 44.396 145.544 44.772 145.896 45.268C146.248 45.764 146.424 46.388 146.424 47.14C146.424 48.404 145.864 49.364 144.744 50.02C143.624 50.676 141.904 51.004 139.584 51.004C139.152 51.004 138.656 50.996 138.096 50.98C137.536 50.948 136.888 50.9 136.152 50.836L136.44 49.396C137.144 49.428 137.744 49.46 138.24 49.492C138.752 49.524 139.224 49.54 139.656 49.54C140.872 49.54 141.832 49.436 142.536 49.228C143.24 49.02 143.744 48.732 144.048 48.364C144.368 47.996 144.528 47.58 144.528 47.116C144.528 46.7 144.424 46.364 144.216 46.108C144.024 45.852 143.744 45.66 143.376 45.532C143.024 45.404 142.6 45.34 142.104 45.34C141.304 45.34 140.576 45.508 139.92 45.844C139.28 46.18 138.72 46.636 138.24 47.212C137.776 47.788 137.416 48.444 137.16 49.18C136.92 49.9 136.8 50.652 136.8 51.436C136.8 52.092 136.912 52.708 137.136 53.284C137.36 53.844 137.704 54.3 138.168 54.652C138.632 54.988 139.216 55.156 139.92 55.156C140.656 55.156 141.376 54.972 142.08 54.604C142.784 54.22 143.336 53.708 143.736 53.068L145.44 53.572C145.056 54.18 144.552 54.724 143.928 55.204C143.304 55.684 142.616 56.06 141.864 56.332C141.128 56.604 140.368 56.74 139.584 56.74ZM150.074 43.972H152.042L151.418 46.876C152.026 46.012 152.714 45.308 153.482 44.764C154.266 44.22 155.042 43.948 155.81 43.948C155.954 43.948 156.074 43.956 156.17 43.972C156.282 43.972 156.37 43.98 156.434 43.996L156.05 45.82C155.058 45.836 154.122 46.108 153.242 46.636C152.362 47.148 151.666 47.86 151.154 48.772L149.522 56.5H147.41L150.074 43.972ZM155.174 60.172C155.846 60.076 156.39 59.948 156.806 59.788C157.238 59.644 157.614 59.412 157.934 59.092C158.254 58.788 158.598 58.364 158.966 57.82L159.662 56.764L157.238 43.972H159.422L161.15 54.604L161.966 53.26C162.638 52.156 163.206 51.188 163.67 50.356C164.134 49.524 164.526 48.764 164.846 48.076C165.182 47.372 165.462 46.692 165.686 46.036C165.91 45.38 166.118 44.692 166.31 43.972H168.398C168.19 44.74 167.958 45.46 167.702 46.132C167.446 46.804 167.142 47.508 166.79 48.244C166.438 48.98 165.99 49.812 165.446 50.74C164.918 51.652 164.254 52.748 163.454 54.028L161.534 57.124C160.99 58.004 160.478 58.74 159.998 59.332C159.518 59.94 159.038 60.428 158.558 60.796C158.094 61.164 157.606 61.428 157.094 61.588C156.598 61.764 156.054 61.86 155.462 61.876L155.174 60.172ZM178.346 56.74C177.338 56.74 176.402 56.588 175.538 56.284C174.674 55.964 173.97 55.508 173.426 54.916L174.626 53.5C175.202 54.044 175.81 54.452 176.45 54.724C177.106 54.98 177.802 55.108 178.538 55.108C179.178 55.108 179.738 55.02 180.218 54.844C180.714 54.652 181.098 54.388 181.37 54.052C181.642 53.7 181.778 53.3 181.778 52.852C181.778 52.276 181.538 51.884 181.058 51.676C180.578 51.452 179.866 51.204 178.922 50.932C178.138 50.692 177.482 50.468 176.954 50.26C176.442 50.052 176.058 49.788 175.802 49.468C175.562 49.132 175.442 48.676 175.442 48.1C175.442 47.236 175.682 46.484 176.162 45.844C176.642 45.188 177.29 44.676 178.106 44.308C178.922 43.94 179.842 43.756 180.866 43.756C181.81 43.756 182.634 43.908 183.338 44.212C184.042 44.516 184.618 44.916 185.066 45.412L183.842 46.684C183.442 46.22 182.994 45.884 182.498 45.676C182.002 45.468 181.426 45.364 180.77 45.364C180.146 45.364 179.586 45.452 179.09 45.628C178.61 45.788 178.226 46.036 177.938 46.372C177.666 46.708 177.53 47.124 177.53 47.62C177.53 48.116 177.706 48.468 178.058 48.676C178.41 48.868 179.026 49.084 179.906 49.324C180.77 49.564 181.498 49.82 182.09 50.092C182.698 50.348 183.154 50.668 183.458 51.052C183.762 51.436 183.914 51.948 183.914 52.588C183.914 53.372 183.682 54.076 183.218 54.7C182.77 55.324 182.13 55.82 181.298 56.188C180.466 56.556 179.482 56.74 178.346 56.74ZM188.417 43.972H190.529L187.865 56.5H185.753L188.417 43.972ZM189.473 38.98H191.585L191.033 41.62H188.921L189.473 38.98ZM194.071 43.972H195.991L195.415 46.66C195.847 46.068 196.359 45.556 196.951 45.124C197.559 44.692 198.207 44.356 198.895 44.116C199.583 43.876 200.271 43.756 200.959 43.756C201.631 43.756 202.167 43.884 202.567 44.14C202.967 44.38 203.255 44.724 203.431 45.172C203.607 45.604 203.695 46.116 203.695 46.708C203.695 47.06 203.663 47.428 203.599 47.812C203.551 48.196 203.487 48.596 203.407 49.012L201.823 56.5H199.711L201.199 49.492C201.279 49.14 201.335 48.82 201.367 48.532C201.399 48.228 201.415 47.948 201.415 47.692C201.415 46.988 201.271 46.476 200.983 46.156C200.695 45.82 200.271 45.652 199.711 45.652C199.183 45.652 198.623 45.796 198.031 46.084C197.439 46.372 196.887 46.764 196.375 47.26C195.863 47.74 195.447 48.3 195.127 48.94L193.519 56.5H191.407L194.071 43.972ZM209.08 61.852C207.736 61.852 206.688 61.604 205.936 61.108C205.184 60.612 204.616 59.94 204.232 59.092L205.672 58.012C205.992 58.748 206.48 59.3 207.136 59.668C207.808 60.036 208.568 60.22 209.416 60.22C210.136 60.22 210.824 60.076 211.48 59.788C212.152 59.516 212.736 59.092 213.232 58.516C213.728 57.94 214.064 57.22 214.24 56.356L214.696 54.148C214.104 54.916 213.376 55.524 212.512 55.972C211.664 56.42 210.816 56.644 209.968 56.644C209.072 56.644 208.296 56.412 207.64 55.948C207 55.468 206.512 54.844 206.176 54.076C205.84 53.292 205.672 52.444 205.672 51.532C205.672 50.524 205.856 49.556 206.224 48.628C206.608 47.7 207.128 46.876 207.784 46.156C208.44 45.42 209.192 44.836 210.04 44.404C210.904 43.972 211.808 43.756 212.752 43.756C213.744 43.756 214.544 44.012 215.152 44.524C215.776 45.036 216.256 45.684 216.592 46.468L217.12 43.972H218.992L216.352 56.356C216.112 57.54 215.632 58.54 214.912 59.356C214.192 60.172 213.32 60.788 212.296 61.204C211.288 61.636 210.216 61.852 209.08 61.852ZM211 54.916C211.416 54.916 211.832 54.836 212.248 54.676C212.68 54.516 213.08 54.308 213.448 54.052C213.832 53.78 214.168 53.476 214.456 53.14C214.76 52.804 214.992 52.46 215.152 52.108L215.92 48.508C215.84 47.932 215.648 47.428 215.344 46.996C215.04 46.548 214.664 46.204 214.216 45.964C213.784 45.708 213.312 45.58 212.8 45.58C212.112 45.58 211.472 45.748 210.88 46.084C210.288 46.42 209.76 46.868 209.296 47.428C208.848 47.972 208.496 48.572 208.24 49.228C207.984 49.884 207.856 50.54 207.856 51.196C207.856 51.868 207.984 52.492 208.24 53.068C208.512 53.628 208.88 54.076 209.344 54.412C209.824 54.748 210.376 54.916 211 54.916ZM222.439 56.668C221.783 56.668 221.271 56.508 220.903 56.188C220.535 55.852 220.351 55.388 220.351 54.796C220.351 54.668 220.359 54.54 220.375 54.412C220.407 54.284 220.431 54.156 220.447 54.028L223.639 38.98H225.727L222.703 53.26C222.687 53.34 222.671 53.42 222.655 53.5C222.655 53.564 222.655 53.636 222.655 53.716C222.655 54.404 223.015 54.748 223.735 54.748C223.911 54.748 224.119 54.724 224.359 54.676C224.615 54.612 224.847 54.54 225.055 54.46L224.983 56.164C224.631 56.308 224.207 56.428 223.711 56.524C223.231 56.62 222.807 56.668 222.439 56.668ZM232.096 56.74C231.056 56.74 230.168 56.508 229.432 56.044C228.696 55.564 228.136 54.924 227.752 54.124C227.368 53.324 227.176 52.428 227.176 51.436C227.176 50.428 227.36 49.468 227.728 48.556C228.112 47.628 228.648 46.804 229.336 46.084C230.024 45.364 230.824 44.796 231.736 44.38C232.664 43.964 233.672 43.756 234.76 43.756C235.576 43.756 236.296 43.884 236.92 44.14C237.56 44.396 238.056 44.772 238.408 45.268C238.76 45.764 238.936 46.388 238.936 47.14C238.936 48.404 238.376 49.364 237.256 50.02C236.136 50.676 234.416 51.004 232.096 51.004C231.664 51.004 231.168 50.996 230.608 50.98C230.048 50.948 229.4 50.9 228.664 50.836L228.952 49.396C229.656 49.428 230.256 49.46 230.752 49.492C231.264 49.524 231.736 49.54 232.168 49.54C233.384 49.54 234.344 49.436 235.048 49.228C235.752 49.02 236.256 48.732 236.56 48.364C236.88 47.996 237.04 47.58 237.04 47.116C237.04 46.7 236.936 46.364 236.728 46.108C236.536 45.852 236.256 45.66 235.888 45.532C235.536 45.404 235.112 45.34 234.616 45.34C233.816 45.34 233.088 45.508 232.432 45.844C231.792 46.18 231.232 46.636 230.752 47.212C230.288 47.788 229.928 48.444 229.672 49.18C229.432 49.9 229.312 50.652 229.312 51.436C229.312 52.092 229.424 52.708 229.648 53.284C229.872 53.844 230.216 54.3 230.68 54.652C231.144 54.988 231.728 55.156 232.432 55.156C233.168 55.156 233.888 54.972 234.592 54.604C235.296 54.22 235.848 53.708 236.248 53.068L237.952 53.572C237.568 54.18 237.064 54.724 236.44 55.204C235.816 55.684 235.128 56.06 234.376 56.332C233.64 56.604 232.88 56.74 232.096 56.74ZM247.123 54.748C247.123 54.636 247.131 54.524 247.147 54.412C247.163 54.284 247.179 54.164 247.195 54.052L248.995 45.628H247.363L247.723 43.972H249.331L250.219 39.796H252.331L251.443 43.972H254.107L253.747 45.628H251.107L249.451 53.404C249.435 53.468 249.419 53.532 249.403 53.596C249.403 53.644 249.403 53.7 249.403 53.764C249.403 54.1 249.507 54.348 249.715 54.508C249.923 54.652 250.179 54.724 250.483 54.724C250.755 54.724 251.011 54.692 251.251 54.628C251.507 54.548 251.731 54.468 251.923 54.388C252.115 54.308 252.259 54.244 252.355 54.196L252.475 55.876C252.283 56.004 252.027 56.132 251.707 56.26C251.387 56.388 251.027 56.484 250.627 56.548C250.227 56.628 249.811 56.668 249.379 56.668C248.739 56.668 248.203 56.516 247.771 56.212C247.339 55.892 247.123 55.404 247.123 54.748ZM257.104 43.972H259.216L256.552 56.5H254.44L257.104 43.972ZM258.16 38.98H260.272L259.72 41.62H257.608L258.16 38.98ZM262.758 43.972H264.678L264.102 46.66C264.742 45.764 265.51 45.06 266.406 44.548C267.302 44.02 268.214 43.756 269.142 43.756C269.766 43.756 270.286 43.876 270.702 44.116C271.134 44.356 271.462 44.7 271.686 45.148C271.91 45.596 272.03 46.148 272.046 46.804C272.542 46.132 273.062 45.572 273.606 45.124C274.15 44.676 274.726 44.34 275.334 44.116C275.942 43.876 276.558 43.756 277.182 43.756C277.87 43.756 278.414 43.884 278.814 44.14C279.214 44.396 279.502 44.756 279.678 45.22C279.87 45.668 279.966 46.196 279.966 46.804C279.966 47.14 279.942 47.492 279.894 47.86C279.846 48.228 279.782 48.612 279.702 49.012L278.094 56.5H275.982L277.47 49.492C277.614 48.82 277.686 48.236 277.686 47.74C277.686 47.036 277.534 46.516 277.23 46.18C276.942 45.828 276.518 45.652 275.958 45.652C275.43 45.652 274.902 45.796 274.374 46.084C273.846 46.356 273.35 46.74 272.886 47.236C272.438 47.732 272.054 48.308 271.734 48.964L270.15 56.5H268.038L269.526 49.492C269.606 49.14 269.662 48.82 269.694 48.532C269.726 48.244 269.742 47.972 269.742 47.716C269.742 47.012 269.598 46.492 269.31 46.156C269.022 45.82 268.598 45.652 268.038 45.652C267.254 45.652 266.47 45.956 265.686 46.564C264.918 47.156 264.294 47.948 263.814 48.94L262.206 56.5H260.094L262.758 43.972ZM286.874 56.74C285.834 56.74 284.946 56.508 284.21 56.044C283.474 55.564 282.914 54.924 282.53 54.124C282.146 53.324 281.954 52.428 281.954 51.436C281.954 50.428 282.138 49.468 282.506 48.556C282.89 47.628 283.426 46.804 284.114 46.084C284.802 45.364 285.602 44.796 286.514 44.38C287.442 43.964 288.45 43.756 289.538 43.756C290.354 43.756 291.074 43.884 291.698 44.14C292.338 44.396 292.834 44.772 293.186 45.268C293.538 45.764 293.714 46.388 293.714 47.14C293.714 48.404 293.154 49.364 292.034 50.02C290.914 50.676 289.194 51.004 286.874 51.004C286.442 51.004 285.946 50.996 285.386 50.98C284.826 50.948 284.178 50.9 283.442 50.836L283.73 49.396C284.434 49.428 285.034 49.46 285.53 49.492C286.042 49.524 286.514 49.54 286.946 49.54C288.162 49.54 289.122 49.436 289.826 49.228C290.53 49.02 291.034 48.732 291.338 48.364C291.658 47.996 291.818 47.58 291.818 47.116C291.818 46.7 291.714 46.364 291.506 46.108C291.314 45.852 291.034 45.66 290.666 45.532C290.314 45.404 289.89 45.34 289.394 45.34C288.594 45.34 287.866 45.508 287.21 45.844C286.57 46.18 286.01 46.636 285.53 47.212C285.066 47.788 284.706 48.444 284.45 49.18C284.21 49.9 284.09 50.652 284.09 51.436C284.09 52.092 284.202 52.708 284.426 53.284C284.65 53.844 284.994 54.3 285.458 54.652C285.922 54.988 286.506 55.156 287.21 55.156C287.946 55.156 288.666 54.972 289.37 54.604C290.074 54.22 290.626 53.708 291.026 53.068L292.73 53.572C292.346 54.18 291.842 54.724 291.218 55.204C290.594 55.684 289.906 56.06 289.154 56.332C288.418 56.604 287.658 56.74 286.874 56.74ZM301.222 43.972H303.406L305.398 54.652C305.91 53.996 306.398 53.34 306.862 52.684C307.326 52.012 307.758 51.348 308.158 50.692L306.478 43.972H308.662L309.622 48.028C309.958 47.356 310.254 46.684 310.51 46.012C310.782 45.324 311.006 44.644 311.182 43.972H313.198C312.894 45.076 312.486 46.188 311.974 47.308C311.478 48.412 310.902 49.516 310.246 50.62L311.23 54.652C311.742 53.948 312.23 53.244 312.694 52.54C313.158 51.82 313.59 51.1 313.99 50.38C314.39 49.66 314.758 48.948 315.094 48.244C315.446 47.524 315.75 46.812 316.006 46.108C316.278 45.388 316.502 44.676 316.678 43.972H318.694C318.118 46.052 317.246 48.14 316.078 50.236C314.91 52.316 313.518 54.404 311.902 56.5H309.622L308.734 52.972C308.334 53.564 307.91 54.156 307.462 54.748C307.014 55.324 306.55 55.908 306.07 56.5H303.79L301.222 43.972ZM323.969 56.74C322.929 56.74 322.041 56.508 321.305 56.044C320.569 55.564 320.009 54.924 319.625 54.124C319.241 53.324 319.049 52.428 319.049 51.436C319.049 50.428 319.233 49.468 319.601 48.556C319.985 47.628 320.521 46.804 321.209 46.084C321.897 45.364 322.697 44.796 323.609 44.38C324.537 43.964 325.545 43.756 326.633 43.756C327.449 43.756 328.169 43.884 328.793 44.14C329.433 44.396 329.929 44.772 330.281 45.268C330.633 45.764 330.809 46.388 330.809 47.14C330.809 48.404 330.249 49.364 329.129 50.02C328.009 50.676 326.289 51.004 323.969 51.004C323.537 51.004 323.041 50.996 322.481 50.98C321.921 50.948 321.273 50.9 320.537 50.836L320.825 49.396C321.529 49.428 322.129 49.46 322.625 49.492C323.137 49.524 323.609 49.54 324.041 49.54C325.257 49.54 326.217 49.436 326.921 49.228C327.625 49.02 328.129 48.732 328.433 48.364C328.753 47.996 328.913 47.58 328.913 47.116C328.913 46.7 328.809 46.364 328.601 46.108C328.409 45.852 328.129 45.66 327.761 45.532C327.409 45.404 326.985 45.34 326.489 45.34C325.689 45.34 324.961 45.508 324.305 45.844C323.665 46.18 323.105 46.636 322.625 47.212C322.161 47.788 321.801 48.444 321.545 49.18C321.305 49.9 321.185 50.652 321.185 51.436C321.185 52.092 321.297 52.708 321.521 53.284C321.745 53.844 322.089 54.3 322.553 54.652C323.017 54.988 323.601 55.156 324.305 55.156C325.041 55.156 325.761 54.972 326.465 54.604C327.169 54.22 327.721 53.708 328.121 53.068L329.825 53.572C329.441 54.18 328.937 54.724 328.313 55.204C327.689 55.684 327.001 56.06 326.249 56.332C325.513 56.604 324.753 56.74 323.969 56.74ZM341.564 56.74C339.612 56.74 338.636 55.684 338.636 53.572C338.636 53.268 338.66 52.948 338.708 52.612C338.756 52.26 338.82 51.884 338.9 51.484L340.508 43.972H342.596L341.084 51.076C340.94 51.716 340.868 52.268 340.868 52.732C340.868 54.188 341.492 54.916 342.74 54.916C343.284 54.916 343.828 54.796 344.372 54.556C344.916 54.3 345.436 53.94 345.932 53.476C346.444 53.012 346.884 52.46 347.252 51.82L348.908 43.972H351.02L348.908 53.908C348.892 53.972 348.876 54.028 348.86 54.076C348.86 54.124 348.86 54.172 348.86 54.22C348.86 54.508 349.036 54.66 349.388 54.676L349.004 56.5C348.828 56.516 348.668 56.532 348.524 56.548C348.396 56.58 348.276 56.596 348.164 56.596C347.732 56.596 347.404 56.5 347.18 56.308C346.956 56.116 346.844 55.86 346.844 55.54C346.844 55.444 346.852 55.332 346.868 55.204C346.884 55.06 346.908 54.876 346.94 54.652C346.988 54.428 347.044 54.148 347.108 53.812C346.388 54.74 345.54 55.46 344.564 55.972C343.588 56.484 342.588 56.74 341.564 56.74ZM356.28 56.74C355.272 56.74 354.336 56.588 353.472 56.284C352.608 55.964 351.904 55.508 351.36 54.916L352.56 53.5C353.136 54.044 353.744 54.452 354.384 54.724C355.04 54.98 355.736 55.108 356.472 55.108C357.112 55.108 357.672 55.02 358.152 54.844C358.648 54.652 359.032 54.388 359.304 54.052C359.576 53.7 359.712 53.3 359.712 52.852C359.712 52.276 359.472 51.884 358.992 51.676C358.512 51.452 357.8 51.204 356.856 50.932C356.072 50.692 355.416 50.468 354.888 50.26C354.376 50.052 353.992 49.788 353.736 49.468C353.496 49.132 353.376 48.676 353.376 48.1C353.376 47.236 353.616 46.484 354.096 45.844C354.576 45.188 355.224 44.676 356.04 44.308C356.856 43.94 357.776 43.756 358.8 43.756C359.744 43.756 360.568 43.908 361.272 44.212C361.976 44.516 362.552 44.916 363 45.412L361.776 46.684C361.376 46.22 360.928 45.884 360.432 45.676C359.936 45.468 359.36 45.364 358.704 45.364C358.08 45.364 357.52 45.452 357.024 45.628C356.544 45.788 356.16 46.036 355.872 46.372C355.6 46.708 355.464 47.124 355.464 47.62C355.464 48.116 355.64 48.468 355.992 48.676C356.344 48.868 356.96 49.084 357.84 49.324C358.704 49.564 359.432 49.82 360.024 50.092C360.632 50.348 361.088 50.668 361.392 51.052C361.696 51.436 361.848 51.948 361.848 52.588C361.848 53.372 361.616 54.076 361.152 54.7C360.704 55.324 360.064 55.82 359.232 56.188C358.4 56.556 357.416 56.74 356.28 56.74ZM369.038 56.74C367.998 56.74 367.11 56.508 366.374 56.044C365.638 55.564 365.078 54.924 364.694 54.124C364.31 53.324 364.118 52.428 364.118 51.436C364.118 50.428 364.302 49.468 364.67 48.556C365.054 47.628 365.59 46.804 366.278 46.084C366.966 45.364 367.766 44.796 368.678 44.38C369.606 43.964 370.614 43.756 371.702 43.756C372.518 43.756 373.238 43.884 373.862 44.14C374.502 44.396 374.998 44.772 375.35 45.268C375.702 45.764 375.878 46.388 375.878 47.14C375.878 48.404 375.318 49.364 374.198 50.02C373.078 50.676 371.358 51.004 369.038 51.004C368.606 51.004 368.11 50.996 367.55 50.98C366.99 50.948 366.342 50.9 365.606 50.836L365.894 49.396C366.598 49.428 367.198 49.46 367.694 49.492C368.206 49.524 368.678 49.54 369.11 49.54C370.326 49.54 371.286 49.436 371.99 49.228C372.694 49.02 373.198 48.732 373.502 48.364C373.822 47.996 373.982 47.58 373.982 47.116C373.982 46.7 373.878 46.364 373.67 46.108C373.478 45.852 373.198 45.66 372.83 45.532C372.478 45.404 372.054 45.34 371.558 45.34C370.758 45.34 370.03 45.508 369.374 45.844C368.734 46.18 368.174 46.636 367.694 47.212C367.23 47.788 366.87 48.444 366.614 49.18C366.374 49.9 366.254 50.652 366.254 51.436C366.254 52.092 366.366 52.708 366.59 53.284C366.814 53.844 367.158 54.3 367.622 54.652C368.086 54.988 368.67 55.156 369.374 55.156C370.11 55.156 370.83 54.972 371.534 54.604C372.238 54.22 372.79 53.708 373.19 53.068L374.894 53.572C374.51 54.18 374.006 54.724 373.382 55.204C372.758 55.684 372.07 56.06 371.318 56.332C370.582 56.604 369.822 56.74 369.038 56.74ZM384.065 54.748C384.065 54.636 384.073 54.524 384.089 54.412C384.105 54.284 384.121 54.164 384.137 54.052L385.937 45.628H384.305L384.665 43.972H386.273L387.161 39.796H389.273L388.385 43.972H391.049L390.689 45.628H388.049L386.393 53.404C386.377 53.468 386.361 53.532 386.345 53.596C386.345 53.644 386.345 53.7 386.345 53.764C386.345 54.1 386.449 54.348 386.657 54.508C386.865 54.652 387.121 54.724 387.425 54.724C387.697 54.724 387.953 54.692 388.193 54.628C388.449 54.548 388.673 54.468 388.865 54.388C389.057 54.308 389.201 54.244 389.297 54.196L389.417 55.876C389.225 56.004 388.969 56.132 388.649 56.26C388.329 56.388 387.969 56.484 387.569 56.548C387.169 56.628 386.753 56.668 386.321 56.668C385.681 56.668 385.145 56.516 384.713 56.212C384.281 55.892 384.065 55.404 384.065 54.748ZM395.103 38.98H397.215L395.583 46.66C396.239 45.764 397.023 45.06 397.935 44.548C398.863 44.02 399.799 43.756 400.743 43.756C401.447 43.756 402.007 43.892 402.423 44.164C402.855 44.42 403.159 44.78 403.335 45.244C403.527 45.708 403.623 46.252 403.623 46.876C403.623 47.196 403.599 47.54 403.551 47.908C403.519 48.26 403.463 48.628 403.383 49.012L401.799 56.5H399.687L401.175 49.492C401.239 49.172 401.287 48.884 401.319 48.628C401.351 48.356 401.367 48.1 401.367 47.86C401.367 47.124 401.207 46.572 400.887 46.204C400.583 45.836 400.127 45.652 399.519 45.652C399.023 45.652 398.487 45.796 397.911 46.084C397.351 46.372 396.815 46.764 396.303 47.26C395.807 47.74 395.407 48.3 395.103 48.94L393.495 56.5H391.383L395.103 38.98ZM410.592 56.74C409.552 56.74 408.664 56.508 407.928 56.044C407.192 55.564 406.632 54.924 406.248 54.124C405.864 53.324 405.672 52.428 405.672 51.436C405.672 50.428 405.856 49.468 406.224 48.556C406.608 47.628 407.144 46.804 407.832 46.084C408.52 45.364 409.32 44.796 410.232 44.38C411.16 43.964 412.168 43.756 413.256 43.756C414.072 43.756 414.792 43.884 415.416 44.14C416.056 44.396 416.552 44.772 416.904 45.268C417.256 45.764 417.432 46.388 417.432 47.14C417.432 48.404 416.872 49.364 415.752 50.02C414.632 50.676 412.912 51.004 410.592 51.004C410.16 51.004 409.664 50.996 409.104 50.98C408.544 50.948 407.896 50.9 407.16 50.836L407.448 49.396C408.152 49.428 408.752 49.46 409.248 49.492C409.76 49.524 410.232 49.54 410.664 49.54C411.88 49.54 412.84 49.436 413.544 49.228C414.248 49.02 414.752 48.732 415.056 48.364C415.376 47.996 415.536 47.58 415.536 47.116C415.536 46.7 415.432 46.364 415.224 46.108C415.032 45.852 414.752 45.66 414.384 45.532C414.032 45.404 413.608 45.34 413.112 45.34C412.312 45.34 411.584 45.508 410.928 45.844C410.288 46.18 409.728 46.636 409.248 47.212C408.784 47.788 408.424 48.444 408.168 49.18C407.928 49.9 407.808 50.652 407.808 51.436C407.808 52.092 407.92 52.708 408.144 53.284C408.368 53.844 408.712 54.3 409.176 54.652C409.64 54.988 410.224 55.156 410.928 55.156C411.664 55.156 412.384 54.972 413.088 54.604C413.792 54.22 414.344 53.708 414.744 53.068L416.448 53.572C416.064 54.18 415.56 54.724 414.936 55.204C414.312 55.684 413.624 56.06 412.872 56.332C412.136 56.604 411.376 56.74 410.592 56.74ZM422.641 56.74C421.633 56.74 420.697 56.588 419.833 56.284C418.969 55.964 418.265 55.508 417.721 54.916L418.921 53.5C419.497 54.044 420.105 54.452 420.745 54.724C421.401 54.98 422.097 55.108 422.833 55.108C423.473 55.108 424.033 55.02 424.513 54.844C425.009 54.652 425.393 54.388 425.665 54.052C425.937 53.7 426.073 53.3 426.073 52.852C426.073 52.276 425.833 51.884 425.353 51.676C424.873 51.452 424.161 51.204 423.217 50.932C422.433 50.692 421.777 50.468 421.249 50.26C420.737 50.052 420.353 49.788 420.097 49.468C419.857 49.132 419.737 48.676 419.737 48.1C419.737 47.236 419.977 46.484 420.457 45.844C420.937 45.188 421.585 44.676 422.401 44.308C423.217 43.94 424.137 43.756 425.161 43.756C426.105 43.756 426.929 43.908 427.633 44.212C428.337 44.516 428.913 44.916 429.361 45.412L428.137 46.684C427.737 46.22 427.289 45.884 426.793 45.676C426.297 45.468 425.721 45.364 425.065 45.364C424.441 45.364 423.881 45.452 423.385 45.628C422.905 45.788 422.521 46.036 422.233 46.372C421.961 46.708 421.825 47.124 421.825 47.62C421.825 48.116 422.001 48.468 422.353 48.676C422.705 48.868 423.321 49.084 424.201 49.324C425.065 49.564 425.793 49.82 426.385 50.092C426.993 50.348 427.449 50.668 427.753 51.052C428.057 51.436 428.209 51.948 428.209 52.588C428.209 53.372 427.977 54.076 427.513 54.7C427.065 55.324 426.425 55.82 425.593 56.188C424.761 56.556 423.777 56.74 422.641 56.74ZM435.4 56.74C434.36 56.74 433.472 56.508 432.736 56.044C432 55.564 431.44 54.924 431.056 54.124C430.672 53.324 430.48 52.428 430.48 51.436C430.48 50.428 430.664 49.468 431.032 48.556C431.416 47.628 431.952 46.804 432.64 46.084C433.328 45.364 434.128 44.796 435.04 44.38C435.968 43.964 436.976 43.756 438.064 43.756C438.88 43.756 439.6 43.884 440.224 44.14C440.864 44.396 441.36 44.772 441.712 45.268C442.064 45.764 442.24 46.388 442.24 47.14C442.24 48.404 441.68 49.364 440.56 50.02C439.44 50.676 437.72 51.004 435.4 51.004C434.968 51.004 434.472 50.996 433.912 50.98C433.352 50.948 432.704 50.9 431.968 50.836L432.256 49.396C432.96 49.428 433.56 49.46 434.056 49.492C434.568 49.524 435.04 49.54 435.472 49.54C436.688 49.54 437.648 49.436 438.352 49.228C439.056 49.02 439.56 48.732 439.864 48.364C440.184 47.996 440.344 47.58 440.344 47.116C440.344 46.7 440.24 46.364 440.032 46.108C439.84 45.852 439.56 45.66 439.192 45.532C438.84 45.404 438.416 45.34 437.92 45.34C437.12 45.34 436.392 45.508 435.736 45.844C435.096 46.18 434.536 46.636 434.056 47.212C433.592 47.788 433.232 48.444 432.976 49.18C432.736 49.9 432.616 50.652 432.616 51.436C432.616 52.092 432.728 52.708 432.952 53.284C433.176 53.844 433.52 54.3 433.984 54.652C434.448 54.988 435.032 55.156 435.736 55.156C436.472 55.156 437.192 54.972 437.896 54.604C438.6 54.22 439.152 53.708 439.552 53.068L441.256 53.572C440.872 54.18 440.368 54.724 439.744 55.204C439.12 55.684 438.432 56.06 437.68 56.332C436.944 56.604 436.184 56.74 435.4 56.74ZM442.938 58.444L443.874 56.308H443.154L443.682 53.812H445.65L445.122 56.308L443.97 58.444H442.938ZM6.31199 94.74C5.33599 94.74 4.51999 94.5 3.86399 94.02C3.22399 93.524 2.76799 92.9 2.49599 92.148L1.99199 94.5H0.119995L3.83999 76.98H5.952L4.36799 84.468C5.02399 83.652 5.76799 82.996 6.59999 82.5C7.44799 82.004 8.33599 81.756 9.26399 81.756C10.192 81.756 10.96 81.996 11.568 82.476C12.192 82.956 12.656 83.588 12.96 84.372C13.28 85.14 13.44 85.972 13.44 86.868C13.44 87.924 13.24 88.924 12.84 89.868C12.44 90.812 11.896 91.652 11.208 92.388C10.536 93.124 9.77599 93.7 8.92799 94.116C8.07999 94.532 7.20799 94.74 6.31199 94.74ZM6.23999 92.916C6.86399 92.916 7.472 92.764 8.064 92.46C8.656 92.14 9.184 91.716 9.64799 91.188C10.128 90.644 10.504 90.036 10.776 89.364C11.064 88.676 11.208 87.972 11.208 87.252C11.208 86.612 11.088 86.012 10.848 85.452C10.624 84.892 10.296 84.444 9.86399 84.108C9.43199 83.756 8.89599 83.58 8.25599 83.58C7.71199 83.58 7.16799 83.716 6.62399 83.988C6.09599 84.26 5.59999 84.62 5.13599 85.068C4.68799 85.5 4.28799 85.98 3.93599 86.508L3.16799 90.132C3.16799 90.644 3.30399 91.116 3.57599 91.548C3.86399 91.964 4.24 92.3 4.70399 92.556C5.16799 92.796 5.67999 92.916 6.23999 92.916ZM20.079 94.74C19.039 94.74 18.151 94.508 17.415 94.044C16.679 93.564 16.119 92.924 15.735 92.124C15.351 91.324 15.159 90.428 15.159 89.436C15.159 88.428 15.343 87.468 15.711 86.556C16.095 85.628 16.631 84.804 17.319 84.084C18.007 83.364 18.807 82.796 19.719 82.38C20.647 81.964 21.655 81.756 22.743 81.756C23.559 81.756 24.279 81.884 24.903 82.14C25.543 82.396 26.039 82.772 26.391 83.268C26.743 83.764 26.919 84.388 26.919 85.14C26.919 86.404 26.359 87.364 25.239 88.02C24.119 88.676 22.399 89.004 20.079 89.004C19.647 89.004 19.151 88.996 18.591 88.98C18.031 88.948 17.383 88.9 16.647 88.836L16.935 87.396C17.639 87.428 18.239 87.46 18.735 87.492C19.247 87.524 19.719 87.54 20.151 87.54C21.367 87.54 22.327 87.436 23.031 87.228C23.735 87.02 24.239 86.732 24.543 86.364C24.863 85.996 25.023 85.58 25.023 85.116C25.023 84.7 24.919 84.364 24.711 84.108C24.519 83.852 24.239 83.66 23.871 83.532C23.519 83.404 23.095 83.34 22.599 83.34C21.799 83.34 21.071 83.508 20.415 83.844C19.775 84.18 19.215 84.636 18.735 85.212C18.271 85.788 17.911 86.444 17.655 87.18C17.415 87.9 17.295 88.652 17.295 89.436C17.295 90.092 17.407 90.708 17.631 91.284C17.855 91.844 18.199 92.3 18.663 92.652C19.127 92.988 19.711 93.156 20.415 93.156C21.151 93.156 21.871 92.972 22.575 92.604C23.279 92.22 23.831 91.708 24.231 91.068L25.935 91.572C25.551 92.18 25.047 92.724 24.423 93.204C23.799 93.684 23.111 94.06 22.359 94.332C21.623 94.604 20.863 94.74 20.079 94.74ZM32.777 94.74C31.849 94.74 31.049 94.508 30.377 94.044C29.705 93.564 29.193 92.932 28.841 92.148C28.489 91.348 28.313 90.476 28.313 89.532C28.313 88.524 28.497 87.556 28.865 86.628C29.249 85.7 29.761 84.876 30.401 84.156C31.057 83.42 31.801 82.836 32.633 82.404C33.465 81.972 34.337 81.756 35.249 81.756C36.209 81.756 37.009 82.02 37.649 82.548C38.289 83.076 38.737 83.716 38.993 84.468L40.601 76.98H42.713L39.545 91.908C39.529 91.972 39.513 92.028 39.497 92.076C39.497 92.124 39.497 92.172 39.497 92.22C39.497 92.508 39.673 92.66 40.025 92.676L39.641 94.5C39.465 94.516 39.305 94.532 39.161 94.548C39.033 94.58 38.913 94.596 38.801 94.596C38.353 94.596 38.009 94.492 37.769 94.284C37.545 94.076 37.433 93.82 37.433 93.516C37.433 93.42 37.441 93.316 37.457 93.204C37.473 93.076 37.497 92.924 37.529 92.748C37.561 92.572 37.601 92.372 37.649 92.148C37.025 92.948 36.265 93.58 35.369 94.044C34.489 94.508 33.625 94.74 32.777 94.74ZM33.689 92.916C34.041 92.916 34.417 92.844 34.817 92.7C35.233 92.556 35.633 92.356 36.017 92.1C36.417 91.844 36.777 91.548 37.097 91.212C37.417 90.86 37.657 90.492 37.817 90.108L38.561 86.508C38.497 85.964 38.313 85.476 38.009 85.044C37.705 84.596 37.329 84.244 36.881 83.988C36.449 83.716 35.985 83.58 35.489 83.58C34.817 83.58 34.185 83.748 33.593 84.084C33.001 84.404 32.473 84.836 32.009 85.38C31.561 85.924 31.201 86.532 30.929 87.204C30.673 87.86 30.545 88.524 30.545 89.196C30.545 89.884 30.673 90.508 30.929 91.068C31.185 91.628 31.545 92.076 32.009 92.412C32.489 92.748 33.049 92.916 33.689 92.916ZM45.363 81.972H47.331L46.707 84.876C47.315 84.012 48.003 83.308 48.771 82.764C49.555 82.22 50.331 81.948 51.099 81.948C51.243 81.948 51.363 81.956 51.459 81.972C51.571 81.972 51.659 81.98 51.723 81.996L51.339 83.82C50.347 83.836 49.411 84.108 48.531 84.636C47.651 85.148 46.955 85.86 46.443 86.772L44.811 94.5H42.699L45.363 81.972ZM56.542 94.74C55.422 94.74 54.494 94.5 53.758 94.02C53.022 93.54 52.47 92.9 52.102 92.1C51.75 91.3 51.574 90.42 51.574 89.46C51.574 88.404 51.766 87.412 52.15 86.484C52.534 85.556 53.062 84.74 53.734 84.036C54.422 83.316 55.214 82.756 56.11 82.356C57.006 81.956 57.958 81.756 58.966 81.756C60.086 81.756 61.014 81.996 61.75 82.476C62.502 82.956 63.062 83.596 63.43 84.396C63.798 85.196 63.982 86.084 63.982 87.06C63.982 88.1 63.79 89.084 63.406 90.012C63.022 90.94 62.486 91.764 61.798 92.484C61.11 93.188 60.318 93.74 59.422 94.14C58.526 94.54 57.566 94.74 56.542 94.74ZM56.902 92.916C57.526 92.916 58.126 92.78 58.702 92.508C59.294 92.236 59.814 91.852 60.262 91.356C60.726 90.844 61.094 90.252 61.366 89.58C61.638 88.908 61.774 88.172 61.774 87.372C61.774 86.636 61.654 85.988 61.414 85.428C61.174 84.852 60.822 84.404 60.358 84.084C59.894 83.748 59.318 83.58 58.63 83.58C58.006 83.58 57.406 83.724 56.83 84.012C56.254 84.284 55.734 84.676 55.27 85.188C54.806 85.684 54.438 86.276 54.166 86.964C53.894 87.636 53.758 88.372 53.758 89.172C53.758 89.892 53.878 90.54 54.118 91.116C54.358 91.676 54.71 92.116 55.174 92.436C55.654 92.756 56.23 92.916 56.902 92.916ZM70.657 94.74C69.537 94.74 68.609 94.5 67.873 94.02C67.137 93.54 66.585 92.9 66.217 92.1C65.865 91.3 65.689 90.42 65.689 89.46C65.689 88.404 65.881 87.412 66.265 86.484C66.649 85.556 67.177 84.74 67.849 84.036C68.537 83.316 69.329 82.756 70.225 82.356C71.121 81.956 72.073 81.756 73.081 81.756C74.201 81.756 75.129 81.996 75.865 82.476C76.617 82.956 77.177 83.596 77.545 84.396C77.913 85.196 78.097 86.084 78.097 87.06C78.097 88.1 77.905 89.084 77.521 90.012C77.137 90.94 76.601 91.764 75.913 92.484C75.225 93.188 74.433 93.74 73.537 94.14C72.641 94.54 71.681 94.74 70.657 94.74ZM71.017 92.916C71.641 92.916 72.241 92.78 72.817 92.508C73.409 92.236 73.929 91.852 74.377 91.356C74.841 90.844 75.209 90.252 75.481 89.58C75.753 88.908 75.889 88.172 75.889 87.372C75.889 86.636 75.769 85.988 75.529 85.428C75.289 84.852 74.937 84.404 74.473 84.084C74.009 83.748 73.433 83.58 72.745 83.58C72.121 83.58 71.521 83.724 70.945 84.012C70.369 84.284 69.849 84.676 69.385 85.188C68.921 85.684 68.553 86.276 68.281 86.964C68.009 87.636 67.873 88.372 67.873 89.172C67.873 89.892 67.993 90.54 68.233 91.116C68.473 91.676 68.825 92.116 69.289 92.436C69.769 92.756 70.345 92.916 71.017 92.916ZM82.06 81.972H83.98L83.404 84.66C84.044 83.764 84.812 83.06 85.708 82.548C86.604 82.02 87.516 81.756 88.444 81.756C89.068 81.756 89.588 81.876 90.004 82.116C90.436 82.356 90.764 82.7 90.988 83.148C91.212 83.596 91.332 84.148 91.348 84.804C91.844 84.132 92.364 83.572 92.908 83.124C93.452 82.676 94.028 82.34 94.636 82.116C95.244 81.876 95.86 81.756 96.484 81.756C97.172 81.756 97.716 81.884 98.116 82.14C98.516 82.396 98.804 82.756 98.98 83.22C99.172 83.668 99.268 84.196 99.268 84.804C99.268 85.14 99.244 85.492 99.196 85.86C99.148 86.228 99.084 86.612 99.004 87.012L97.396 94.5H95.284L96.772 87.492C96.916 86.82 96.988 86.236 96.988 85.74C96.988 85.036 96.836 84.516 96.532 84.18C96.244 83.828 95.82 83.652 95.26 83.652C94.732 83.652 94.204 83.796 93.676 84.084C93.148 84.356 92.652 84.74 92.188 85.236C91.74 85.732 91.356 86.308 91.036 86.964L89.452 94.5H87.34L88.828 87.492C88.908 87.14 88.964 86.82 88.996 86.532C89.028 86.244 89.044 85.972 89.044 85.716C89.044 85.012 88.9 84.492 88.612 84.156C88.324 83.82 87.9 83.652 87.34 83.652C86.556 83.652 85.772 83.956 84.988 84.564C84.22 85.156 83.596 85.948 83.116 86.94L81.508 94.5H79.396L82.06 81.972ZM111.865 94.74C110.937 94.74 110.137 94.508 109.465 94.044C108.793 93.564 108.281 92.932 107.929 92.148C107.577 91.348 107.401 90.476 107.401 89.532C107.401 88.524 107.585 87.556 107.953 86.628C108.337 85.7 108.849 84.876 109.489 84.156C110.145 83.42 110.889 82.836 111.721 82.404C112.553 81.972 113.425 81.756 114.337 81.756C115.297 81.756 116.097 82.02 116.737 82.548C117.377 83.076 117.825 83.716 118.081 84.468L118.633 81.972H120.745L118.633 91.908C118.617 91.972 118.601 92.028 118.585 92.076C118.585 92.124 118.585 92.172 118.585 92.22C118.585 92.508 118.761 92.66 119.113 92.676L118.729 94.5C118.553 94.516 118.393 94.532 118.249 94.548C118.121 94.58 118.001 94.596 117.889 94.596C117.441 94.596 117.097 94.492 116.857 94.284C116.633 94.076 116.521 93.82 116.521 93.516C116.521 93.42 116.529 93.308 116.545 93.18C116.561 93.052 116.585 92.9 116.617 92.724C116.649 92.548 116.689 92.356 116.737 92.148C116.113 92.948 115.353 93.58 114.457 94.044C113.577 94.508 112.713 94.74 111.865 94.74ZM112.777 92.916C113.129 92.916 113.505 92.844 113.905 92.7C114.321 92.556 114.721 92.356 115.105 92.1C115.505 91.844 115.865 91.548 116.185 91.212C116.505 90.86 116.745 90.492 116.905 90.108L117.649 86.508C117.585 85.964 117.401 85.476 117.097 85.044C116.793 84.596 116.417 84.244 115.969 83.988C115.537 83.716 115.073 83.58 114.577 83.58C113.905 83.58 113.273 83.748 112.681 84.084C112.089 84.404 111.561 84.836 111.097 85.38C110.649 85.924 110.289 86.532 110.017 87.204C109.761 87.86 109.633 88.524 109.633 89.196C109.633 89.884 109.761 90.508 110.017 91.068C110.273 91.628 110.633 92.076 111.097 92.412C111.577 92.748 112.137 92.916 112.777 92.916ZM127.116 94.74C126.06 94.74 125.164 94.5 124.428 94.02C123.708 93.54 123.156 92.9 122.772 92.1C122.388 91.3 122.196 90.412 122.196 89.436C122.196 88.428 122.388 87.468 122.772 86.556C123.156 85.628 123.684 84.804 124.356 84.084C125.044 83.364 125.844 82.796 126.756 82.38C127.684 81.964 128.684 81.756 129.756 81.756C130.988 81.756 131.972 82.036 132.708 82.596C133.46 83.14 133.956 83.876 134.196 84.804L132.012 85.452C131.82 84.844 131.5 84.38 131.052 84.06C130.604 83.74 130.052 83.58 129.396 83.58C128.756 83.58 128.132 83.724 127.524 84.012C126.932 84.3 126.396 84.708 125.916 85.236C125.452 85.748 125.076 86.34 124.788 87.012C124.516 87.684 124.38 88.404 124.38 89.172C124.38 89.892 124.508 90.532 124.764 91.092C125.02 91.652 125.372 92.1 125.82 92.436C126.284 92.756 126.812 92.916 127.404 92.916C127.868 92.916 128.332 92.828 128.796 92.652C129.26 92.476 129.676 92.244 130.044 91.956C130.428 91.652 130.716 91.324 130.908 90.972L132.852 91.596C132.484 92.204 131.996 92.748 131.388 93.228C130.796 93.692 130.132 94.06 129.396 94.332C128.66 94.604 127.9 94.74 127.116 94.74ZM135.81 92.748C135.81 92.636 135.818 92.524 135.834 92.412C135.85 92.284 135.866 92.164 135.882 92.052L137.682 83.628H136.05L136.41 81.972H138.018L138.906 77.796H141.018L140.13 81.972H142.794L142.434 83.628H139.794L138.138 91.404C138.122 91.468 138.106 91.532 138.09 91.596C138.09 91.644 138.09 91.7 138.09 91.764C138.09 92.1 138.194 92.348 138.402 92.508C138.61 92.652 138.866 92.724 139.17 92.724C139.442 92.724 139.698 92.692 139.938 92.628C140.194 92.548 140.418 92.468 140.61 92.388C140.802 92.308 140.946 92.244 141.042 92.196L141.162 93.876C140.97 94.004 140.714 94.132 140.394 94.26C140.074 94.388 139.714 94.484 139.314 94.548C138.914 94.628 138.498 94.668 138.066 94.668C137.426 94.668 136.89 94.516 136.458 94.212C136.026 93.892 135.81 93.404 135.81 92.748ZM145.791 81.972H147.903L145.239 94.5H143.127L145.791 81.972ZM146.847 76.98H148.959L148.407 79.62H146.295L146.847 76.98ZM154.157 94.74C153.037 94.74 152.109 94.5 151.373 94.02C150.637 93.54 150.085 92.9 149.717 92.1C149.365 91.3 149.189 90.42 149.189 89.46C149.189 88.404 149.381 87.412 149.765 86.484C150.149 85.556 150.677 84.74 151.349 84.036C152.037 83.316 152.829 82.756 153.725 82.356C154.621 81.956 155.573 81.756 156.581 81.756C157.701 81.756 158.629 81.996 159.365 82.476C160.117 82.956 160.677 83.596 161.045 84.396C161.413 85.196 161.597 86.084 161.597 87.06C161.597 88.1 161.405 89.084 161.021 90.012C160.637 90.94 160.101 91.764 159.413 92.484C158.725 93.188 157.933 93.74 157.037 94.14C156.141 94.54 155.181 94.74 154.157 94.74ZM154.517 92.916C155.141 92.916 155.741 92.78 156.317 92.508C156.909 92.236 157.429 91.852 157.877 91.356C158.341 90.844 158.709 90.252 158.981 89.58C159.253 88.908 159.389 88.172 159.389 87.372C159.389 86.636 159.269 85.988 159.029 85.428C158.789 84.852 158.437 84.404 157.973 84.084C157.509 83.748 156.933 83.58 156.245 83.58C155.621 83.58 155.021 83.724 154.445 84.012C153.869 84.284 153.349 84.676 152.885 85.188C152.421 85.684 152.053 86.276 151.781 86.964C151.509 87.636 151.373 88.372 151.373 89.172C151.373 89.892 151.493 90.54 151.733 91.116C151.973 91.676 152.325 92.116 152.789 92.436C153.269 92.756 153.845 92.916 154.517 92.916ZM165.56 81.972H167.48L166.904 84.66C167.336 84.068 167.848 83.556 168.44 83.124C169.048 82.692 169.696 82.356 170.384 82.116C171.072 81.876 171.76 81.756 172.448 81.756C173.12 81.756 173.656 81.884 174.056 82.14C174.456 82.38 174.744 82.724 174.92 83.172C175.096 83.604 175.184 84.116 175.184 84.708C175.184 85.06 175.152 85.428 175.088 85.812C175.04 86.196 174.976 86.596 174.896 87.012L173.312 94.5H171.2L172.688 87.492C172.768 87.14 172.824 86.82 172.856 86.532C172.888 86.228 172.904 85.948 172.904 85.692C172.904 84.988 172.76 84.476 172.472 84.156C172.184 83.82 171.76 83.652 171.2 83.652C170.672 83.652 170.112 83.796 169.52 84.084C168.928 84.372 168.376 84.764 167.864 85.26C167.352 85.74 166.936 86.3 166.616 86.94L165.008 94.5H162.896L165.56 81.972ZM185.587 81.972H187.699L185.035 94.5H182.923L185.587 81.972ZM186.643 76.98H188.755L188.203 79.62H186.091L186.643 76.98ZM192.801 94.74C191.793 94.74 190.857 94.588 189.993 94.284C189.129 93.964 188.425 93.508 187.881 92.916L189.081 91.5C189.657 92.044 190.265 92.452 190.905 92.724C191.561 92.98 192.257 93.108 192.993 93.108C193.633 93.108 194.193 93.02 194.673 92.844C195.169 92.652 195.553 92.388 195.825 92.052C196.097 91.7 196.233 91.3 196.233 90.852C196.233 90.276 195.993 89.884 195.513 89.676C195.033 89.452 194.321 89.204 193.377 88.932C192.593 88.692 191.937 88.468 191.409 88.26C190.897 88.052 190.513 87.788 190.257 87.468C190.017 87.132 189.897 86.676 189.897 86.1C189.897 85.236 190.137 84.484 190.617 83.844C191.097 83.188 191.745 82.676 192.561 82.308C193.377 81.94 194.297 81.756 195.321 81.756C196.265 81.756 197.089 81.908 197.793 82.212C198.497 82.516 199.073 82.916 199.521 83.412L198.297 84.684C197.897 84.22 197.449 83.884 196.953 83.676C196.457 83.468 195.881 83.364 195.225 83.364C194.601 83.364 194.041 83.452 193.545 83.628C193.065 83.788 192.681 84.036 192.393 84.372C192.121 84.708 191.985 85.124 191.985 85.62C191.985 86.116 192.161 86.468 192.513 86.676C192.865 86.868 193.481 87.084 194.361 87.324C195.225 87.564 195.953 87.82 196.545 88.092C197.153 88.348 197.609 88.668 197.913 89.052C198.217 89.436 198.369 89.948 198.369 90.588C198.369 91.372 198.137 92.076 197.673 92.7C197.225 93.324 196.585 93.82 195.753 94.188C194.921 94.556 193.937 94.74 192.801 94.74ZM211.754 94.74C210.634 94.74 209.706 94.5 208.97 94.02C208.234 93.54 207.682 92.9 207.314 92.1C206.962 91.3 206.786 90.42 206.786 89.46C206.786 88.404 206.978 87.412 207.362 86.484C207.746 85.556 208.274 84.74 208.946 84.036C209.634 83.316 210.426 82.756 211.322 82.356C212.218 81.956 213.17 81.756 214.178 81.756C215.298 81.756 216.226 81.996 216.962 82.476C217.714 82.956 218.274 83.596 218.642 84.396C219.01 85.196 219.194 86.084 219.194 87.06C219.194 88.1 219.002 89.084 218.618 90.012C218.234 90.94 217.698 91.764 217.01 92.484C216.322 93.188 215.53 93.74 214.634 94.14C213.738 94.54 212.778 94.74 211.754 94.74ZM212.114 92.916C212.738 92.916 213.338 92.78 213.914 92.508C214.506 92.236 215.026 91.852 215.474 91.356C215.938 90.844 216.306 90.252 216.578 89.58C216.85 88.908 216.986 88.172 216.986 87.372C216.986 86.636 216.866 85.988 216.626 85.428C216.386 84.852 216.034 84.404 215.57 84.084C215.106 83.748 214.53 83.58 213.842 83.58C213.218 83.58 212.618 83.724 212.042 84.012C211.466 84.284 210.946 84.676 210.482 85.188C210.018 85.684 209.65 86.276 209.378 86.964C209.106 87.636 208.97 88.372 208.97 89.172C208.97 89.892 209.09 90.54 209.33 91.116C209.57 91.676 209.922 92.116 210.386 92.436C210.866 92.756 211.442 92.916 212.114 92.916ZM223.156 81.972H225.076L224.5 84.66C224.932 84.068 225.444 83.556 226.036 83.124C226.644 82.692 227.292 82.356 227.98 82.116C228.668 81.876 229.356 81.756 230.044 81.756C230.716 81.756 231.252 81.884 231.652 82.14C232.052 82.38 232.34 82.724 232.516 83.172C232.692 83.604 232.78 84.116 232.78 84.708C232.78 85.06 232.748 85.428 232.684 85.812C232.636 86.196 232.572 86.596 232.492 87.012L230.908 94.5H228.796L230.284 87.492C230.364 87.14 230.42 86.82 230.452 86.532C230.484 86.228 230.5 85.948 230.5 85.692C230.5 84.988 230.356 84.476 230.068 84.156C229.78 83.82 229.356 83.652 228.796 83.652C228.268 83.652 227.708 83.796 227.116 84.084C226.524 84.372 225.972 84.764 225.46 85.26C224.948 85.74 224.532 86.3 224.212 86.94L222.604 94.5H220.492L223.156 81.972ZM243.423 83.628H241.815L242.175 81.972H243.783L243.831 81.708C243.959 81.084 244.175 80.484 244.479 79.908C244.783 79.316 245.175 78.78 245.655 78.3C246.135 77.82 246.687 77.444 247.311 77.172C247.935 76.884 248.615 76.74 249.351 76.74C249.911 76.74 250.415 76.804 250.863 76.932C251.311 77.06 251.703 77.22 252.039 77.412C252.375 77.604 252.655 77.796 252.879 77.988L251.655 79.548C251.399 79.276 251.047 79.044 250.599 78.852C250.151 78.66 249.647 78.564 249.087 78.564C248.511 78.564 248.007 78.716 247.575 79.02C247.143 79.324 246.791 79.716 246.519 80.196C246.263 80.66 246.079 81.14 245.967 81.636L245.895 81.972H252.015L249.351 94.5H247.239L249.543 83.628H245.535L243.231 94.5H241.119L243.423 83.628ZM255.564 81.972H257.532L256.908 84.876C257.516 84.012 258.204 83.308 258.972 82.764C259.756 82.22 260.532 81.948 261.3 81.948C261.444 81.948 261.564 81.956 261.66 81.972C261.772 81.972 261.86 81.98 261.924 81.996L261.54 83.82C260.548 83.836 259.612 84.108 258.732 84.636C257.852 85.148 257.156 85.86 256.644 86.772L255.012 94.5H252.9L255.564 81.972ZM266.719 94.74C265.679 94.74 264.791 94.508 264.055 94.044C263.319 93.564 262.759 92.924 262.375 92.124C261.991 91.324 261.799 90.428 261.799 89.436C261.799 88.428 261.983 87.468 262.351 86.556C262.735 85.628 263.271 84.804 263.959 84.084C264.647 83.364 265.447 82.796 266.359 82.38C267.287 81.964 268.295 81.756 269.383 81.756C270.199 81.756 270.919 81.884 271.543 82.14C272.183 82.396 272.679 82.772 273.031 83.268C273.383 83.764 273.559 84.388 273.559 85.14C273.559 86.404 272.999 87.364 271.879 88.02C270.759 88.676 269.039 89.004 266.719 89.004C266.287 89.004 265.791 88.996 265.231 88.98C264.671 88.948 264.023 88.9 263.287 88.836L263.575 87.396C264.279 87.428 264.879 87.46 265.375 87.492C265.887 87.524 266.359 87.54 266.791 87.54C268.007 87.54 268.967 87.436 269.671 87.228C270.375 87.02 270.879 86.732 271.183 86.364C271.503 85.996 271.663 85.58 271.663 85.116C271.663 84.7 271.559 84.364 271.351 84.108C271.159 83.852 270.879 83.66 270.511 83.532C270.159 83.404 269.735 83.34 269.239 83.34C268.439 83.34 267.711 83.508 267.055 83.844C266.415 84.18 265.855 84.636 265.375 85.212C264.911 85.788 264.551 86.444 264.295 87.18C264.055 87.9 263.935 88.652 263.935 89.436C263.935 90.092 264.047 90.708 264.271 91.284C264.495 91.844 264.839 92.3 265.303 92.652C265.767 92.988 266.351 93.156 267.055 93.156C267.791 93.156 268.511 92.972 269.215 92.604C269.919 92.22 270.471 91.708 270.871 91.068L272.575 91.572C272.191 92.18 271.687 92.724 271.063 93.204C270.439 93.684 269.751 94.06 268.999 94.332C268.263 94.604 267.503 94.74 266.719 94.74ZM274.424 94.5L275 91.812H276.776L276.2 94.5H274.424ZM282.863 82.476L283.895 79.716H283.199L283.775 76.98H285.791L285.215 79.716L283.919 82.476H282.863ZM279.719 82.476L280.751 79.716H280.055L280.631 76.98H282.647L282.071 79.716L280.775 82.476H279.719Z" fill="#120A0A"/>
</svg>