<svg width="77" height="51" viewBox="0 0 77 51" fill="none" xmlns="http://www.w3.org/2000/svg">
<path id="Vector" d="M77 34.2571C77 36.5169 76.5229 38.6356 75.5688 40.613C74.71 42.5904 73.5173 44.3324 71.9907 45.839C70.5595 47.2514 68.842 48.3814 66.8383 49.2288C64.8346 50.0763 62.6877 50.5 60.3978 50.5C58.1078 50.5 55.961 50.0763 53.9572 49.2288C51.9535 48.3814 50.1884 47.2514 48.6617 45.839C47.2305 44.3324 46.0855 42.5904 45.2268 40.613C44.368 38.6356 43.9387 36.5169 43.9387 34.2571C43.9387 30.4906 44.5589 27.0066 45.7993 23.8051C47.0396 20.5094 48.7094 17.4492 50.8085 14.6243C53.0031 11.7994 55.4839 9.20998 58.2509 6.85593C61.1134 4.50188 64.0713 2.38324 67.1245 0.5L72.4201 5.01977C70.6072 6.62053 68.9374 8.64501 67.4108 11.0932C65.8841 13.5414 64.8823 15.9896 64.4052 18.4379C68.031 19.2853 71.0366 21.2156 73.4219 24.2288C75.8073 27.1478 77 30.4906 77 34.2571ZM33.0613 34.2571C33.0613 36.5169 32.5843 38.6356 31.6301 40.613C30.7714 42.5904 29.5787 44.3324 28.052 45.839C26.6208 47.2514 24.8556 48.3814 22.7565 49.2288C20.7528 50.0763 18.6059 50.5 16.316 50.5C14.026 50.5 11.8792 50.0763 9.87546 49.2288C7.96716 48.3814 6.24969 47.2514 4.72305 45.839C3.29182 44.3324 2.14684 42.5904 1.2881 40.613C0.429368 38.6356 0 36.5169 0 34.2571C0 30.4906 0.620198 27.0066 1.86059 23.8051C3.10099 20.5094 4.77076 17.4492 6.86989 14.6243C9.06444 11.7994 11.5452 9.20998 14.3123 6.85593C17.1747 4.50188 20.1326 2.38324 23.1859 0.5L28.3383 5.01977C26.6208 6.62053 24.9988 8.64501 23.4721 11.0932C21.9455 13.5414 20.9436 15.9896 20.4665 18.4379C24.0923 19.2853 27.0979 21.2156 29.4833 24.2288C31.8686 27.1478 33.0613 30.4906 33.0613 34.2571Z" fill="#F7DC5A"/>
</svg>
