<svg width="108" height="8" viewBox="0 0 108 8" fill="none" xmlns="http://www.w3.org/2000/svg">
<path id="Vector" d="M1.46999 0.399963L3.38999 5.76997L5.28999 0.399963H6.73999L3.96999 7.49997H2.80999L0.019989 0.399963H1.46999ZM12.928 6.28996V7.49997H7.99799V0.399963H12.838V1.60997H9.37799V3.31998H12.368V4.43997H9.37799V6.28996H12.928ZM14.504 7.49997V0.399963H17.644C17.97 0.399963 18.27 0.46997 18.544 0.60997C18.824 0.74297 19.064 0.922963 19.264 1.14996C19.464 1.36996 19.62 1.62297 19.734 1.90997C19.847 2.18997 19.904 2.47296 19.904 2.75996C19.904 3.21996 19.787 3.63997 19.554 4.01997C19.327 4.39297 19.017 4.66297 18.624 4.82997L20.244 7.49997H18.694L17.244 5.11996H15.884V7.49997H14.504ZM15.884 3.90997H17.614C17.74 3.90997 17.857 3.87998 17.964 3.81998C18.077 3.75998 18.174 3.67997 18.254 3.57997C18.334 3.47297 18.397 3.34998 18.444 3.20998C18.49 3.06998 18.514 2.91996 18.514 2.75996C18.514 2.59296 18.487 2.43997 18.434 2.29997C18.38 2.15997 18.307 2.03997 18.214 1.93997C18.127 1.83297 18.024 1.75297 17.904 1.69997C17.79 1.63997 17.674 1.60997 17.554 1.60997H15.884V3.90997ZM21.654 7.49997V0.399963H23.034V7.49997H21.654ZM25.015 7.49997V0.399963H29.785V1.60997H26.395V3.43997H29.215V4.55997H26.395V7.49997H25.015ZM31.258 7.49997V0.399963H32.638V7.49997H31.258ZM39.549 6.28996V7.49997H34.619V0.399963H39.459V1.60997H35.999V3.31998H38.989V4.43997H35.999V6.28996H39.549ZM41.125 7.49997V0.399963H43.705C44.285 0.399963 44.791 0.492962 45.225 0.679962C45.665 0.866962 46.031 1.11997 46.325 1.43997C46.618 1.75997 46.838 2.13698 46.985 2.56998C47.131 2.99698 47.205 3.45297 47.205 3.93997C47.205 4.47997 47.121 4.96997 46.955 5.40997C46.795 5.84297 46.561 6.21697 46.255 6.52997C45.948 6.83697 45.578 7.07697 45.145 7.24997C44.718 7.41697 44.238 7.49997 43.705 7.49997H41.125ZM45.815 3.93997C45.815 3.59997 45.768 3.28697 45.675 2.99997C45.581 2.71297 45.445 2.46696 45.265 2.25996C45.085 2.05296 44.861 1.89297 44.595 1.77997C44.335 1.66697 44.038 1.60997 43.705 1.60997H42.505V6.28996H43.705C44.045 6.28996 44.345 6.22997 44.605 6.10997C44.871 5.98997 45.091 5.82696 45.265 5.61996C45.445 5.40696 45.581 5.15696 45.675 4.86996C45.768 4.58296 45.815 4.27297 45.815 3.93997ZM51.685 7.49997V0.399963H54.695C55.022 0.399963 55.322 0.46997 55.595 0.60997C55.875 0.74297 56.115 0.922963 56.315 1.14996C56.515 1.36996 56.672 1.62297 56.785 1.90997C56.899 2.18997 56.955 2.47296 56.955 2.75996C56.955 3.05996 56.902 3.35297 56.795 3.63997C56.689 3.91997 56.539 4.16997 56.345 4.38997C56.152 4.60997 55.919 4.78697 55.645 4.91997C55.372 5.05297 55.072 5.11996 54.745 5.11996H53.065V7.49997H51.685ZM53.065 3.90997H54.665C54.919 3.90997 55.129 3.80698 55.295 3.59998C55.469 3.39298 55.555 3.11296 55.555 2.75996C55.555 2.57996 55.529 2.41997 55.475 2.27997C55.422 2.13297 55.352 2.00997 55.265 1.90997C55.179 1.80997 55.075 1.73697 54.955 1.68997C54.842 1.63697 54.725 1.60997 54.605 1.60997H53.065V3.90997ZM61.416 6.32997C61.742 6.32997 62.016 6.26297 62.236 6.12997C62.462 5.99697 62.642 5.82297 62.776 5.60997C62.916 5.39697 63.012 5.15297 63.066 4.87997C63.126 4.59997 63.156 4.31297 63.156 4.01997V0.399963H64.526V4.01997C64.526 4.50697 64.466 4.96297 64.346 5.38997C64.232 5.81697 64.049 6.18996 63.796 6.50996C63.549 6.82996 63.229 7.08297 62.836 7.26997C62.442 7.45697 61.972 7.54997 61.426 7.54997C60.859 7.54997 60.376 7.45296 59.976 7.25996C59.582 7.05996 59.262 6.79997 59.016 6.47997C58.769 6.15297 58.589 5.77698 58.476 5.34998C58.369 4.92298 58.316 4.47997 58.316 4.01997V0.399963H59.696V4.01997C59.696 4.31997 59.722 4.60997 59.776 4.88997C59.836 5.16297 59.932 5.40696 60.066 5.61996C60.206 5.83296 60.386 6.00697 60.606 6.13997C60.826 6.26697 61.096 6.32997 61.416 6.32997ZM66.416 7.49997V0.399963H69.556C69.882 0.399963 70.182 0.46997 70.456 0.60997C70.736 0.74297 70.976 0.922963 71.176 1.14996C71.376 1.36996 71.532 1.62297 71.646 1.90997C71.759 2.18997 71.816 2.47296 71.816 2.75996C71.816 3.21996 71.699 3.63997 71.466 4.01997C71.239 4.39297 70.929 4.66297 70.536 4.82997L72.156 7.49997H70.606L69.156 5.11996H67.796V7.49997H66.416ZM67.796 3.90997H69.526C69.652 3.90997 69.769 3.87998 69.876 3.81998C69.989 3.75998 70.086 3.67997 70.166 3.57997C70.246 3.47297 70.309 3.34998 70.356 3.20998C70.402 3.06998 70.426 2.91996 70.426 2.75996C70.426 2.59296 70.399 2.43997 70.346 2.29997C70.292 2.15997 70.219 2.03997 70.126 1.93997C70.039 1.83297 69.936 1.75297 69.816 1.69997C69.702 1.63997 69.586 1.60997 69.466 1.60997H67.796V3.90997ZM73.136 3.89996C73.136 3.46696 73.213 3.03996 73.366 2.61996C73.526 2.19296 73.756 1.81297 74.056 1.47997C74.356 1.14697 74.723 0.876968 75.156 0.669968C75.59 0.462968 76.083 0.35997 76.636 0.35997C77.29 0.35997 77.853 0.502963 78.326 0.789963C78.806 1.07696 79.163 1.44997 79.396 1.90997L78.336 2.63997C78.243 2.43997 78.13 2.27297 77.996 2.13997C77.863 1.99997 77.72 1.88997 77.566 1.80997C77.413 1.72997 77.253 1.67297 77.086 1.63997C76.92 1.59997 76.756 1.57997 76.596 1.57997C76.25 1.57997 75.946 1.64996 75.686 1.78996C75.433 1.92996 75.22 2.11297 75.046 2.33997C74.88 2.55997 74.753 2.81298 74.666 3.09998C74.58 3.37998 74.536 3.65997 74.536 3.93997C74.536 4.25297 74.586 4.55698 74.686 4.84998C74.786 5.13698 74.926 5.38997 75.106 5.60997C75.293 5.82997 75.513 6.00697 75.766 6.13997C76.026 6.27297 76.31 6.33997 76.616 6.33997C76.776 6.33997 76.943 6.31997 77.116 6.27997C77.29 6.23997 77.453 6.17697 77.606 6.08997C77.766 6.00297 77.913 5.89296 78.046 5.75996C78.18 5.61996 78.286 5.45296 78.366 5.25996L79.496 5.90997C79.383 6.17697 79.22 6.41296 79.006 6.61996C78.8 6.81996 78.563 6.98997 78.296 7.12997C78.036 7.26997 77.756 7.37697 77.456 7.44997C77.156 7.52297 76.863 7.55997 76.576 7.55997C76.07 7.55997 75.606 7.45297 75.186 7.23997C74.766 7.02698 74.403 6.74997 74.096 6.40997C73.796 6.06297 73.56 5.67298 73.386 5.23997C73.22 4.79997 73.136 4.35296 73.136 3.89996ZM86.892 0.399963V7.49997H85.522V4.46997H82.302V7.49997H80.922V0.399963H82.302V3.26997H85.522V0.399963H86.892ZM90.893 0.399963H92.113L94.813 7.49997H93.393L92.733 5.72997H90.253L89.603 7.49997H88.183L90.893 0.399963ZM92.483 4.75996L91.503 1.96997L90.483 4.75996H92.483ZM100.214 2.25996C100.167 2.21296 100.081 2.14998 99.954 2.06998C99.834 1.98998 99.684 1.91297 99.504 1.83997C99.331 1.75997 99.141 1.69297 98.934 1.63997C98.727 1.58697 98.517 1.55997 98.304 1.55997C97.924 1.55997 97.641 1.62997 97.454 1.76997C97.267 1.90997 97.174 2.10697 97.174 2.35997C97.174 2.50697 97.207 2.62997 97.274 2.72997C97.347 2.82297 97.451 2.90697 97.584 2.97997C97.717 3.05297 97.884 3.11996 98.084 3.17996C98.291 3.23996 98.527 3.30296 98.794 3.36996C99.141 3.46296 99.454 3.56297 99.734 3.66997C100.021 3.77697 100.261 3.90998 100.454 4.06998C100.654 4.22998 100.807 4.42296 100.914 4.64996C101.021 4.86996 101.074 5.14297 101.074 5.46997C101.074 5.84997 101.001 6.17697 100.854 6.44997C100.714 6.71697 100.521 6.93298 100.274 7.09998C100.034 7.26698 99.754 7.38997 99.434 7.46997C99.121 7.54297 98.791 7.57997 98.444 7.57997C97.911 7.57997 97.384 7.49997 96.864 7.33997C96.344 7.17997 95.877 6.95297 95.464 6.65997L96.074 5.46997C96.134 5.52997 96.241 5.60998 96.394 5.70998C96.554 5.80298 96.741 5.89997 96.954 5.99997C97.167 6.09297 97.404 6.17298 97.664 6.23997C97.924 6.30697 98.191 6.33997 98.464 6.33997C99.224 6.33997 99.604 6.09697 99.604 5.60997C99.604 5.45697 99.561 5.32697 99.474 5.21997C99.387 5.11297 99.264 5.01997 99.104 4.93997C98.944 4.85997 98.751 4.78697 98.524 4.71997C98.297 4.65297 98.044 4.57997 97.764 4.49997C97.424 4.40697 97.127 4.30697 96.874 4.19997C96.627 4.08697 96.421 3.95697 96.254 3.80997C96.087 3.65697 95.961 3.48296 95.874 3.28996C95.794 3.08996 95.754 2.85297 95.754 2.57997C95.754 2.21997 95.821 1.89996 95.954 1.61996C96.087 1.33996 96.271 1.10697 96.504 0.919968C96.744 0.732968 97.021 0.592969 97.334 0.499969C97.647 0.399969 97.984 0.349976 98.344 0.349976C98.844 0.349976 99.304 0.429966 99.724 0.589966C100.144 0.742966 100.511 0.926969 100.824 1.13997L100.214 2.25996ZM107.547 6.28996V7.49997H102.617V0.399963H107.457V1.60997H103.997V3.31998H106.987V4.43997H103.997V6.28996H107.547Z" fill="#999999"/>
</svg>
