<svg width="99" height="18" viewBox="0 0 99 18" fill="none" xmlns="http://www.w3.org/2000/svg">
<path id="Vector" d="M0.391998 12.364V9.45998H7.664V12.364H0.391998ZM27.205 4.92397C27.093 4.81197 26.885 4.65997 26.581 4.46797C26.293 4.27597 25.933 4.09197 25.501 3.91597C25.085 3.72397 24.629 3.56397 24.133 3.43597C23.637 3.30797 23.133 3.24397 22.621 3.24397C21.709 3.24397 21.029 3.41197 20.581 3.74797C20.133 4.08397 19.909 4.55597 19.909 5.16397C19.909 5.51597 19.989 5.81197 20.149 6.05197C20.325 6.27597 20.573 6.47596 20.893 6.65196C21.213 6.82796 21.613 6.98797 22.093 7.13197C22.589 7.27597 23.157 7.42797 23.797 7.58797C24.629 7.81197 25.381 8.05197 26.053 8.30797C26.741 8.56397 27.317 8.88398 27.781 9.26797C28.261 9.65197 28.629 10.116 28.885 10.66C29.141 11.188 29.269 11.844 29.269 12.628C29.269 13.54 29.093 14.324 28.741 14.98C28.405 15.62 27.941 16.14 27.349 16.54C26.773 16.94 26.101 17.236 25.333 17.428C24.581 17.604 23.789 17.692 22.957 17.692C21.677 17.692 20.413 17.5 19.165 17.116C17.917 16.732 16.797 16.188 15.805 15.484L17.269 12.628C17.413 12.772 17.669 12.964 18.037 13.204C18.421 13.428 18.869 13.66 19.381 13.9C19.893 14.124 20.461 14.316 21.085 14.476C21.709 14.636 22.349 14.716 23.005 14.716C24.829 14.716 25.741 14.132 25.741 12.964C25.741 12.596 25.637 12.284 25.429 12.028C25.221 11.772 24.925 11.548 24.541 11.356C24.157 11.164 23.693 10.988 23.149 10.828C22.605 10.668 21.997 10.492 21.325 10.3C20.509 10.076 19.797 9.83597 19.189 9.57997C18.597 9.30797 18.101 8.99597 17.701 8.64397C17.301 8.27597 16.997 7.85997 16.789 7.39597C16.597 6.91597 16.501 6.34797 16.501 5.69197C16.501 4.82797 16.661 4.05997 16.981 3.38797C17.301 2.71597 17.741 2.15596 18.301 1.70796C18.877 1.25996 19.541 0.923966 20.293 0.699966C21.045 0.459966 21.853 0.339966 22.717 0.339966C23.917 0.339966 25.021 0.53197 26.029 0.91597C27.037 1.28397 27.917 1.72396 28.669 2.23596L27.205 4.92397ZM35.132 17.74C34.524 17.74 33.956 17.644 33.428 17.452C32.9 17.244 32.444 16.964 32.06 16.612C31.676 16.244 31.372 15.82 31.148 15.34C30.94 14.86 30.836 14.332 30.836 13.756C30.836 13.164 30.964 12.62 31.22 12.124C31.492 11.612 31.86 11.18 32.324 10.828C32.804 10.476 33.372 10.204 34.028 10.012C34.684 9.80396 35.404 9.69997 36.188 9.69997C36.748 9.69997 37.292 9.74796 37.82 9.84396C38.364 9.93996 38.844 10.076 39.26 10.252V9.53197C39.26 8.69997 39.02 8.05997 38.54 7.61197C38.076 7.16397 37.38 6.93997 36.452 6.93997C35.78 6.93997 35.124 7.05997 34.484 7.29997C33.844 7.53997 33.188 7.89197 32.516 8.35597L31.532 6.31596C33.148 5.24396 34.892 4.70796 36.764 4.70796C38.572 4.70796 39.972 5.15597 40.964 6.05197C41.972 6.93197 42.476 8.21197 42.476 9.89197V13.804C42.476 14.14 42.532 14.38 42.644 14.524C42.772 14.668 42.972 14.748 43.244 14.764V17.5C42.7 17.612 42.228 17.668 41.828 17.668C41.22 17.668 40.748 17.532 40.412 17.26C40.092 16.988 39.892 16.628 39.812 16.18L39.74 15.484C39.18 16.22 38.5 16.78 37.7 17.164C36.9 17.548 36.044 17.74 35.132 17.74ZM36.044 15.388C36.588 15.388 37.1 15.292 37.58 15.1C38.076 14.908 38.46 14.652 38.732 14.332C39.084 14.06 39.26 13.756 39.26 13.42V11.98C38.876 11.836 38.46 11.724 38.012 11.644C37.564 11.548 37.132 11.5 36.716 11.5C35.884 11.5 35.204 11.692 34.676 12.076C34.148 12.444 33.884 12.916 33.884 13.492C33.884 14.036 34.092 14.492 34.508 14.86C34.924 15.212 35.436 15.388 36.044 15.388ZM53.209 7.70796C52.233 7.72396 51.361 7.91597 50.593 8.28397C49.825 8.63597 49.273 9.17197 48.937 9.89197V17.5H45.721V4.92397H48.673V7.61197C48.897 7.17997 49.161 6.79598 49.465 6.45998C49.769 6.10798 50.097 5.80397 50.449 5.54797C50.801 5.29197 51.153 5.09997 51.505 4.97197C51.873 4.82797 52.225 4.75597 52.561 4.75597C52.737 4.75597 52.865 4.75597 52.945 4.75597C53.041 4.75597 53.129 4.76397 53.209 4.77997V7.70796ZM58.51 17.74C57.902 17.74 57.334 17.644 56.806 17.452C56.278 17.244 55.822 16.964 55.438 16.612C55.054 16.244 54.75 15.82 54.526 15.34C54.318 14.86 54.214 14.332 54.214 13.756C54.214 13.164 54.342 12.62 54.598 12.124C54.87 11.612 55.238 11.18 55.702 10.828C56.182 10.476 56.75 10.204 57.406 10.012C58.062 9.80396 58.782 9.69997 59.566 9.69997C60.126 9.69997 60.67 9.74796 61.198 9.84396C61.742 9.93996 62.222 10.076 62.638 10.252V9.53197C62.638 8.69997 62.398 8.05997 61.918 7.61197C61.454 7.16397 60.758 6.93997 59.83 6.93997C59.158 6.93997 58.502 7.05997 57.862 7.29997C57.222 7.53997 56.566 7.89197 55.894 8.35597L54.91 6.31596C56.526 5.24396 58.27 4.70796 60.142 4.70796C61.95 4.70796 63.35 5.15597 64.342 6.05197C65.35 6.93197 65.854 8.21197 65.854 9.89197V13.804C65.854 14.14 65.91 14.38 66.022 14.524C66.15 14.668 66.35 14.748 66.622 14.764V17.5C66.078 17.612 65.606 17.668 65.206 17.668C64.598 17.668 64.126 17.532 63.79 17.26C63.47 16.988 63.27 16.628 63.19 16.18L63.118 15.484C62.558 16.22 61.878 16.78 61.078 17.164C60.278 17.548 59.422 17.74 58.51 17.74ZM59.422 15.388C59.966 15.388 60.478 15.292 60.958 15.1C61.454 14.908 61.838 14.652 62.11 14.332C62.462 14.06 62.638 13.756 62.638 13.42V11.98C62.254 11.836 61.838 11.724 61.39 11.644C60.942 11.548 60.51 11.5 60.094 11.5C59.262 11.5 58.582 11.692 58.054 12.076C57.526 12.444 57.262 12.916 57.262 13.492C57.262 14.036 57.47 14.492 57.886 14.86C58.302 15.212 58.814 15.388 59.422 15.388ZM89.313 17.5V6.21997L84.921 14.62H83.121L78.729 6.21997V17.5H75.417V0.459976H78.969L84.009 10.156L89.097 0.459976H92.625V17.5H89.313ZM96.039 17.5V14.044H98.679V17.5H96.039Z" fill="#120A0A"/>
</svg>
